<svg width="279" height="63" viewBox="0 0 279 63" fill="none" xmlns="http://www.w3.org/2000/svg">
<path d="M69.5442 62.7984H56.575C55.3496 62.7984 54.203 62.2207 53.5271 61.2582L34.1967 33.8013C33.3902 32.6554 33.3839 31.1662 34.1842 30.0164L50.6264 6.32487L52.8388 3.13528C52.963 3.02402 53.0895 2.91276 53.214 2.80735C54.8561 1.4507 57.0126 0.619141 59.3783 0.619141C61.7439 0.619141 63.9004 1.4507 65.5426 2.80735C67.5122 4.43923 68.7439 6.82263 68.7439 9.48321C68.7439 10.2562 68.6381 11.0077 68.4369 11.7222C68.3458 12.0481 68.1862 12.3507 67.9891 12.6338L67.8669 12.8114L65.5632 16.1259L55.9259 30.0164C55.1277 31.1681 55.132 32.6554 55.9405 33.8013L72.5921 57.4558C74.2052 59.7415 72.4615 62.7984 69.5442 62.7984Z" fill="#FAFAFA"/>
<path d="M40.1577 57.4323L23.3403 33.5924C22.5255 32.4388 22.5255 30.9377 23.3403 29.7841L40.162 5.92273C41.7751 3.63498 40.0335 0.576172 37.1141 0.576172H3.6575C1.63799 0.576172 0 2.11826 0 4.01951V59.3375C0 61.2388 1.63799 62.7809 3.6575 62.7809H37.1119C40.0292 62.7789 41.773 59.7201 40.1577 57.4323Z" fill="#FAFAFA"/>
<path d="M98.7764 13.844L107.614 23.8805H102.39L94.1766 14.7361V23.8805H89.6426V4.36523H94.1766V12.9798L102.062 4.36523H107.286L98.7764 13.844Z" fill="#FAFAFA"/>
<path d="M130.804 23.8805H125.876L124.496 20.3676H115.329L113.949 23.8805H109.054L117.103 4.36523H122.722L130.804 23.8805ZM119.929 8.79796L116.775 16.7713H123.083L119.929 8.79796Z" fill="#FAFAFA"/>
<path d="M133.693 4.36523H142.269C144.459 4.36523 146.321 4.99714 147.854 6.26099C149.365 7.52482 150.121 9.07674 150.121 10.9167C150.121 12.7567 149.365 14.3087 147.854 15.5725C146.321 16.8363 144.459 17.4683 142.269 17.4683H138.227V23.8805H133.693V4.36523ZM138.227 13.8719H142.269C143.232 13.8719 144.032 13.5931 144.667 13.0355C145.302 12.4594 145.62 11.7531 145.62 10.9167C145.62 10.0618 145.302 9.35553 144.667 8.79796C144.032 8.24038 143.232 7.9616 142.269 7.9616H138.227V13.8719Z" fill="#FAFAFA"/>
<path d="M158.264 10.7774H162.306C164.496 10.7774 166.358 11.4093 167.891 12.6731C169.402 13.9369 170.158 15.4889 170.158 17.3289C170.158 19.1689 169.402 20.7207 167.891 21.9846C166.358 23.2485 164.496 23.8805 162.306 23.8805H153.73V4.36523H158.264V10.7774ZM158.264 20.284H162.306C163.269 20.284 164.069 20.0052 164.704 19.4476C165.339 18.8901 165.657 18.1838 165.657 17.3289C165.657 16.4925 165.339 15.7955 164.704 15.238C164.069 14.6618 163.269 14.3737 162.306 14.3737H158.264V20.284Z" fill="#FAFAFA"/>
<path d="M178.3 15.8234V20.2004H187.992V23.8805H173.766V4.36523H187.828V8.04523H178.3V12.1992H187.006V15.8234H178.3Z" fill="#FAFAFA"/>
<path d="M191.846 4.36523H200.421C202.611 4.36523 204.473 4.99714 206.007 6.26099C207.518 7.52482 208.273 9.07674 208.273 10.9167C208.273 12.7567 207.518 14.3087 206.007 15.5725C204.473 16.8363 202.611 17.4683 200.421 17.4683H196.38V23.8805H191.846V4.36523ZM196.38 13.8719H200.421C201.385 13.8719 202.184 13.5931 202.819 13.0355C203.454 12.4594 203.772 11.7531 203.772 10.9167C203.772 10.0618 203.454 9.35553 202.819 8.79796C202.184 8.24038 201.385 7.9616 200.421 7.9616H196.38V13.8719Z" fill="#FAFAFA"/>
<path d="M224.959 12.1155V4.36523H229.46V23.8805H224.959V15.7955H216.418V23.8805H211.882V4.36523H216.418V12.1155H224.959Z" fill="#FAFAFA"/>
<path d="M242.964 23.8805H234.39V4.36523H238.923V10.7774H242.964C245.154 10.7774 247.016 11.4093 248.549 12.6731C250.06 13.9369 250.817 15.4889 250.817 17.3289C250.817 19.1689 250.06 20.7207 248.549 21.9846C247.016 23.2485 245.154 23.8805 242.964 23.8805ZM257.42 23.8805H252.919V4.36523H257.42V23.8805ZM238.923 14.3737V20.284H242.964C243.928 20.284 244.728 20.0052 245.362 19.4476C245.997 18.8901 246.314 18.1838 246.314 17.3289C246.314 16.4739 245.997 15.7677 245.362 15.2101C244.728 14.6525 243.928 14.3737 242.964 14.3737H238.923Z" fill="#FAFAFA"/>
<path d="M266.883 15.8234V20.2004H276.575V23.8805H262.35V4.36523H276.411V8.04523H266.883V12.1992H275.59V15.8234H266.883Z" fill="#FAFAFA"/>
<path d="M98.7471 48.9749L107.557 59.0111H102.349L94.1621 49.867V59.0111H89.6426V39.4961H94.1621V48.1106L102.022 39.4961H107.229L98.7471 48.9749Z" fill="#FAFAFA"/>
<path d="M130.672 59.0111H125.759L124.384 55.4985H115.247L113.871 59.0111H108.991L117.015 39.4961H122.615L130.672 59.0111ZM119.832 43.9286L116.688 51.902H122.975L119.832 43.9286Z" fill="#FAFAFA"/>
<path d="M133.552 39.4961H142.1C144.283 39.4961 146.139 40.1278 147.667 41.3917C149.173 42.6556 149.927 44.2075 149.927 46.0475C149.927 47.8875 149.173 49.4394 147.667 50.7033C146.139 51.9672 144.283 52.5991 142.1 52.5991H138.071V59.0111H133.552V39.4961ZM138.071 49.0027H142.1C143.06 49.0027 143.857 48.7238 144.49 48.1664C145.123 47.5902 145.44 46.8838 145.44 46.0475C145.44 45.1925 145.123 44.4863 144.49 43.9286C143.857 43.3712 143.06 43.0923 142.1 43.0923H138.071V49.0027Z" fill="#FAFAFA"/>
<path d="M151.406 39.4961H168.272V43.176H162.083V59.0111H157.563V43.176H151.406V39.4961Z" fill="#FAFAFA"/>
<path d="M179.998 59.0111H171.45V39.4961H175.97V45.9081H179.998C182.181 45.9081 184.037 46.54 185.565 47.8039C187.072 49.0678 187.825 50.6197 187.825 52.4597C187.825 54.2997 187.072 55.8516 185.565 57.1155C184.037 58.3792 182.181 59.0111 179.998 59.0111ZM194.408 59.0111H189.921V39.4961H194.408V59.0111ZM175.97 49.5045V55.4149H179.998C180.959 55.4149 181.756 55.136 182.389 54.5784C183.022 54.0209 183.338 53.3147 183.338 52.4597C183.338 51.6047 183.022 50.8985 182.389 50.3408C181.756 49.7834 180.959 49.5045 179.998 49.5045H175.97Z" fill="#FAFAFA"/>
</svg>
