<svg width="67" height="66" viewBox="0 0 67 66" fill="none" xmlns="http://www.w3.org/2000/svg">
<path d="M32.0883 41.5221C29.0713 41.2092 26.3508 40.4701 24.0218 38.6582C23.733 38.4328 23.4346 38.2155 23.1708 37.9637C22.1514 36.9899 22.0488 35.8747 22.8553 34.7252C23.5454 33.7416 24.7039 33.4786 25.9078 34.0434C26.1411 34.1528 26.3631 34.2895 26.5759 34.4362C30.9165 37.4026 36.8793 37.4845 41.236 34.5696C41.6676 34.2404 42.1291 33.9721 42.6639 33.835C43.7035 33.5695 44.6734 33.9492 45.2313 34.8542C45.8687 35.8877 45.8607 36.8963 45.0752 37.6986C43.8703 38.9287 42.4214 39.8186 40.8112 40.4395C39.289 41.0267 37.6214 41.3223 35.9711 41.5185C36.2202 41.788 36.3375 41.9206 36.4932 42.0763C38.7341 44.3158 40.9849 46.546 43.2185 48.7925C43.9796 49.5579 44.1386 50.5071 43.7195 51.3973C43.2613 52.3703 42.2358 53.0104 41.2303 52.942C40.5933 52.8982 40.0964 52.5826 39.655 52.1403C37.9638 50.4478 36.2409 48.7864 34.5841 47.0616C34.1019 46.5603 33.8698 46.655 33.4444 47.0906C31.743 48.8326 30.0141 50.548 28.2747 52.2536C27.4937 53.0194 26.5645 53.1571 25.6587 52.7197C24.6961 52.2556 24.0835 51.2782 24.1308 50.2958C24.1633 49.6312 24.4919 49.1238 24.9505 48.6684C27.1681 46.4657 29.3797 44.2574 31.5922 42.0512C31.7385 41.9043 31.8751 41.7487 32.0883 41.5221Z" fill="white"/>
<path d="M33.9248 33.8533C28.5425 33.8349 24.129 29.3968 24.1603 24.0347C24.1915 18.6136 28.6076 14.2448 34.043 14.2598C39.4894 14.2744 43.8609 18.706 43.8335 24.1836C43.8058 29.5347 39.3618 33.8718 33.9248 33.8533ZM38.8163 24.0478C38.8071 21.3855 36.6753 19.2659 34.0039 19.2635C31.31 19.2606 29.1592 21.4187 29.1799 24.1054C29.2 26.7575 31.35 28.8622 34.0288 28.8524C36.6993 28.8431 38.8254 26.7098 38.8163 24.0478Z" fill="white"/>
</svg>
