<svg width="66" height="66" viewBox="0 0 66 66" fill="none" xmlns="http://www.w3.org/2000/svg">
<path d="M48.1712 16.6065C48.1712 16.6065 51.9608 15.1074 51.6449 18.7482C51.5397 20.2473 50.5924 25.4943 49.8554 31.1695L47.3291 47.9813C47.3291 47.9813 47.1186 50.4442 45.2238 50.8724C43.329 51.3007 40.4869 49.3734 39.9605 48.945C39.5396 48.6237 32.0658 43.8052 29.4343 41.4493C28.6973 40.8067 27.8553 39.5218 29.5393 38.0226L40.5921 27.3146C41.8553 26.0297 43.1186 23.0315 37.8553 26.6723L23.1184 36.8449C23.1184 36.8449 21.4341 37.9157 18.2763 36.9521L11.4341 34.8103C11.4341 34.8103 8.90773 33.2041 13.2235 31.5979C23.7501 26.5651 36.6975 21.4251 48.1712 16.6065Z" fill="white"/>
</svg>
