<svg width="67" height="66" viewBox="0 0 67 66" fill="none" xmlns="http://www.w3.org/2000/svg">
<g clip-path="url(#clip0_82_46)">
<path fill-rule="evenodd" clip-rule="evenodd" d="M41.7834 33.6747C45.0852 33.0167 48.4688 32.9108 51.8279 32.8761C51.7787 37.0871 52.0327 41.4183 50.7895 45.499C50.4847 46.532 49.9264 47.4734 49.1648 48.2383C48.4032 49.0033 47.4623 49.5678 46.4268 49.8811C42.3057 51.1442 37.9266 50.8549 33.6684 50.9221C33.865 47.088 33.6684 43.1337 34.9281 39.4483C35.9481 36.4617 38.705 34.2676 41.7834 33.6747ZM14.9702 32.87C18.1142 32.8904 21.2726 33.0391 24.3797 33.5423C27.448 34.0109 30.422 35.8852 31.6325 38.8127C33.2444 42.6427 32.843 46.8863 33.1768 50.9323C29.5003 50.8916 25.7828 51.0179 22.1451 50.3476C20.0805 49.9545 17.8889 49.0519 16.8034 47.1492C15.3962 44.6759 15.2406 41.7586 15.0767 38.9838C15.0521 36.9445 14.9231 34.9093 14.9702 32.8721M33.6786 14.2699C37.9266 14.3371 42.3016 14.0417 46.4145 15.3089C47.4544 15.6183 48.3997 16.1821 49.1639 16.9487C49.9282 17.7153 50.4871 18.6602 50.7895 19.6971C52.0307 23.7757 51.7787 28.1069 51.8279 32.3179C48.2906 32.2935 44.7042 32.2324 41.255 31.395C38.2769 30.6861 35.7637 28.3942 34.8379 25.485C33.6909 21.8586 33.8876 18.0164 33.6786 14.2699ZM20.949 15.1357C24.9266 14.0906 29.0906 14.3351 33.1645 14.2617C32.9249 18.0979 33.1523 22.0522 31.8783 25.7376C31.3786 27.1324 30.5373 28.3814 29.4305 29.3717C28.3237 30.3619 26.9862 31.0622 25.539 31.4093C22.0837 32.2283 18.5034 32.2955 14.9702 32.32C15.0829 28.0356 14.7756 23.6127 16.1275 19.4771C16.7972 17.2687 18.741 15.6735 20.949 15.1377" fill="white"/>
</g>
<defs>
<clipPath id="clip0_82_46">
<rect width="65.543" height="65.1922" fill="white" transform="translate(0.624023)"/>
</clipPath>
</defs>
</svg>
