<svg width="67" height="66" viewBox="0 0 67 66" fill="none" xmlns="http://www.w3.org/2000/svg">
<path d="M45.432 16.3003H10.9619V50.9302H20.5561V39.6638H38.94L47.3278 50.9302H58.0709L48.8214 39.6121C51.2282 39.4271 53.4588 38.3632 55.0263 36.6525C56.4713 34.4405 57.1345 31.8617 56.9219 29.2801V26.6842C56.9651 25.0889 56.7521 23.4963 56.29 21.9594C55.8822 20.7652 55.1729 19.6792 54.2219 18.7924C53.2013 17.9154 51.9849 17.2594 50.6599 16.8714C48.9533 16.4603 47.1945 16.2682 45.432 16.3003ZM43.8809 32.0318H20.5561V23.9323H43.8809C44.8235 23.8474 45.7704 24.0476 46.581 24.5036C46.8543 24.7712 47.0624 25.0909 47.1912 25.4403C47.32 25.7897 47.3667 26.1607 47.3278 26.5284V29.436C47.3712 29.8116 47.327 30.1918 47.1982 30.5501C47.0693 30.9087 46.8588 31.2369 46.581 31.5125C45.7622 31.9463 44.8173 32.128 43.8809 32.0318Z" fill="white"/>
</svg>
