<svg width="67" height="66" viewBox="0 0 67 66" fill="none" xmlns="http://www.w3.org/2000/svg">
<path d="M35.7379 48.8939C30.3818 48.8939 24.5485 48.7309 18.4038 48.409C14.7744 48.2175 11.9581 45.512 11.5566 41.8287C10.8861 35.6908 10.8861 29.4988 11.5566 23.3609C11.9581 19.7081 14.7703 17.0027 18.3977 16.7806C29.1957 16.1356 40.0229 16.1356 50.821 16.7806C54.4873 16.9965 57.238 19.6389 57.662 23.3589C58.3297 29.2466 58.3318 35.4582 57.662 41.8246C57.277 45.5059 54.5303 48.1523 50.8292 48.409C45.8058 48.7428 40.7724 48.9045 35.7379 48.8939ZM34.4864 18.0457C29.1467 18.0457 23.7722 18.2087 18.5103 18.5286C15.7391 18.6977 13.6683 20.7145 13.3591 23.5463C12.7022 29.561 12.7022 35.6286 13.3591 41.6433C13.6683 44.4995 15.735 46.5164 18.5021 46.6631C24.614 46.9809 30.4146 47.1439 35.7379 47.1439C41.053 47.1439 46.0875 46.9809 50.7022 46.6631C53.4939 46.4695 55.5687 44.4547 55.8637 41.6473C56.5191 35.4032 56.5191 29.3158 55.8637 23.5504C55.5401 20.7084 53.4693 18.6915 50.7124 18.5286C45.3097 18.2089 39.8987 18.0479 34.4864 18.0457ZM30.0008 26.3985V38.4061L41.9276 32.443L30.0029 26.3964L30.0008 26.3985Z" fill="white"/>
</svg>
