<svg width="192" height="70" viewBox="0 0 192 70" fill="none" xmlns="http://www.w3.org/2000/svg">
<path d="M53.6765 12.747C53.5527 12.6702 53.4289 12.3786 53.4289 12.3786C53.4289 12.3786 53.1967 11.8566 53.1039 11.7491C53.011 11.6417 52.9491 11.5803 52.9491 11.5803L52.7788 11.4575L52.5776 11.304L52.33 11.2118L52.005 11.0583C52.005 11.0583 51.6799 10.9509 51.5716 10.9355C51.4632 10.9048 51.2156 10.7667 51.2156 10.7667L50.9215 10.5671C50.9215 10.5671 50.7203 10.4443 50.6274 10.4443C50.5346 10.4443 50.1167 10.2754 50.1167 10.2754L49.869 10.1987L49.6214 10.1219H48.8475L48.4606 10.2447L47.9808 10.4289L47.0521 10.5824L46.7271 10.6285H44.4054C44.4054 10.6285 43.9256 10.5824 43.8018 10.5824C43.678 10.5824 43.291 10.5364 43.291 10.5364L42.7648 10.4903C41.9445 10.3675 42.2076 10.1526 42.2076 10.1526L42.6874 9.66135C42.6874 9.66135 43.9411 8.81703 44.2197 8.0034C44.359 7.71172 44.4828 7.35864 44.4209 7.15907C44.359 6.9595 44.6531 6.63712 44.6531 6.63712C44.6531 6.63712 45.2877 5.42436 44.6376 4.34976C44.4519 4.05809 44.2661 4.01203 43.8482 3.6436C43.7399 3.55149 43.8947 3.33657 43.8947 3.33657C43.8947 3.33657 43.8637 3.1063 43.8173 2.90673C43.7708 2.70716 43.7089 2.81462 43.5851 2.75322C43.4613 2.70716 43.4303 2.78392 43.3065 2.78392C43.1827 2.78392 43.1363 3.02954 43.1363 3.02954C43.1363 3.02954 43.0124 2.99884 42.9815 2.87603C42.9505 2.75322 42.9815 2.64576 42.935 2.47689C42.8886 2.30802 42.7803 2.27732 42.7029 2.15451C42.6513 2.07264 42.5945 2.001 42.5326 1.93959C42.4398 1.83213 42.3624 1.78608 42.254 1.78608C42.1457 1.78608 42.0838 1.69397 41.8516 1.69397C41.6194 1.69397 41.604 1.66327 41.604 1.66327L41.3718 1.78608C41.3718 1.78608 41.2015 1.93959 41.1396 2.001C41.1396 2.0317 41.0003 2.32338 40.861 2.26197L40.6444 1.75537C40.6444 1.75537 40.567 1.64791 40.4122 1.5251C40.2574 1.40229 40.211 1.44835 40.0562 1.40229C39.9014 1.35624 39.8086 1.47905 39.6383 1.60186C39.468 1.72467 39.3287 1.75537 39.3287 1.75537C39.3287 1.75537 38.9573 1.67862 38.8489 1.67862C38.431 1.66327 37.9667 2.07775 37.9667 2.07775C37.9667 2.07775 37.5798 1.86283 37.2083 2.50759C37.2083 2.50759 37.1309 2.27732 36.8523 2.27732C36.6511 2.29267 36.6202 2.43084 36.6202 2.43084C36.6202 2.43084 36.4963 2.40013 36.388 2.35408C36.2951 2.30802 36.1868 2.44619 36.1868 2.44619L35.9391 2.72251C35.9391 2.72251 35.7379 2.75322 35.5832 2.75322C35.4284 2.75322 35.4129 2.72251 35.3046 2.79927C35.2117 2.87603 34.9795 2.86068 34.7783 3.19841C34.1902 4.44187 35.3819 4.70285 35.3819 4.70285C35.3819 4.70285 35.3355 5.00987 35.2891 5.10198C35.2426 5.20944 35.1033 5.57788 34.8557 5.63928C34.639 5.70069 34.7628 5.96166 34.7628 5.96166C34.7628 5.96166 35.0105 6.22264 34.995 6.40685C34.995 6.59107 34.314 7.20513 34.0509 7.81918C33.989 7.98805 33.8187 8.21832 34.0044 8.37183C34.1437 8.47929 34.5152 8.46394 34.5152 8.46394C34.5152 8.46394 34.6235 8.64816 34.4842 8.77097C34.2676 8.97054 34.5307 9.1087 34.5307 9.1087C34.5307 9.1087 34.8247 9.27757 34.7938 9.30827C34.7319 9.36968 34.4533 9.20081 34.4223 9.43108C34.4068 9.56925 34.5616 9.63065 34.5616 9.63065L34.6235 9.83022C34.6235 9.83022 34.1747 10.6285 34.9176 10.8895C35.026 10.9202 35.9082 10.9969 35.9856 10.9969C36.1094 10.9969 36.032 11.043 35.9237 11.1197C35.8153 11.1965 34.8557 11.1351 34.7628 11.089C34.6545 11.043 34.314 10.8434 34.314 10.8434C34.314 10.8434 34.0663 10.5364 33.7877 10.521C33.5091 10.4903 32.3019 10.4596 32.1007 10.4596C27.9527 10.1987 25.7858 9.83022 25.4143 9.78417C25.0429 9.73811 24.0987 9.5846 23.1391 9.32362C22.1795 9.078 20.9258 9.00124 20.9258 9.00124L16.8861 1.50975C16.8861 1.50975 17.2576 1.14132 17.3195 1.04921C17.6755 0.450503 17.5207 0.0513662 17.4279 0.0206633C16.9016 -0.132851 16.654 0.619369 16.654 0.619369L16.5301 0.803586C16.5301 0.803586 15.8956 0.404449 15.9265 1.15667C15.7408 1.24878 15.4312 1.31018 14.9359 1.41764C9.03896 2.13916 7.30546 7.42005 7.08877 8.93984C6.93399 8.98589 6.50062 8.93984 6.50062 8.93984V9.78417L3.49795 9.63065L2.61573 8.84773L0 9.95303L2.47643 11.1504L3.52891 10.5057L6.50062 10.5824V11.304L6.96495 11.35C6.96495 11.35 7.52215 17.8744 14.1466 19.4556C14.2395 19.4863 15.0598 19.7626 15.0598 19.7626V20.2078C15.1217 20.4073 15.4622 20.3766 15.4622 20.3766L15.6324 20.2538L15.7098 20.4227C15.7098 20.4227 15.8337 20.699 15.8337 20.8218C15.8337 20.9446 15.9575 21.0675 15.9575 21.0675L16.1896 21.1596L16.4373 21.0675L16.5611 20.8218C16.5611 20.8218 16.5301 20.4995 16.5147 20.3766C16.4837 20.2538 16.3599 20.0236 16.3444 19.9315C16.3135 19.824 16.1432 19.5323 16.1432 19.5323L19.4399 14.4663L20.8639 14.7427L22.8296 14.8655L23.0308 15.1418L23.1391 15.4335C23.1391 15.4335 22.6593 15.4642 22.5974 15.6024C22.551 15.7252 22.5819 15.8173 22.6283 15.9094C22.6748 16.0015 22.6748 16.1397 22.6438 16.2318C22.6283 16.3239 22.5664 16.8765 22.52 16.9993C22.4736 17.1221 22.4426 17.291 22.3652 17.4752C22.3033 17.6287 22.3033 17.7976 22.2259 17.9204C22.1795 17.9972 21.9164 18.5498 21.9164 18.5498L21.6223 19.1792C21.6223 19.1792 21.4211 19.4863 21.3592 19.7165C21.3127 19.9468 21.2663 20.0696 21.2354 20.2231C21.2044 20.4227 21.0806 21.0675 21.0806 21.4666C21.0806 21.8657 21.2044 22.1421 21.2818 22.2956C21.3592 22.4491 21.483 22.8175 21.5604 22.9864C21.6378 23.1553 21.6842 23.6618 21.7926 23.8614C21.9009 24.061 22.0247 24.5829 22.0866 24.7364C22.164 24.89 22.2878 25.243 22.4117 25.4426C22.5355 25.6422 22.9689 26.2409 23.0617 26.3637C23.1546 26.4865 23.4641 26.7935 23.588 26.8396C23.7118 26.8856 24.4702 27.2694 24.5631 27.2848C24.6714 27.3155 25.2131 27.5151 25.3679 27.4844C25.5227 27.4536 26.699 27.5151 26.699 27.5151C26.699 27.5151 27.2252 27.5458 27.3336 27.5918C27.4264 27.6379 28.6956 27.3462 28.7885 27.2694C28.8813 27.1927 29.4695 27.0392 29.5623 27.0238C29.6707 26.9931 30.0112 26.8549 30.1195 26.7935C30.2124 26.7475 30.9708 26.1181 31.1256 26.026C31.2804 25.9185 31.4351 26.1027 31.4351 26.1027C31.4351 26.1027 31.559 26.4712 31.559 26.6707C31.559 26.8703 31.6673 27.2387 31.6673 27.3462C31.6673 27.4536 31.4351 27.776 31.3887 27.8988C31.3423 28.0217 30.9863 28.9734 30.9553 29.127C30.9244 29.2805 30.6303 30.3704 30.5529 30.57C30.4755 30.7696 29.7016 32.6117 29.7016 32.7652C29.7016 32.9188 29.098 35.2829 29.098 35.2829C29.098 35.2829 29.9493 36.0044 29.9493 36.1118C29.9493 36.2193 30.0267 37.908 30.0267 38.1075C30.0267 38.3071 30.1814 39.9804 30.1814 39.9804C30.1814 39.9804 30.2898 41.3774 30.46 42.145C30.6303 42.9125 31.1411 44.4937 31.1411 44.4937L31.6518 46.0903L32.0542 47.3184L31.8995 47.2416C31.8995 47.2416 31.5899 47.2877 31.4816 47.303C31.3887 47.3337 31.1875 47.5333 31.1875 47.5333C31.1875 47.5333 31.0327 47.6868 30.9553 47.7789C30.8779 47.8864 30.816 48.0245 30.8006 48.1167C30.7696 48.2241 30.7541 48.4697 30.7541 48.5772C30.7541 48.6847 30.8315 49.1759 30.8315 49.1759L30.9553 49.6057L31.3578 50.0202C31.3578 50.0202 31.7137 50.2505 31.9304 50.3119C32.1471 50.3733 32.4102 50.2505 32.3793 50.3733C32.3019 50.7418 32.3174 50.5268 32.0078 51.0181C32.0078 51.0181 31.5744 51.4172 31.4506 51.54C31.3268 51.6628 30.7696 52.2001 30.7696 52.2001L29.9648 52.9677L29.0051 54.0577C29.0051 54.0577 28.2003 54.9634 28.1539 55.0555C28.1074 55.163 27.5038 55.9305 27.5038 55.9305L27.1943 56.3604H28.742L29.0671 56.0073L29.779 55.1783C29.779 55.1783 30.2743 54.5489 30.4136 54.4261C30.5374 54.3033 30.9399 53.8888 31.0172 53.7967C31.0946 53.6892 32.2864 52.1694 32.2709 52.2615C32.24 52.6453 31.853 53.2901 31.6673 53.5818L31.3113 54.0423L30.8779 54.7178L30.3053 55.4086L29.8255 56.1301L29.2683 56.8056L28.7885 57.5578L28.6182 57.8648C28.6182 57.8648 28.8658 57.9569 28.9742 57.9569C29.0825 57.9569 29.2992 57.9262 29.2992 57.9262L29.7171 58.003L30.1195 58.0797L30.5684 57.5885L31.0482 56.9437L31.3578 56.2222L31.5744 55.777L32.0542 54.7485L32.1316 56.084L32.2864 57.1279L32.5341 58.6938L32.89 59.7991C32.89 59.7991 33.0603 60.6281 33.0912 60.7509C33.1222 60.8737 33.246 61.5952 33.246 61.5952C33.246 61.5952 33.3079 62.547 33.3079 62.6698C33.3079 62.7926 33.3698 63.6369 33.3853 63.7598C33.4008 63.8826 33.5091 65.08 33.5091 65.08L33.1841 65.2335C33.1841 65.2335 32.9055 65.3256 32.7972 65.387C32.7043 65.4331 32.4567 65.4945 32.3328 65.5712C32.209 65.648 32.0078 65.7401 31.7756 65.7554C31.6209 65.7554 31.1256 65.9243 31.0172 65.9857C30.9244 66.0318 30.3362 66.4309 30.3362 66.4309C30.3362 66.4309 29.9338 66.4616 29.8255 66.5077C29.7171 66.5537 29.485 66.4309 28.9897 66.4156C26.993 66.216 26.1882 69.0406 27.9991 68.6722C28.1229 68.6415 29.1599 68.4726 29.2992 68.5033C29.454 68.534 31.3887 68.4726 31.3887 68.4726C31.3887 68.4726 32.6114 68.5187 32.7507 68.5494C32.8746 68.5801 34.2521 68.8257 34.3604 68.8411C34.4688 68.8718 34.9795 68.9792 35.1033 68.9946C36.0475 69.0867 36.8214 68.8871 36.8214 68.8871L37.0535 68.0121C37.0535 68.0121 37.2083 67.2138 37.1774 67.1217C37.1464 67.0296 36.9761 66.8147 36.9761 66.8147L36.8214 66.5077L36.5892 66.1392C36.5892 66.1392 36.6975 65.4945 36.713 65.387C36.744 65.2949 36.7595 64.3124 36.7595 64.2203C36.7595 64.1282 36.8523 63.0229 36.8678 62.854C36.8988 62.6852 36.9607 61.3342 37.0071 61.15C37.0535 60.9811 37.1 59.7837 37.1 59.7837C37.1 59.7837 37.425 58.6938 37.456 58.5863C37.4869 58.4942 37.6572 58.2025 37.7655 57.6192C37.9203 56.867 37.9048 55.4853 37.9048 55.3625V53.7506C37.9048 53.6432 37.7965 52.4765 37.781 52.3076C37.75 52.1387 37.5488 51.4326 37.5488 51.4326L37.2702 50.3733L37.5798 50.2198L37.7036 49.9128L37.6726 49.4676L37.4405 49.0991L37.0845 48.9303L36.9761 48.8996L37.1464 48.1167L37.3321 47.1649L37.4714 46.4587L37.6417 45.4455L37.8274 43.7569L37.9512 44.6779C37.9512 44.6779 38.0751 45.4916 38.1215 45.6604C38.1679 45.8139 38.6632 47.9171 38.7561 48.1013C38.8025 48.1934 39.2823 49.6825 39.3597 49.7746C39.4371 49.8667 39.9479 50.9874 39.9479 50.9874L39.6693 51.1869C39.6693 51.1869 39.499 51.3098 39.4371 51.4172C39.3907 51.5093 39.4061 51.7396 39.4061 51.7396C39.4061 51.7396 39.4526 52.0773 39.468 52.2001C39.499 52.3229 39.6693 52.4765 39.6693 52.4765L40.1645 52.5532V53.2287C40.1645 53.3975 40.1645 54.5643 40.211 54.7178C40.2574 54.8713 40.3658 55.7463 40.3967 55.8384C40.4277 55.9459 40.9539 57.3582 40.9539 57.3582C40.9539 57.3582 41.3099 58.1718 41.7278 58.6017C42.1457 59.0315 42.4088 59.1697 42.5171 59.2771C42.6255 59.3846 42.8731 59.6609 42.9196 59.753C42.966 59.8451 43.1053 60.014 43.1053 60.014L43.2601 60.3671C43.2601 60.3671 43.4613 61.0426 43.4922 61.1961C43.5542 61.5338 43.7708 62.0404 43.8482 62.1325C43.9256 62.2246 44.2506 63.1611 44.2506 63.1611L44.7614 64.1282L44.9781 64.6808L45.1638 65.3256C45.1638 65.3256 45.1948 66.0011 45.1174 66.1085C45.04 66.2006 44.8388 66.4002 44.8078 66.4923C44.7769 66.5844 44.7614 67.1678 44.7614 67.2906C44.7769 67.5516 44.8388 67.8432 44.9007 68.0275C44.9471 68.1963 45.071 68.6262 45.071 68.6262L45.2722 68.795L46.5723 68.9485L46.9592 68.9025L47.8415 68.7029C47.8415 68.7029 48.0427 68.5647 48.3368 68.5647C48.538 68.5647 48.6927 68.5647 48.8166 68.5955C48.9404 68.6262 50.1012 68.5955 50.1012 68.5955L50.5501 68.5647L50.9989 68.534C50.9989 68.534 51.4942 68.5033 51.6025 68.5033C51.7883 68.5033 52.686 68.4419 52.686 68.4419C52.686 68.4419 52.9955 68.3652 53.1193 68.3652C53.2432 68.3652 53.4908 68.2884 53.4908 68.2884C53.4908 68.2884 53.6456 68.1349 53.6611 68.0428C54.0325 66.7686 52.1597 66.6765 51.8966 67.0757C51.8347 67.1678 51.7264 66.9682 51.618 66.9068C51.5097 66.83 51.3704 66.6305 51.2311 66.5537C51.1073 66.477 50.8287 66.3848 50.6584 66.3081C50.4881 66.2313 50.256 66.1546 50.0857 66.1085C49.9155 66.0625 49.6833 65.909 49.6833 65.909L49.3738 65.6326L49.1416 65.4024C49.1416 65.4024 48.9404 65.2335 48.832 65.1721C48.7392 65.126 48.6773 65.0953 48.5534 65.08C48.4296 65.0493 48.3677 64.8804 48.2594 64.7269C48.151 64.5734 48.1201 64.4506 48.0427 64.3278C47.9653 64.2049 47.9498 63.9747 47.8879 63.8826C47.8415 63.7905 47.7176 63.3146 47.7176 63.3146C47.7176 63.3146 47.439 62.2707 47.4081 62.1479C47.3771 62.025 47.3771 61.7794 47.3307 61.6259C47.2843 61.4724 47.2843 61.3035 47.1759 61.0733C47.0831 60.843 47.1295 60.7969 47.0831 60.6741C47.0366 60.5513 47.0057 60.275 46.9592 60.1675C46.9128 60.0754 46.9128 59.7684 46.8354 59.6456C46.758 59.5228 46.789 59.2925 46.789 59.2925C46.789 59.2925 46.789 59.0622 46.7271 58.9241C46.6806 58.7705 46.758 58.5403 46.6806 58.3714C46.6033 58.2025 46.6652 57.9876 46.6187 57.8648C46.5723 57.742 46.6497 57.5578 46.6187 57.4657C46.5878 57.3736 46.5878 57.0358 46.5878 56.867C46.5878 56.6981 46.5568 56.4678 46.5413 56.345C46.5104 56.2222 46.464 55.8998 46.433 55.777C46.402 55.6542 46.3866 55.3318 46.3556 55.1783C46.3247 55.0248 46.3092 54.8252 46.3092 54.7331C46.3092 54.641 46.3247 54.5643 46.077 53.8581C45.8294 53.1673 45.7365 52.8756 45.7365 52.8756L46.2627 53.7506C46.2627 53.7506 46.3866 53.9348 46.433 54.073C46.4794 54.1958 46.5568 54.3033 46.6033 54.4261C46.6497 54.5489 46.7425 54.8559 46.8199 54.9941C46.8973 55.1476 46.9902 55.3625 46.9902 55.3625C46.9902 55.3625 47.2224 55.9152 47.2688 56.0073C47.3152 56.1147 47.47 56.606 47.47 56.6981C47.47 56.7902 47.5938 57.1433 47.6248 57.2968C47.6557 57.4503 47.6712 57.6192 47.6712 57.7727C47.6712 57.9262 47.6712 58.049 47.7022 58.2486C47.7331 58.4482 47.7486 58.5249 47.8105 58.6477C47.8569 58.7705 48.0427 58.6938 48.0427 58.6938L48.2903 58.4482C48.2903 58.4482 48.5689 58.0337 48.6153 57.9262C48.6618 57.8341 48.7392 57.7727 48.7701 57.6806C48.8011 57.5731 49.0178 57.1586 49.0178 57.1586L48.6153 56.2376C48.6153 56.2376 47.9343 55.0401 47.9188 54.9327C47.8879 54.8406 47.2843 54.0116 47.2843 54.0116L46.6342 53.1366C46.6342 53.1366 46.0615 52.369 45.9841 52.2155C45.9068 52.062 45.5508 51.6321 45.5508 51.6321L45.071 50.926L45.2877 50.8185C45.2877 50.8185 45.4424 50.4654 45.4424 50.3119C45.4424 50.1584 45.3186 49.6672 45.3186 49.6672C45.3186 49.6672 45.1174 49.268 45.2722 49.2373C45.5353 49.1913 45.365 49.1913 45.365 49.1913L45.5508 48.8996C45.5508 48.8996 45.5972 48.7307 45.6282 48.5772C45.6591 48.4237 45.6901 48.3623 45.6746 48.2241C45.6436 47.5947 45.0864 47.1649 45.0864 47.1649L44.684 47.0574L44.003 47.4105L43.972 47.1342L43.9411 46.7197V45.5683C43.9411 45.5683 43.972 45.0771 43.972 44.9696C43.972 44.8622 44.0494 44.3709 44.0494 44.3709L44.1268 43.4652C44.1268 43.4652 44.2197 41.1471 44.2042 40.6559C44.1733 39.6273 43.8637 37.6623 43.8173 37.125C43.8173 37.0022 43.6935 36.1272 43.6935 36.1272L44.7305 35.7741C44.7305 35.7741 44.684 35.4824 44.684 35.375C44.684 35.2675 44.684 34.3464 44.6531 34.2543C44.6221 34.1622 44.4983 33.2872 44.4983 33.2872L44.3435 32.1205C44.3435 32.1205 44.2197 31.445 44.1887 31.2915C44.1578 31.138 44.0649 30.6621 44.0649 30.57C44.0649 30.4779 43.9101 29.7257 43.8637 29.6028C43.8173 29.48 43.7089 29.0348 43.6625 28.9274C43.6161 28.8353 43.5077 28.4822 43.5077 28.3747C43.5077 28.2673 43.3839 27.8988 43.3839 27.8988C43.3839 27.8988 43.1827 27.3769 43.1053 27.2234C43.0279 27.0699 42.8577 26.4251 42.8577 26.333C42.8577 26.2409 42.9041 26.0567 42.9041 26.0567L42.9815 25.7803C42.9815 25.7803 43.2601 24.9821 43.2601 24.8593C43.2601 24.7364 43.3375 24.629 43.3839 24.5062C43.4303 24.3834 43.4922 24.1838 43.5541 23.9996C43.6315 23.8307 43.8792 23.3088 43.9256 23.2013C43.972 23.1092 44.034 22.9557 44.034 22.9557L44.2352 22.6026L44.4673 22.403L45.4269 21.6048L45.5817 21.4359C45.5817 21.4359 45.9377 21.0368 46.0306 20.9139C46.2318 20.6683 46.6652 20.4073 46.6652 20.4073C46.6652 20.4073 46.9438 20.2845 47.0366 20.2538C47.145 20.2231 47.3462 20.085 47.47 20.0236C47.5938 19.9775 47.795 19.87 47.795 19.87L48.4296 19.517L48.7856 19.2867L49.188 18.9643L49.7143 18.4424C49.7143 18.4424 49.9464 18.2428 50.0393 18.12C50.1476 17.9972 50.3179 17.9051 50.4727 17.7208C50.4727 17.7208 50.7048 17.5673 50.7977 17.4752C50.906 17.3831 51.1073 17.245 51.2001 17.1528C51.3085 17.0454 51.5561 16.8612 51.5561 16.8612L51.8657 16.5081L52.0204 16.3853L52.1443 16.2625L52.3145 16.0629L52.4848 15.8173L52.7324 15.6331L52.9027 15.3414L53.0574 14.9576L53.2586 14.6352L53.4599 14.4049C53.4599 14.4049 53.5682 14.1747 53.6146 14.0826C53.6611 13.9905 53.692 13.8062 53.7075 13.7141C53.7385 13.622 53.7539 13.4378 53.7539 13.4378C53.7539 13.4378 53.9861 12.9773 53.6301 12.7623L53.6765 12.747ZM15.6324 19.1025C15.6324 19.1025 10.4474 16.7384 10.1379 11.4421C10.1379 11.4421 12.7226 11.7184 12.8465 11.7031C12.9703 11.6877 14.3168 11.3347 14.3168 11.3347L17.1183 11.611L17.4433 12.486C17.4433 12.486 17.7219 12.9619 18.2327 13.6067C18.728 14.2207 18.9137 14.1286 18.9137 14.1286L15.6324 19.1025ZM19.7031 12.9312C19.7031 12.9312 19.5792 12.8237 19.4709 12.7316C19.3626 12.6395 19.0685 12.44 18.9756 12.3632C18.9137 12.3172 18.4339 11.7798 18.4339 11.7798L20.1519 12.2404L19.7031 12.9466V12.9312ZM14.2859 9.36968C14.0382 9.35433 13.6823 9.1087 12.9084 8.87843C12.7381 8.83238 10.2153 8.90913 10.2153 8.90913C10.2153 8.90913 10.5248 4.04273 16.3289 1.75537L20.2912 9.06265C20.2912 9.06265 15.4467 9.47714 14.2859 9.36968ZM21.4985 13.008C21.3282 12.9619 20.3841 13.0233 20.3841 13.0233C20.4305 12.9005 20.802 12.44 20.802 12.44L21.3282 12.5781L21.808 12.6856C21.808 12.6856 22.0866 12.6549 22.1021 12.793C22.1331 12.9159 21.6687 13.0694 21.4985 13.0233V13.008ZM34.1437 12.0408C33.9735 12.3171 33.1067 12.0101 32.3328 12.3632C30.3672 13.2382 29.2837 15.0497 29.1754 15.3567C29.0825 15.6484 28.4789 16.8151 28.3706 18.0432C28.3551 18.2582 28.2003 18.7801 28.2003 18.7801C27.9991 18.7494 27.9836 18.1353 27.9681 17.9818C27.9372 17.813 27.8134 17.4292 27.7205 17.3064C27.6276 17.1835 27.3955 16.6616 27.2871 16.5541C27.1943 16.462 27.1323 16.1704 26.993 16.0015C26.8847 15.8787 26.7145 15.6331 26.7145 15.6331C26.7145 15.6331 26.668 15.5102 26.5597 15.4028C26.4668 15.3107 26.2966 15.1111 26.2811 14.9576C26.2656 14.8041 26.1573 14.5124 26.1108 14.4049C26.0644 14.2975 26.018 14.0979 25.9096 14.1286C25.8167 14.1593 25.6774 14.1747 25.6774 14.1747L25.4143 14.4203L25.3215 14.3589C25.3215 14.3589 24.919 14.0365 24.6869 13.8369C24.4547 13.6374 23.9594 13.1154 23.7118 12.8084C23.4641 12.5167 23.1236 12.225 22.9379 12.1943C22.7522 12.1636 22.164 12.0101 21.8854 11.9948H21.8545C21.5759 11.9641 21.2199 11.7952 21.2199 11.7952C21.2199 11.7952 21.7616 11.7952 22.3343 11.918C22.9069 12.0255 23.3558 12.1329 23.3558 12.1329C23.4796 12.0101 29.3766 11.872 30.1969 11.8873C31.0327 11.918 34.283 11.7952 34.1283 12.0255L34.1437 12.0408Z" fill="#921C1D"/>
<path d="M71.1821 44.7854H66.4769V44.0179L67.9937 43.6341C68.9069 43.4038 69.4486 43.1121 69.6189 42.7897C69.7891 42.4674 69.851 41.6077 69.8046 40.2414L69.4796 26.2563V25.2738C69.4641 25.1203 69.4486 24.89 69.4486 24.5369C69.4486 23.9229 69.3557 23.5084 69.1545 23.2934C68.9533 23.0785 68.4271 22.8943 67.5449 22.7561L66.3066 22.5412V21.7583H76.5683C78.3173 21.7583 79.7413 21.8658 80.8866 22.096C82.0165 22.311 82.9296 22.7715 83.6261 23.447C84.3226 24.1224 84.7096 25.1203 84.787 26.4405C84.8489 27.73 84.6167 29.0042 84.0905 30.2783C83.5642 31.5525 82.713 32.6118 81.5212 33.4714C80.3294 34.3311 78.859 34.7917 77.0946 34.8838C75.779 34.9452 74.5408 34.7763 73.3799 34.3465C73.4109 33.9473 73.5347 33.5789 73.705 33.2258C74.5717 33.5635 75.4849 33.7171 76.4136 33.7171C79.4007 33.671 80.9021 31.7981 80.9021 28.1138C80.9176 26.6554 80.7163 25.5501 80.283 24.8132C79.8651 24.0917 79.246 23.6005 78.4566 23.3702C77.6672 23.1399 76.7231 23.0478 75.6397 23.0939C74.5717 23.0939 73.674 23.1553 72.962 23.2781L72.5441 40.2568C72.4977 41.1778 72.4977 41.8226 72.5441 42.191C72.5906 42.5748 72.7299 42.8819 72.9775 43.1121C73.2252 43.3424 73.705 43.5266 74.4169 43.6494L76.4136 44.0332V44.8008H71.2131L71.1821 44.7854Z" fill="#921C1D"/>
<path d="M106.796 26.8087C103.948 30.3549 101.503 33.4866 99.4753 36.1884C97.4477 38.8749 95.3737 41.7303 93.2687 44.7392L88.8421 44.8006V44.033L90.328 43.6492C91.3031 43.4189 91.8603 43.1119 92.0151 42.7588C92.1698 42.4057 92.2163 41.5614 92.1543 40.2565L91.8603 26.2714C91.8448 26.0565 91.8293 25.7341 91.8293 25.2889V24.5674C91.8293 23.9533 91.721 23.5389 91.5198 23.3239C91.3186 23.109 90.7768 22.9401 89.9256 22.7866L88.6719 22.5717V21.7734H98.3454V22.5717L97.1227 22.7866C96.2869 22.9555 95.7761 23.1397 95.5749 23.3239C95.3737 23.5235 95.2499 23.938 95.188 24.5674V25.3043C95.188 25.7495 95.188 26.0718 95.157 26.2868L94.832 39.796H95.0332C96.4262 38.0766 97.943 36.1424 99.5991 33.9778C101.255 31.8133 102.896 29.5873 104.552 27.3153C106.193 25.0433 107.493 23.2011 108.452 21.8041L113.483 21.7734V22.5717L112.229 22.7866C111.393 22.9401 110.882 23.109 110.697 23.3086C110.511 23.5081 110.387 23.9226 110.325 24.5674C110.325 24.9051 110.325 25.1507 110.294 25.2889V26.2714L109.969 40.2565C109.969 41.4386 109.969 42.1601 110 42.4057C110.016 42.6514 110.17 42.8816 110.449 43.0966C110.728 43.3268 111.176 43.511 111.78 43.6492L113.328 44.033V44.8006H103.964V44.033L105.481 43.6492C106.131 43.4957 106.595 43.3115 106.843 43.0812C107.09 42.8509 107.23 42.6207 107.261 42.375C107.276 42.1448 107.292 41.4386 107.292 40.2412L106.966 26.7934H106.812L106.796 26.8087Z" fill="#921C1D"/>
<path d="M122.289 44.7854H117.476V44.0179L119.054 43.6341C120.03 43.3731 120.587 43.0968 120.742 42.7897C120.896 42.4827 120.958 41.6384 120.927 40.2414L120.602 26.2563C120.587 26.0413 120.571 25.719 120.571 25.2738V24.5369C120.525 23.9075 120.417 23.493 120.215 23.2781C120.014 23.0785 119.488 22.8943 118.606 22.7561L117.29 22.5412V21.7583H141.327V22.5412L139.996 22.7561C139.16 22.925 138.649 23.0939 138.448 23.2781C138.247 23.4623 138.138 23.8768 138.092 24.5369V25.2738C138.092 25.4887 138.092 25.6576 138.077 25.7957C138.077 25.9339 138.046 26.0874 138.03 26.2563L137.705 40.2414C137.705 41.4081 137.736 42.145 137.782 42.4367C137.829 42.7283 137.984 42.9586 138.231 43.1275C138.479 43.2963 138.943 43.4652 139.609 43.6341L141.188 44.0179V44.7854H131.468V44.0179L133.046 43.6341C133.696 43.5113 134.145 43.3577 134.393 43.1889C134.641 43.02 134.795 42.7437 134.857 42.3753C134.919 42.0068 134.95 41.2853 134.95 40.2261L134.501 23.0632H124.162L123.713 40.2261C123.682 41.1932 123.682 41.8994 123.76 42.2985C123.822 42.713 123.992 43.0047 124.27 43.1735C124.534 43.3424 124.982 43.4959 125.586 43.6187L127.196 44.0025V44.7701H122.289V44.7854Z" fill="#921C1D"/>
<path d="M152.702 42.8661C151.557 42.0372 150.659 40.8091 150.009 39.1511C149.344 37.4932 149.003 35.4514 148.988 33.0105C148.926 29.449 149.622 26.7932 151.077 25.0585C152.532 23.3238 154.343 22.4488 156.525 22.4488C157.934 22.4488 159.218 22.8172 160.379 23.5848C161.54 24.337 162.453 25.5037 163.134 27.0695C163.815 28.6354 164.14 30.6311 164.125 33.0259C164.063 35.4975 163.691 37.5853 163.026 39.2586C162.36 40.9319 161.447 42.16 160.317 42.9276C159.187 43.6951 157.918 44.0943 156.525 44.0943C155.132 44.0943 153.848 43.6951 152.702 42.8661ZM160.472 44.5702C161.803 44.0636 163.01 43.296 164.109 42.2981C165.208 41.3003 166.106 39.9954 166.818 38.4296C167.514 36.8484 167.901 35.0676 167.963 33.0566C168.025 30.7999 167.576 28.7582 166.648 26.9314C165.704 25.1199 164.357 23.7076 162.577 22.6944C160.813 21.6965 158.785 21.1899 156.541 21.1899C153.136 21.1899 150.35 22.3106 148.198 24.5212C146.047 26.7472 145.025 29.5872 145.134 33.0566C145.211 35.1444 145.598 36.9558 146.295 38.491C146.991 40.0261 147.904 41.3003 149.019 42.3135C150.149 43.3267 151.356 44.0789 152.656 44.5855C153.956 45.0767 155.241 45.3377 156.541 45.3377C157.841 45.3377 159.157 45.0768 160.488 44.5702H160.472Z" fill="#921C1D"/>
<path d="M184.416 21.1748C184.463 21.3437 184.586 21.9424 184.803 22.9863C184.927 23.5543 185.066 24.3525 185.252 25.335C185.422 26.3329 185.592 27.254 185.763 28.0983C185.948 28.9426 186.134 29.8484 186.335 30.8308C186.537 31.798 186.707 32.5809 186.831 33.1796C186.954 33.6402 187.078 34.2389 187.233 34.9604C187.388 35.6819 187.512 36.3113 187.636 36.864C188.022 38.4759 188.255 39.4583 188.317 39.8114C188.533 40.6865 188.734 41.3466 188.905 41.8071C189.013 42.0681 189.106 42.2984 189.214 42.5593C189.323 42.805 189.493 43.0199 189.74 43.2348C189.973 43.4497 190.236 43.6032 190.514 43.7107L191.288 44.0331L191.257 44.8006H183.348V44.0331L184.772 43.6493C184.958 43.6339 185.144 43.5572 185.345 43.419C185.546 43.373 185.685 43.3116 185.763 43.2348C185.902 43.0813 185.995 42.9124 186.026 42.6975C186.041 42.4212 185.964 41.8685 185.809 41.0395C185.639 40.2259 185.453 39.3816 185.267 38.5373L181.228 23.3701H180.067C179.99 23.6157 179.943 23.8306 179.912 23.9995C179.881 24.1683 179.819 24.3525 179.711 24.5368C179.649 24.767 179.587 25.0127 179.525 25.2736C179.463 25.5193 179.401 25.7649 179.324 25.9644C179.185 26.5478 178.937 27.4382 178.581 28.6663C178.38 29.4032 178.086 30.5392 177.683 32.059C177.529 32.627 177.374 33.2103 177.204 33.7783C177.049 34.3463 176.879 34.9143 176.693 35.4977C176.554 35.9582 176.414 36.4341 176.259 36.91C176.105 37.3859 175.965 37.8618 175.795 38.353C175.563 39.2895 175.315 40.1645 175.052 41.0088C175.006 41.1777 174.959 41.3619 174.913 41.5461C174.851 41.7304 174.82 41.9146 174.774 42.0527C174.696 42.3291 174.65 42.4979 174.619 42.59C174.588 43.0352 175.037 43.3883 175.981 43.6339L177.343 44.0177V44.7853H170.068V44.0177C170.873 43.68 171.926 42.1141 173.21 39.3048C174.495 36.4955 175.609 33.5634 176.554 30.4778C177.498 27.3921 177.931 25.335 177.869 24.2758C177.869 23.8152 177.621 23.4929 177.126 23.3087C176.631 23.1244 175.687 23.0937 174.278 23.2012C174.201 22.9709 174.154 22.7406 174.154 22.5104C174.17 22.2955 174.232 22.0652 174.309 21.8349C174.387 21.8349 174.51 21.8349 174.681 21.8656C174.851 21.881 174.99 21.8963 175.114 21.927H178.891C180.036 21.8196 181.862 21.5739 184.385 21.1748H184.416Z" fill="#921C1D"/>
<path d="M80.9787 51.1867V51.7547C80.1893 51.9236 79.5238 52.1999 78.9511 52.5837C78.3784 52.9675 77.651 53.5816 76.7687 54.4105C76.2889 54.8404 75.7317 55.393 75.0817 56.0685C74.8805 56.2681 74.6638 56.483 74.4471 56.7286C74.2149 56.9742 74.0292 57.1584 73.8899 57.2966C73.8435 57.3427 73.797 57.3887 73.7351 57.4501C73.6732 57.5115 73.6268 57.5729 73.5649 57.6343C73.5339 57.665 73.4875 57.7264 73.441 57.8032V58.0795C73.441 58.0795 73.5029 58.187 73.5184 58.233C73.5494 58.2791 73.5649 58.3405 73.5649 58.3712C73.6422 58.5094 73.7351 58.6475 73.828 58.7703C73.9208 58.8932 74.0137 59.0467 74.0911 59.2155C74.153 59.2923 74.3078 59.5226 74.5709 59.9217C74.834 60.3208 75.0662 60.6586 75.2364 60.9502C75.7317 61.6411 76.1806 62.2858 76.583 62.8845C76.8616 63.2837 77.0938 63.606 77.264 63.8363C77.4343 64.0819 77.62 64.3429 77.8367 64.6346C78.3939 65.3868 78.8118 65.9241 79.0904 66.2465C79.369 66.5842 79.6476 66.7377 79.8952 66.7224C79.9571 66.7224 80.0964 66.661 80.3131 66.5382C80.375 66.4921 80.4215 66.4461 80.4679 66.4153C80.5143 66.3693 80.5608 66.3386 80.6227 66.3079C80.6691 66.2618 80.7155 66.2158 80.762 66.1851C80.8084 66.139 80.8548 66.1083 80.9013 66.0776L81.2882 66.6763C81.056 66.8912 80.6691 67.1676 80.1429 67.5207C79.6011 67.8737 79.2142 68.0426 78.9975 68.0426C78.4868 68.0426 77.2795 66.8912 75.3603 64.5885C74.8805 64.0052 74.509 63.56 74.2459 63.2222C74.1375 63.038 73.7351 62.5161 73.0541 61.6564C72.8838 61.3954 72.7291 61.1652 72.5743 60.9656C72.4195 60.766 72.2183 60.4897 71.9707 60.152C71.9087 60.0292 71.8468 59.9217 71.754 59.8142C71.6611 59.7068 71.5837 59.5993 71.5218 59.4919C71.3515 59.2462 71.2587 59.0774 71.2587 58.9853C71.2587 58.8164 71.4444 58.5094 71.8314 58.0795L75.3757 53.7658C76.1651 52.7986 76.5675 52.246 76.5675 52.1232C76.5366 52.0618 76.5056 52.0157 76.4747 51.985C76.4282 51.939 76.3663 51.9236 76.2889 51.9236C76.258 51.9236 76.227 51.8929 76.1806 51.8622C76.1342 51.8315 76.1032 51.8315 76.0568 51.8008L75.4996 51.7394V51.1714H80.9632L80.9787 51.1867ZM65.826 51.1867H72.4969V51.7854L71.6456 51.939C71.0575 52.0464 70.7015 52.1692 70.5622 52.3227C70.4229 52.4763 70.3455 52.7833 70.3455 53.2592C70.3455 53.3513 70.3455 53.428 70.3455 53.5048C70.3455 53.5662 70.3455 53.643 70.3455 53.7197V54.4259L70.1133 64.5118C70.0824 65.4943 70.1133 66.093 70.2372 66.3232C70.3455 66.5382 70.7324 66.7224 71.367 66.8759L72.404 67.1062V67.6895H65.9653V67.1062L67.0023 66.8759C67.4357 66.7838 67.7453 66.6763 67.9155 66.5535C68.0858 66.4307 68.1941 66.2311 68.2251 65.9855C68.256 65.7399 68.256 65.2486 68.2251 64.5118L68.0084 54.4105C68.0084 54.1035 68.0084 53.8732 67.9929 53.689V53.2131C67.9929 52.7986 67.9155 52.4916 67.7607 52.3381C67.606 52.1846 67.25 52.0464 66.6773 51.939L65.8105 51.7854V51.2174L65.826 51.1867Z" fill="#921C1D"/>
<path d="M94.5838 50.7728C94.6148 50.8956 94.7076 51.3254 94.8624 52.0623C94.9398 52.4614 95.0481 53.0294 95.1874 53.7356C95.3113 54.4418 95.4351 55.1019 95.5434 55.7159C95.6672 56.33 95.8065 56.9747 95.9613 57.6656C96.1161 58.3717 96.2244 58.9244 96.3173 59.3389C96.4102 59.6766 96.503 60.1064 96.6114 60.613C96.7197 61.135 96.8126 61.5802 96.9055 61.9793C97.1841 63.1307 97.3543 63.8368 97.3853 64.0824C97.54 64.7119 97.6793 65.1877 97.8032 65.5255C97.8805 65.7097 97.9425 65.8786 98.0199 66.0628C98.0972 66.2316 98.2211 66.4005 98.3913 66.5387C98.5616 66.6922 98.7473 66.815 98.9485 66.8764L99.5057 67.1067L99.4747 67.6593H93.8099V67.1067L94.8315 66.8304C94.9553 66.815 95.0946 66.7689 95.2339 66.6768C95.3732 66.6461 95.466 66.6001 95.5279 66.5387C95.6363 66.4312 95.6982 66.3084 95.7137 66.1549C95.7137 65.9553 95.6672 65.5715 95.5589 64.9728C95.4351 64.3895 95.3113 63.7908 95.172 63.1767L92.2776 52.3079H91.4418C91.3799 52.4921 91.349 52.6456 91.318 52.7685C91.2871 52.8913 91.2561 53.0141 91.1787 53.1522C91.1323 53.3058 91.0859 53.49 91.0549 53.6742C91.0085 53.8584 90.962 54.0273 90.9001 54.1808C90.8073 54.5953 90.6215 55.24 90.3739 56.1151C90.2346 56.6524 90.0179 57.4506 89.7393 58.5406C89.631 58.9397 89.5071 59.3542 89.3988 59.7687C89.2904 60.1832 89.1666 60.5823 89.0428 60.9968C88.9499 61.3345 88.8416 61.6723 88.7333 62.01C88.6249 62.3477 88.5166 62.7008 88.4082 63.0385C88.238 63.714 88.0677 64.3434 87.8665 64.9421C87.8355 65.0649 87.8046 65.2031 87.7736 65.3259C87.7427 65.4641 87.7117 65.5869 87.6808 65.6943C87.6189 65.8939 87.5879 66.0167 87.5724 66.0781C87.5415 66.4005 87.8665 66.6461 88.5475 66.8304L89.5226 67.1067V67.6593H84.3066V67.1067C84.8948 66.8611 85.6377 65.7404 86.5664 63.7294C87.4796 61.7183 88.2844 59.6152 88.9499 57.4046C89.631 55.2093 89.9405 53.7202 89.8941 52.968C89.8941 52.6303 89.7238 52.4 89.3678 52.2772C89.0119 52.1544 88.3308 52.1237 87.3248 52.2004C87.2629 52.0316 87.2319 51.8627 87.2319 51.6939C87.2319 51.5403 87.2784 51.3868 87.3403 51.218C87.3867 51.218 87.4796 51.218 87.6034 51.2333C87.7272 51.2333 87.8201 51.264 87.9129 51.2794H90.6215C91.4418 51.2026 92.7574 51.0337 94.5529 50.7421L94.5838 50.7728Z" fill="#921C1D"/>
<path d="M107.972 56.6062C108.049 56.3452 108.111 56.1149 108.158 55.9C108.204 55.6851 108.281 55.4087 108.359 55.0864C108.498 54.5951 108.622 54.1499 108.715 53.7661C108.777 53.5666 108.823 53.4131 108.839 53.2903C108.87 53.1674 108.901 53.0293 108.947 52.8911C108.947 52.7376 109.009 52.5994 109.071 52.4613C109.117 52.2771 109.133 52.1849 109.133 52.2157L109.597 52.1696C109.597 52.1696 109.628 52.2617 109.659 52.3692C109.69 52.4613 109.705 52.5534 109.721 52.6148L111.934 59.7378C111.036 59.876 110.123 59.9374 109.179 59.9374C108.39 59.9374 107.662 59.8607 106.981 59.7378C107.26 58.9396 107.585 57.911 107.941 56.6369L107.972 56.6062ZM111.346 50.8494C110.897 50.9108 110.541 50.9568 110.278 51.0029C109.845 51.095 109.349 51.1564 108.823 51.2025C108.498 51.2639 108.018 51.3099 107.368 51.3406H106.269C105.991 51.3406 105.774 51.3406 105.635 51.3253C105.356 51.6016 105.31 51.924 105.511 52.3231C105.573 52.3231 105.666 52.3078 105.805 52.3078L106.316 52.231H106.811C107.384 52.2617 107.693 52.4613 107.755 52.8297V53.2442C107.554 54.6565 107.059 56.5141 106.269 58.8014C106.068 59.4001 105.82 60.0449 105.542 60.7203C105.449 60.9967 105.341 61.273 105.217 61.5647C105.109 61.8563 105 62.148 104.892 62.4397C104.783 62.7314 104.675 63.0231 104.567 63.3147C103.979 64.6964 103.499 65.6635 103.127 66.1854C102.756 66.7227 102.276 67.0451 101.734 67.1372V67.6899H106.796L106.734 67.1372L105.867 66.8609C105.743 66.8302 105.604 66.7995 105.464 66.7381C105.325 66.692 105.201 66.6306 105.124 66.5539C105.047 66.4618 105 66.3697 105 66.2468C105 66.078 105.062 65.8324 105.155 65.51C105.263 65.1876 105.495 64.4814 105.851 63.4222L106.641 60.8431C106.796 60.8431 106.966 60.8124 107.136 60.7817C107.384 60.7664 107.817 60.751 108.39 60.751C108.514 60.751 108.637 60.751 108.746 60.751C108.854 60.751 108.993 60.7357 109.179 60.7357H109.953C110.572 60.7357 111.083 60.751 111.485 60.7664C111.888 60.7971 112.166 60.8124 112.337 60.8431L113.683 65.4639C113.776 65.7863 113.822 66.0473 113.853 66.2468C113.853 66.5385 113.482 66.7688 112.77 66.9223L111.981 67.1219V67.6745H117.398V67.1219L116.624 66.8456C116.345 66.7534 116.144 66.5846 115.989 66.3236C115.835 66.0626 115.633 65.51 115.37 64.6657C115.339 64.6042 115.262 64.3126 115.123 63.7599C114.983 63.3454 114.906 63.0845 114.89 62.9616L112.337 52.5841C112.337 52.5841 112.306 52.4306 112.29 52.3692C112.259 52.3078 112.244 52.2156 112.213 52.1235L112.151 51.7858C112.151 51.7091 112.135 51.6169 112.104 51.5095C112.073 51.402 112.058 51.3253 112.042 51.2792C112.012 51.0182 111.981 50.834 111.919 50.7266C111.779 50.7726 111.609 50.8033 111.408 50.834L111.346 50.8494Z" fill="#921C1D"/>
<path d="M132.814 55.1016C132.473 53.9809 131.963 53.1366 131.297 52.5686C130.616 52.0006 129.734 51.7242 128.619 51.7089C127.675 51.7089 126.777 51.8778 125.911 52.2155C125.044 52.5532 124.286 53.2747 123.636 54.3647C122.985 55.4546 122.676 56.9744 122.722 58.9241C122.784 61.7487 123.465 63.8365 124.796 65.1721C126.112 66.523 127.567 67.1831 129.177 67.1831C130.183 67.1831 131.065 66.8454 131.823 66.1546C132.566 65.4638 133.061 64.6194 133.294 63.6369H134.037L133.588 67.0603C133.448 67.1217 133.201 67.2138 132.86 67.352C132.52 67.4748 132.164 67.5976 131.808 67.6897C131.452 67.7818 130.941 67.8739 130.291 67.966C129.641 68.0428 129.053 68.0889 128.542 68.0889C126.808 68.0889 125.292 67.6897 123.992 66.8761C122.691 66.0625 121.685 64.9725 120.973 63.6062C120.277 62.2246 119.921 60.7202 119.921 59.0929C119.921 57.1279 120.354 55.5161 121.206 54.2726C122.057 53.0291 123.125 52.1234 124.378 51.5707C125.648 51.0181 126.901 50.7571 128.14 50.8032C128.434 50.8185 129.099 50.8953 130.121 51.0334C130.57 51.1102 131.034 51.1716 131.483 51.1716C132.164 51.1716 132.845 51.0488 133.541 50.8185L133.65 54.8713L132.798 55.1476L132.814 55.1016Z" fill="#921C1D"/>
<path d="M150.381 55.1016C150.04 53.9809 149.53 53.1366 148.864 52.5686C148.183 52.0006 147.301 51.7242 146.186 51.7089C145.242 51.7089 144.345 51.8778 143.478 52.2155C142.611 52.5532 141.853 53.2747 141.203 54.3647C140.553 55.4546 140.243 56.9744 140.289 58.9241C140.351 61.7487 141.032 63.8365 142.348 65.1721C143.664 66.523 145.134 67.1831 146.728 67.1831C147.734 67.1831 148.616 66.8454 149.359 66.1546C150.102 65.4638 150.598 64.6194 150.83 63.6369H151.573L151.124 67.0603C150.985 67.1217 150.737 67.2138 150.396 67.352C150.056 67.4748 149.7 67.5976 149.344 67.6897C148.988 67.7818 148.477 67.8739 147.827 67.966C147.177 68.0428 146.604 68.0889 146.063 68.0889C144.329 68.0889 142.812 67.6897 141.512 66.8761C140.212 66.0625 139.206 64.9725 138.51 63.6062C137.798 62.2246 137.457 60.7202 137.457 59.0929C137.457 57.1279 137.89 55.5161 138.742 54.2726C139.593 53.0138 140.661 52.1234 141.915 51.5707C143.184 51.0181 144.437 50.7571 145.676 50.8032C145.97 50.8185 146.635 50.8953 147.657 51.0334C148.106 51.1102 148.57 51.1716 149.019 51.1716C149.7 51.1716 150.381 51.0488 151.077 50.8185L151.186 54.8713L150.334 55.1476L150.381 55.1016Z" fill="#921C1D"/>
<path d="M167.716 54.7945C165.673 57.3428 163.924 59.5841 162.469 61.5031C161.014 63.4374 159.528 65.4791 158.027 67.6283L154.854 67.6743V67.1217L155.922 66.8454C156.619 66.6765 157.021 66.4616 157.129 66.216C157.238 65.955 157.269 65.3563 157.222 64.4198L157.006 54.4107C157.006 54.2572 156.99 54.0269 156.99 53.7046V53.1826C156.99 52.7374 156.913 52.4457 156.758 52.2922C156.603 52.1387 156.232 52.0159 155.613 51.9084L154.715 51.7549V51.1869H161.649V51.7549L160.767 51.9084C160.163 52.0312 159.807 52.1541 159.652 52.2922C159.513 52.4304 159.42 52.7221 159.374 53.1826V53.7046C159.374 54.0269 159.374 54.2572 159.358 54.4107L159.126 64.0975H159.281C160.271 62.8693 161.355 61.4724 162.547 59.9219C163.738 58.3714 164.915 56.7748 166.091 55.1476C167.267 53.5203 168.196 52.2001 168.877 51.2023L172.468 51.1716V51.7396L171.57 51.8931C170.982 52.0005 170.61 52.1234 170.471 52.2615C170.347 52.415 170.254 52.7067 170.208 53.1519C170.208 53.3975 170.208 53.5664 170.193 53.6739V54.38L169.96 64.3891C169.96 65.2335 169.96 65.7554 169.976 65.9243C169.976 66.0932 170.1 66.262 170.301 66.4309C170.502 66.5844 170.827 66.7226 171.26 66.83L172.375 67.1063V67.659H165.673V67.1063L166.756 66.83C167.221 66.7226 167.546 66.5844 167.732 66.4155C167.917 66.2467 168.01 66.0778 168.026 65.9089C168.026 65.7401 168.041 65.2335 168.041 64.3891L167.809 54.7484H167.701L167.716 54.7945Z" fill="#921C1D"/>
<path d="M190.933 51.1867V51.7547C190.159 51.9236 189.478 52.1999 188.905 52.5837C188.333 52.9675 187.605 53.5816 186.723 54.4105C186.243 54.8404 185.686 55.393 185.036 56.0685C184.835 56.2681 184.618 56.4983 184.401 56.7286C184.169 56.9742 183.983 57.1584 183.844 57.2966C183.798 57.3427 183.751 57.3887 183.689 57.4501C183.627 57.5115 183.581 57.5729 183.519 57.6343C183.488 57.665 183.457 57.7264 183.395 57.8032V58.0795C183.395 58.0795 183.457 58.187 183.473 58.233C183.504 58.2791 183.519 58.3405 183.519 58.3712C183.596 58.5094 183.689 58.6475 183.782 58.7703C183.875 58.8932 183.968 59.0467 184.045 59.2155C184.107 59.2923 184.262 59.5226 184.525 59.9217C184.788 60.3208 185.005 60.6586 185.191 60.9502C185.686 61.6411 186.135 62.2858 186.537 62.8845C186.816 63.2837 187.048 63.606 187.218 63.8363C187.389 64.0819 187.59 64.3429 187.791 64.6346C188.348 65.3868 188.766 65.9241 189.045 66.2465C189.323 66.5842 189.602 66.7377 189.849 66.7224C189.911 66.7224 190.051 66.661 190.283 66.5382L190.438 66.4153C190.438 66.4153 190.53 66.3386 190.592 66.3079C190.639 66.2618 190.685 66.2158 190.732 66.1851C190.778 66.139 190.825 66.1083 190.871 66.0776L191.258 66.6763C191.026 66.8912 190.654 67.1676 190.113 67.5207C189.571 67.8737 189.184 68.0426 188.967 68.0426C188.456 68.0426 187.234 66.8912 185.33 64.5885C184.85 64.0052 184.479 63.56 184.216 63.2222C184.107 63.038 183.705 62.5161 183.024 61.6564C182.854 61.3954 182.699 61.1652 182.544 60.9656C182.389 60.766 182.188 60.4897 181.94 60.152C181.878 60.0292 181.817 59.9217 181.724 59.8142C181.646 59.7068 181.569 59.5993 181.492 59.4919C181.321 59.2462 181.228 59.0774 181.228 58.9853C181.228 58.8164 181.414 58.5094 181.801 58.0795L185.33 53.7658C186.119 52.7986 186.522 52.246 186.522 52.1232C186.491 52.0618 186.46 52.0157 186.444 51.985C186.398 51.939 186.336 51.9236 186.259 51.9236C186.228 51.9236 186.197 51.8929 186.15 51.8622C186.104 51.8315 186.073 51.8315 186.026 51.8008L185.469 51.7394V51.1714H190.948L190.933 51.1867ZM175.78 51.1867H182.467V51.7854L181.615 51.939C181.027 52.0464 180.671 52.1692 180.516 52.3227C180.377 52.4763 180.3 52.7833 180.3 53.2592C180.3 53.3513 180.3 53.428 180.3 53.5048C180.3 53.5662 180.3 53.643 180.3 53.7197V54.4259L180.068 64.5118C180.037 65.4943 180.068 66.093 180.191 66.3232C180.3 66.5382 180.687 66.7224 181.321 66.8759L182.358 67.1062V67.6895H175.92V67.1062L176.957 66.8759C177.405 66.7838 177.7 66.6763 177.87 66.5535C178.04 66.4307 178.148 66.2311 178.179 65.9855C178.21 65.7399 178.21 65.2486 178.179 64.5118L177.963 54.4105C177.963 54.1035 177.963 53.8732 177.947 53.689V53.2131C177.947 52.7986 177.87 52.4916 177.715 52.3381C177.56 52.1846 177.204 52.0464 176.647 51.939L175.78 51.7854V51.2174V51.1867Z" fill="#921C1D"/>
<path d="M71.0577 9.92285V10.9975H68.3801V15.9713H67.0645V9.92285H71.0577Z" fill="#921C1D"/>
<path d="M75.7785 9.92285C78.1311 9.92285 78.2704 11.4426 78.2704 11.8111C78.2704 12.6093 77.6822 13.6993 76.0106 13.6993H75.1594V15.9713H73.8438V9.92285H75.763H75.7785ZM75.7785 12.7475C76.5833 12.7475 76.8774 12.2409 76.8774 11.7804C76.8774 11.2738 76.5369 10.8746 75.7785 10.8746H75.1748V12.7475H75.7785Z" fill="#921C1D"/>
<path d="M82.2633 9.92285L83.548 12.5019L83.8266 13.1466H83.8575L84.1361 12.5019L85.3744 9.9382H86.6745L84.0742 15.0963C83.7182 15.8178 83.223 16.0634 82.5419 16.0634C82.2324 16.0634 81.9074 16.0174 81.5514 15.8792L81.7062 14.9581C81.8919 15.0502 82.0467 15.0809 82.2633 15.0809C82.511 15.0809 82.8051 15.0809 82.9908 14.6818L83.1765 14.2827L80.793 9.95355H82.2633V9.92285Z" fill="#921C1D"/>
<path d="M94.6614 9.92285V15.9713H93.3458V10.9207H90.7765V15.9713H89.4609V9.92285H94.6614Z" fill="#921C1D"/>
<path d="M103.204 9.92285V15.9713H101.889V10.9207H99.3195V15.9713H98.0039V9.92285H103.204Z" fill="#921C1D"/>
<path d="M110.139 9.92285L112.724 15.9713H111.238L110.696 14.6204H108.019L107.477 15.9713H106.068L108.653 9.92285H110.154H110.139ZM110.294 13.6072L109.334 11.1356H109.319L108.421 13.6072H110.294Z" fill="#921C1D"/>
<path d="M121.081 9.92285V12.5019H121.112L123.465 9.92285H125.028L122.319 12.6708L125.198 15.9867H123.527L121.112 12.9778H121.081V15.9867H119.766V9.9382H121.081V9.92285Z" fill="#921C1D"/>
<path d="M134.098 12.9472C134.098 15.1424 132.52 16.0482 130.91 16.0482C129.3 16.0482 127.722 15.1424 127.722 12.9472C127.722 10.7519 129.3 9.84619 130.91 9.84619C132.52 9.84619 134.098 10.7519 134.098 12.9472ZM129.13 12.9472C129.13 14.9889 130.43 15.1731 130.926 15.1731C131.421 15.1731 132.721 14.9889 132.721 12.9472C132.721 10.9054 131.421 10.7212 130.926 10.7212C130.43 10.7212 129.13 10.9054 129.13 12.9472Z" fill="#921C1D"/>
<path d="M140.413 15.9713L138.834 11.6422L138.54 10.7825H138.509V15.9713H137.209V9.92285H139.438L140.738 13.4383L141.032 14.5129H141.063L141.357 13.4383L142.657 9.92285H144.886V15.9713H143.57V10.7825L143.276 11.6422L141.698 15.9713H140.444H140.413Z" fill="#921C1D"/>
<path d="M153.414 9.92285V15.9713H152.099V10.9207H149.529V15.9713H148.214V9.92285H153.414Z" fill="#921C1D"/>
<path d="M160.348 9.92285L162.933 15.9713H161.447L160.905 14.6204H158.228L157.686 15.9713H156.277L158.862 9.92285H160.363H160.348ZM160.503 13.6072L159.543 11.1356H159.528L158.63 13.6072H160.503Z" fill="#921C1D"/>
<path d="M167.081 9.92285V12.3637H169.712V9.92285H171.028V15.9713H169.712V13.3462H167.081V15.9713H165.766V9.92285H167.081Z" fill="#921C1D"/>
<path d="M175.702 9.92285V13.0392L175.671 14.5129H175.702L176.167 13.6379L178.442 9.9382H180.021V15.9867H178.705V12.8703L178.736 11.4119H178.705L178.256 12.333L175.965 16.002H174.387V9.95355H175.702V9.92285Z" fill="#921C1D"/>
<path d="M184.679 9.92264V13.039L184.648 14.5127H184.679L185.143 13.6377L187.418 9.93799H188.997V15.9865H187.682V12.8701L187.713 11.4117H187.682L187.233 12.3328L184.942 16.0018H183.363V9.95334H184.679V9.92264ZM187.821 8.49496C187.434 9.36999 186.66 9.50815 186.103 9.50815C185.546 9.50815 184.772 9.36999 184.385 8.49496L185.066 8.15723C185.298 8.69453 185.886 8.72523 186.103 8.72523C186.32 8.72523 186.908 8.69453 187.14 8.15723L187.821 8.49496Z" fill="#921C1D"/>
</svg>
