<svg width="597" height="573" viewBox="0 0 597 573" fill="none" xmlns="http://www.w3.org/2000/svg">
<path d="M208.206 0H126.929C124.757 0 122.995 1.74453 122.995 3.89651V84.3913C122.995 86.5433 124.757 88.2879 126.929 88.2879H208.206C210.378 88.2879 212.14 86.5433 212.14 84.3913V3.89651C212.14 1.74453 210.378 0 208.206 0Z" fill="#F0F0F0"/>
<path d="M193.613 21.792H193.512C190.494 21.792 188.047 21.9762 188.047 22.2171C189.646 22.6115 191.297 22.7549 192.94 22.6421C192.668 22.9255 192.268 23.3364 191.767 23.889L187.475 28.7065L173.168 44.9727L167.145 40.9345C166.072 40.2402 165.014 39.5176 164.026 38.88L163.697 38.6816L163.454 38.965C157.088 46.3329 151.451 52.9216 147.431 57.6824L142.724 63.35C142.117 64.009 141.571 64.7202 141.093 65.4754C141.761 64.8964 142.387 64.2714 142.967 63.6051L147.874 58.1358C151.952 53.5308 157.574 47.1122 163.855 39.8718L166.716 41.728L173.054 45.8937L173.369 46.1062L173.612 45.8228L187.918 29.0891L192.053 24.1157C192.597 23.4639 192.969 22.9822 193.198 22.6988H193.269C193.148 24.3397 193.288 25.9894 193.684 27.5872C193.927 27.5872 194.113 25.2209 194.128 22.2737V21.8487L193.613 21.792Z" fill="#E0E0E0"/>
<path d="M419.471 58.9294H463.078C463.078 67.4296 460.546 75.741 455.799 82.8223C451.051 89.9035 444.299 95.4398 436.388 98.7375C428.478 102.035 419.761 102.948 411.329 101.361C402.897 99.7735 395.126 95.7574 388.989 89.8155C382.851 83.8736 378.621 76.2701 376.827 67.9576C375.033 59.6451 375.757 50.9933 378.906 43.086C382.055 35.1787 387.49 28.3676 394.531 23.506C401.571 18.6444 409.903 15.9485 418.484 15.7561L419.471 58.9294Z" fill="#F0F0F0"/>
<path d="M431.218 48.4016L430.245 5.21412C441.893 5.20932 453.11 9.57903 461.634 17.4421C469.793 25.4883 474.511 36.3362 474.81 47.7357L431.218 48.4016Z" fill="#EBEBEB"/>
<path d="M437.226 236.71C436.983 244.644 437.441 268.845 437.441 268.845L444.594 261.761H484.868C485.544 261.757 486.192 261.488 486.669 261.013C487.146 260.538 487.414 259.895 487.414 259.224V236.837C487.414 236.168 487.146 235.527 486.668 235.054C486.191 234.581 485.543 234.315 484.868 234.315H439.787C439.131 234.311 438.499 234.557 438.022 235.003C437.544 235.449 437.26 236.061 437.226 236.71Z" fill="#EBEBEB"/>
<path d="M457.799 248.031C457.797 248.4 457.683 248.76 457.474 249.066C457.265 249.372 456.969 249.609 456.624 249.749C456.278 249.888 455.899 249.923 455.534 249.849C455.168 249.775 454.833 249.596 454.571 249.334C454.308 249.072 454.129 248.739 454.058 248.376C453.986 248.014 454.024 247.639 454.168 247.298C454.311 246.957 454.553 246.665 454.863 246.46C455.173 246.256 455.538 246.146 455.911 246.146C456.16 246.146 456.407 246.195 456.637 246.29C456.867 246.385 457.076 246.524 457.251 246.699C457.427 246.874 457.566 247.082 457.66 247.311C457.754 247.539 457.801 247.784 457.799 248.031Z" fill="#E0E0E0"/>
<path d="M464.18 248.031C464.18 248.404 464.068 248.769 463.858 249.079C463.648 249.389 463.35 249.631 463.002 249.773C462.653 249.915 462.27 249.952 461.9 249.878C461.531 249.804 461.192 249.623 460.926 249.358C460.661 249.093 460.481 248.756 460.409 248.389C460.337 248.023 460.377 247.644 460.523 247.299C460.669 246.955 460.915 246.662 461.23 246.457C461.545 246.251 461.914 246.143 462.291 246.146C462.54 246.146 462.787 246.195 463.017 246.29C463.247 246.385 463.456 246.524 463.632 246.699C463.807 246.874 463.946 247.082 464.04 247.31C464.134 247.539 464.181 247.784 464.18 248.031Z" fill="#E0E0E0"/>
<path d="M470.56 248.031C470.56 248.403 470.449 248.768 470.24 249.078C470.031 249.388 469.734 249.629 469.386 249.772C469.038 249.914 468.656 249.952 468.286 249.879C467.917 249.806 467.578 249.627 467.312 249.363C467.046 249.1 466.865 248.764 466.791 248.398C466.718 248.033 466.756 247.654 466.9 247.31C467.044 246.965 467.288 246.671 467.601 246.464C467.913 246.257 468.281 246.146 468.658 246.146C469.162 246.146 469.646 246.345 470.003 246.698C470.36 247.052 470.56 247.531 470.56 248.031Z" fill="#E0E0E0"/>
<path d="M109.289 362.645C110.362 348.858 120.606 327.519 133.195 321.554C139.539 318.601 146.542 317.31 153.534 317.807C160.526 318.303 167.272 320.569 173.125 324.388C181.008 329.659 186.989 337.693 195.615 341.66C212.683 349.51 232.942 338.387 244.859 323.963C256.776 309.539 264.245 291.657 277.764 278.622C284.27 272.351 291.975 267.431 300.427 264.151C308.879 260.87 317.908 259.296 326.983 259.521C336.058 259.745 344.997 261.764 353.273 265.457C361.55 269.151 368.997 274.446 375.178 281.031C384.349 290.807 390.358 303.007 397.726 314.172C405.094 325.337 414.55 336.092 427.355 340.272C444.938 346.01 464.781 337.579 477.228 323.991C489.675 310.403 496.141 292.564 501.549 275.023C506.957 257.481 511.693 239.387 521.578 223.886C531.464 208.385 547.788 195.548 566.301 195.081V362.135L109.289 362.645Z" fill="#F0F0F0"/>
<path d="M596.616 572.419C596.616 572.617 463.049 572.787 298.322 572.787C133.596 572.787 0 572.617 0 572.419C0 572.22 133.538 572.05 298.322 572.05C463.107 572.05 596.616 572.277 596.616 572.419Z" fill="#1E1E1E"/>
<path d="M483.365 216.079C483.655 216.043 483.942 215.986 484.224 215.909C484.623 215.771 484.987 215.547 485.289 215.253C485.591 214.959 485.823 214.603 485.969 214.209C486.143 213.606 486.196 212.976 486.126 212.353C486.126 211.659 486.126 210.936 486.126 210.072C486.126 208.414 486.126 206.515 486.126 204.404C486.126 195.803 486.055 183.391 485.998 168.089C485.998 160.409 485.998 152.021 485.998 143.009C485.998 138.489 485.998 133.828 485.998 129.024C485.998 126.63 485.998 124.193 485.998 121.727C485.998 120.523 485.998 119.191 485.998 118.057C485.904 117.505 485.624 117.001 485.203 116.627C484.781 116.254 484.244 116.034 483.68 116.003H416.954C416.306 116.003 415.683 116.253 415.218 116.7C414.753 117.147 414.483 117.756 414.464 118.397C414.464 119.814 414.464 121.231 414.464 122.733V148.167C414.464 159.204 414.464 169.845 414.464 179.991C414.464 190.136 414.464 199.827 414.464 208.768V212.126C414.421 212.659 414.421 213.194 414.464 213.727C414.547 214.209 414.777 214.654 415.122 215.003C415.463 215.359 415.9 215.61 416.381 215.725C416.893 215.801 417.41 215.824 417.926 215.796H433.277L469.945 215.924L479.96 215.994H482.55H483.437C483.437 215.994 483.136 215.994 482.55 215.994H479.96L469.945 216.065L433.277 216.179H421.131H417.926C417.362 216.212 416.796 216.183 416.238 216.094C415.646 215.961 415.107 215.655 414.693 215.215C414.263 214.78 413.974 214.227 413.863 213.628C413.822 213.062 413.822 212.494 413.863 211.928V208.57C413.863 199.558 413.863 189.923 413.863 179.792C413.863 169.661 413.863 159.006 413.863 147.968C413.863 142.461 413.863 136.85 413.863 131.135V122.535C413.863 121.118 413.863 119.701 413.863 118.171C413.889 117.339 414.241 116.549 414.845 115.97C415.449 115.391 416.256 115.067 417.097 115.068H483.723C484.439 115.112 485.118 115.396 485.651 115.872C486.183 116.348 486.537 116.988 486.656 117.689C486.756 119.106 486.656 120.211 486.656 121.472V128.769C486.656 133.573 486.656 138.234 486.656 142.754C486.656 151.766 486.656 160.154 486.656 167.833C486.656 183.136 486.57 195.548 486.541 204.149C486.541 206.288 486.541 208.187 486.541 209.817C486.541 210.638 486.541 211.404 486.541 212.098C486.597 212.738 486.529 213.382 486.341 213.996C486.186 214.409 485.935 214.78 485.61 215.08C485.285 215.38 484.893 215.601 484.467 215.725C484.139 215.941 483.758 216.064 483.365 216.079Z" fill="#1E1E1E"/>
<path d="M454.866 135.457C445.138 133.317 434.45 138.546 431.718 148.478C429.085 158.014 435.452 169.151 445.109 171.744C449.872 172.874 454.888 172.237 459.209 169.953C463.53 167.668 466.856 163.895 468.558 159.346C472.02 149.159 465.424 138.177 455.467 134.933C454.322 134.55 453.865 136.35 454.981 136.718C463.464 139.793 469.559 148.861 467.012 157.972C464.609 166.615 454.38 172.396 445.653 170.1C437.255 167.89 431.832 158.964 432.905 150.646C434.207 140.459 445.095 134.366 454.78 136.024C455.138 136.024 455.295 135.556 454.938 135.485L454.866 135.457Z" fill="#1E1E1E"/>
<path d="M445.195 171.447C450.128 172.889 455.434 172.362 459.98 169.978C464.525 167.595 467.948 163.545 469.517 158.694C472.55 148.351 465.783 137.157 455.611 134.083C453.264 133.374 452.42 136.803 454.609 137.653C463.193 140.997 468.916 150.249 465.54 159.332C462.507 167.408 453.579 171.305 445.296 170.384C444.637 170.299 444.552 171.319 445.153 171.489L445.195 171.447Z" fill="#8D9ED6"/>
<path d="M469.988 188.393C469.988 188.591 461.146 188.761 450.216 188.761C439.286 188.761 430.444 188.591 430.444 188.393C430.444 188.194 439.3 188.024 450.216 188.024C461.132 188.024 469.988 188.194 469.988 188.393Z" fill="#8D9ED6"/>
<path d="M469.988 194.33C469.988 194.542 461.146 194.698 450.216 194.698C439.286 194.698 430.444 194.542 430.444 194.33C430.444 194.117 439.3 193.961 450.216 193.961C461.132 193.961 469.988 194.131 469.988 194.33Z" fill="#8D9ED6"/>
<path d="M200.451 53.9703V184.978C200.455 186.375 201.017 187.713 202.014 188.701C203.011 189.689 204.363 190.245 205.773 190.249H381.974C383.384 190.245 384.736 189.689 385.733 188.701C386.73 187.713 387.292 186.375 387.296 184.978V49.4362C387.296 48.7319 387.154 48.0347 386.878 47.3858C386.601 46.7369 386.197 46.1494 385.687 45.658C385.178 45.1667 384.574 44.7815 383.912 44.5251C383.249 44.2687 382.542 44.1463 381.831 44.1652L205.63 48.6994C204.245 48.7398 202.93 49.3125 201.963 50.2963C200.996 51.28 200.454 52.5976 200.451 53.9703Z" fill="#E0E0E0"/>
<path d="M371.558 76.8959C371.558 77.0376 369.312 75.7765 365.049 74.4446C359.004 72.5779 352.611 72.0934 346.35 73.0277C342.072 73.6982 337.928 75.0373 334.075 76.9951C329.674 79.3379 325.601 82.2387 321.957 85.6241C317.98 89.1097 314.031 93.0487 309.481 96.6902C304.842 100.609 299.414 103.507 293.558 105.192C290.523 105.968 287.366 106.155 284.259 105.744C281.28 105.299 278.386 104.411 275.675 103.109C270.711 100.544 265.897 97.7055 261.254 94.6073C257.093 91.8738 252.506 89.8391 247.677 88.5854C243.466 87.5737 239.118 87.2436 234.801 87.6077C228.5 88.1272 222.403 90.0657 216.975 93.2754C213.155 95.5991 211.352 97.3278 211.252 97.2144C211.637 96.7516 212.068 96.329 212.54 95.9534C213.835 94.8006 215.223 93.7534 216.688 92.822C221.272 89.891 226.404 87.9016 231.778 86.9718C237.153 86.0421 242.662 86.1909 247.977 87.4094C252.941 88.6367 257.661 90.682 261.94 93.4596C266.556 96.4966 271.331 99.2872 276.247 101.819C281.493 104.466 287.522 105.165 293.243 103.789C298.908 102.137 304.158 99.3221 308.652 95.5283C313.144 91.9718 317.107 88.047 321.141 84.5614C324.89 81.1365 329.074 78.2118 333.588 75.8615C337.566 73.9522 341.825 72.6847 346.207 72.1067C352.597 71.2218 359.107 71.8482 365.206 73.9345C366.855 74.4904 368.457 75.1726 369.999 75.9749C370.549 76.2278 371.072 76.5364 371.558 76.8959Z" fill="#2F326F"/>
<path d="M259.309 107.671H242.069V153.834H259.309V107.671Z" fill="#2F326F"/>
<path d="M332.444 107.671H315.204V153.834H332.444V107.671Z" fill="#2F326F"/>
<path d="M356.808 80.5657H339.568V153.834H356.808V80.5657Z" fill="#2F326F"/>
<path d="M237.004 139.297H219.765V154.826H237.004V139.297Z" fill="#2F326F"/>
<path d="M283.687 128.514H266.447V153.834H283.687V128.514Z" fill="#2F326F"/>
<path d="M308.066 122.705H290.826V153.834H308.066V122.705Z" fill="#2F326F"/>
<path d="M259.995 159.275C259.995 159.658 255.832 159.955 250.682 159.955C245.531 159.955 241.368 159.658 241.368 159.275C241.368 158.893 245.546 158.595 250.682 158.595C255.818 158.595 259.995 158.893 259.995 159.275Z" fill="#1E1E1E"/>
<path d="M238.549 159.275C238.549 159.658 234.372 159.955 229.236 159.955C224.099 159.955 219.922 159.658 219.922 159.275C219.922 158.893 224.099 158.595 229.236 158.595C234.372 158.595 238.549 158.893 238.549 159.275Z" fill="#1E1E1E"/>
<path d="M360.214 159.275C360.214 159.658 355.493 159.955 349.684 159.955C343.876 159.955 339.154 159.658 339.154 159.275C339.154 158.893 343.861 158.595 349.684 158.595C355.507 158.595 360.214 158.893 360.214 159.275Z" fill="#1E1E1E"/>
<path d="M324.075 159.955C329.89 159.955 334.604 159.651 334.604 159.275C334.604 158.9 329.89 158.595 324.075 158.595C318.259 158.595 313.545 158.9 313.545 159.275C313.545 159.651 318.259 159.955 324.075 159.955Z" fill="#1E1E1E"/>
<path d="M308.051 159.275C308.051 159.658 303.888 159.955 298.738 159.955C293.587 159.955 289.438 159.658 289.438 159.275C289.438 158.893 293.602 158.595 298.738 158.595C303.874 158.595 308.051 158.893 308.051 159.275Z" fill="#1E1E1E"/>
<path d="M282.871 159.275C282.871 159.658 278.694 159.955 273.558 159.955C268.422 159.955 264.244 159.658 264.244 159.275C264.244 158.893 268.407 158.595 273.558 158.595C278.708 158.595 282.871 158.893 282.871 159.275Z" fill="#1E1E1E"/>
<path d="M339.054 216.816H339.34C339.634 216.841 339.921 216.923 340.184 217.057C340.623 217.28 340.983 217.631 341.214 218.063C341.491 218.676 341.595 219.352 341.515 220.018C341.515 223.022 341.514 227.429 341.586 233.082C341.658 238.736 341.586 245.707 341.658 253.769C341.658 257.812 341.658 262.12 341.658 266.692V271.892C341.74 272.535 341.62 273.188 341.314 273.762C340.975 274.354 340.415 274.792 339.755 274.98C339.118 275.094 338.469 275.132 337.823 275.094H334.075L334.333 274.839C334.333 278.919 334.333 283.34 334.333 287.903V288.654L333.832 288.087L322.143 275.037L322.372 275.136H201.882H193.455C192.983 275.136 192.568 275.136 192.024 275.136C191.501 275.072 191.006 274.866 190.594 274.541C190.18 274.201 189.868 273.755 189.692 273.252C189.613 272.994 189.57 272.727 189.563 272.458V242.278C189.563 235.264 189.563 228.364 189.563 221.62V219.069C189.58 218.595 189.721 218.132 189.972 217.728C190.222 217.323 190.575 216.989 190.994 216.759C191.439 216.545 191.93 216.443 192.425 216.462H206.073L275.275 216.547L321.914 216.66L334.604 216.731H321.914L275.275 216.845L206.073 216.93H192.439C192.073 216.904 191.707 216.977 191.38 217.142C191.059 217.306 190.786 217.55 190.591 217.851C190.395 218.152 190.282 218.499 190.264 218.857V242.278C190.264 249.297 190.264 256.433 190.264 263.688V271.892C190.228 272.315 190.262 272.74 190.365 273.153C190.481 273.521 190.705 273.846 191.008 274.088C191.315 274.334 191.688 274.487 192.081 274.527H201.867H322.358H322.501L322.587 274.626L334.247 287.718L333.746 287.903C333.746 283.326 333.746 278.919 333.746 274.839V274.57H337.809C338.406 274.612 339.006 274.589 339.597 274.499C340.127 274.343 340.577 273.994 340.856 273.521C341.143 273.027 341.273 272.459 341.228 271.892C341.228 271.296 341.228 270.701 341.228 270.12V266.635C341.228 262.058 341.228 257.751 341.228 253.713C341.228 245.65 341.228 238.707 341.228 233.026C341.228 227.344 341.228 222.966 341.228 219.962C341.321 219.319 341.237 218.663 340.985 218.063C340.771 217.646 340.438 217.301 340.027 217.071C339.719 216.933 339.39 216.847 339.054 216.816Z" fill="#1E1E1E"/>
<path d="M197.575 264.623C198.777 260.471 200.179 256.235 202.969 252.919C205.759 249.603 210.294 247.379 214.514 248.456C221.195 250.156 224.414 258.969 231.239 259.791C235.016 260.301 238.693 258.062 241.125 255.158C243.557 252.253 245.059 248.725 246.919 245.438C249.78 240.493 253.543 235.916 258.679 233.436C263.815 230.957 270.425 230.943 274.917 234.442C282.614 240.45 281.541 253.712 289.739 259.012C291.732 260.253 294.053 260.88 296.407 260.812C298.761 260.744 301.041 259.984 302.958 258.629C306.606 255.951 308.466 251.332 312.3 248.937C316.735 246.104 322.887 247.251 326.907 250.595C330.928 253.939 333.016 259.097 333.775 264.226" fill="#8D9ED6"/>
<path d="M331.014 240.79C330.898 240.766 330.787 240.723 330.685 240.663L329.741 240.224C328.506 239.704 327.234 239.278 325.935 238.948C321.107 237.922 316.101 238.068 311.342 239.373C308.06 240.254 304.866 241.431 301.8 242.887C298.466 244.418 295.018 246.288 291.342 248.172C287.509 250.226 283.519 251.979 279.41 253.415C274.966 254.973 270.251 255.623 265.547 255.328C260.867 254.89 256.283 253.743 251.955 251.927C247.735 250.255 243.858 248.286 240.167 246.444C232.813 242.703 225.86 239.713 219.737 238.807C214.88 237.929 209.878 238.29 205.201 239.855C203.506 240.486 201.877 241.279 200.337 242.221C200.422 242.134 200.518 242.058 200.623 241.995L201.481 241.385C202.617 240.664 203.826 240.061 205.087 239.586C209.801 237.891 214.88 237.442 219.823 238.282C226.103 239.147 233.085 242.122 240.467 245.835C244.173 247.662 248.05 249.618 252.227 251.261C256.489 253.04 261 254.163 265.604 254.591C270.211 254.883 274.829 254.247 279.181 252.721C283.255 251.315 287.21 249.596 291.013 247.577C294.704 245.693 298.166 243.851 301.542 242.335C304.65 240.883 307.888 239.721 311.214 238.863C316.051 237.578 321.138 237.514 326.007 238.679C327.783 239.102 329.475 239.816 331.014 240.79Z" fill="#1E1E1E"/>
<path d="M267.178 231.75C267.192 232.047 267.116 232.342 266.96 232.595C266.804 232.849 266.574 233.051 266.301 233.174C266.029 233.298 265.725 233.338 265.429 233.289C265.133 233.239 264.858 233.104 264.641 232.899C264.424 232.694 264.273 232.429 264.209 232.139C264.145 231.848 264.171 231.546 264.282 231.27C264.393 230.994 264.585 230.757 264.834 230.59C265.082 230.423 265.375 230.334 265.675 230.333C266.061 230.336 266.43 230.485 266.709 230.748C266.988 231.011 267.156 231.369 267.178 231.75Z" fill="#2F326F"/>
<path d="M213.27 238.056C213.27 238.35 213.182 238.637 213.017 238.882C212.852 239.127 212.617 239.317 212.343 239.43C212.068 239.543 211.766 239.572 211.475 239.515C211.183 239.457 210.916 239.316 210.706 239.108C210.496 238.899 210.352 238.634 210.294 238.346C210.237 238.057 210.266 237.758 210.38 237.486C210.494 237.214 210.686 236.982 210.933 236.819C211.18 236.655 211.471 236.568 211.768 236.568C211.968 236.558 212.168 236.589 212.355 236.66C212.542 236.731 212.711 236.841 212.853 236.981C212.994 237.121 213.105 237.289 213.177 237.474C213.248 237.659 213.28 237.857 213.27 238.056Z" fill="#2F326F"/>
<path d="M320.541 238.07C320.541 238.367 320.452 238.657 320.285 238.904C320.119 239.151 319.882 239.344 319.605 239.457C319.328 239.571 319.023 239.601 318.728 239.543C318.434 239.485 318.164 239.342 317.952 239.132C317.74 238.922 317.595 238.654 317.537 238.363C317.478 238.071 317.508 237.769 317.623 237.495C317.738 237.221 317.932 236.986 318.182 236.821C318.431 236.656 318.724 236.568 319.024 236.568C319.427 236.568 319.812 236.726 320.097 237.008C320.381 237.289 320.541 237.671 320.541 238.07Z" fill="#2F326F"/>
<path d="M422.146 448.17H435.551C441.803 448.17 455.208 431.889 382.473 433.746C334.66 434.964 331.513 441.964 333.931 446.044C334.515 446.971 335.347 447.72 336.334 448.207C337.322 448.695 338.426 448.903 339.525 448.807C340.698 448.722 342.243 448.708 344.074 448.722L342.93 453.71L316.319 570.208L320.955 569.812L340.612 505.682L378.11 504.265L380.256 572.447H386.136L387.567 503.911H387.752L391.715 503.769L424.95 502.494L444.65 572.461H450.287L422.146 448.17ZM343.459 496.543L356.578 453.71L358.009 448.864C363.503 448.864 369.926 448.737 376.364 448.737L377.795 495.495L343.459 496.543ZM392.903 495.013H391.472L387.824 495.126L388.797 448.127H409.742L422.618 494.049L392.903 495.013Z" fill="#2F326F"/>
<path d="M302.328 564.413V549.351L329.582 549.181L329.797 571.696L328.108 571.824C320.597 572.305 289.867 573.241 284.831 571.682C279.223 569.967 302.328 564.413 302.328 564.413Z" fill="#8D9ED6"/>
<path d="M284.188 570.308C284.188 570.563 294.374 570.775 306.949 570.775C319.525 570.775 329.711 570.563 329.711 570.308C329.711 570.053 319.525 569.854 306.949 569.854C294.374 569.854 284.188 570.053 284.188 570.308Z" fill="#1E1E1E"/>
<path d="M301.856 567.488C302.085 567.375 301.856 566.581 301.298 565.788C300.74 564.994 300.011 564.583 299.867 564.767C299.724 564.952 300.053 565.603 300.597 566.34C301.141 567.077 301.627 567.615 301.856 567.488Z" fill="#1E1E1E"/>
<path d="M300.11 568.48C300.353 568.395 300.225 567.502 299.695 566.567C299.166 565.632 298.451 565.051 298.265 565.15C298.079 565.249 298.408 566.085 298.908 566.949C299.409 567.814 299.867 568.579 300.11 568.48Z" fill="#1E1E1E"/>
<path d="M321.499 570.208C321.613 570.208 322.014 569.882 322.6 569.216C323.323 568.358 324.123 567.566 324.99 566.85C325.844 566.18 326.86 565.741 327.937 565.575C328.767 565.462 329.367 565.575 329.367 565.462C329.367 565.348 328.91 564.994 327.937 564.923C326.668 564.914 325.435 565.34 324.446 566.128C323.495 566.881 322.694 567.803 322.085 568.848C321.613 569.613 321.399 570.137 321.499 570.208Z" fill="#1E1E1E"/>
<path d="M301.77 564.654C301.641 564.867 302.099 565.391 302.886 565.674C303.672 565.958 304.316 565.859 304.402 565.674C304.488 565.49 303.887 565.122 303.2 564.867C302.514 564.612 301.898 564.442 301.77 564.654Z" fill="#1E1E1E"/>
<path d="M302.199 563.209C302.199 563.45 302.9 563.676 303.816 563.676C304.732 563.676 305.475 563.492 305.461 563.251C305.447 563.01 304.717 562.784 303.83 562.77C302.943 562.755 302.228 562.954 302.199 563.209Z" fill="#1E1E1E"/>
<path d="M359.826 564.413V549.351L387.08 549.181L387.295 571.696L385.607 571.824C378.096 572.305 347.365 573.241 342.329 571.682C336.735 569.967 359.826 564.413 359.826 564.413Z" fill="#8D9ED6"/>
<path d="M341.699 570.308C341.699 570.563 351.9 570.775 364.461 570.775C377.022 570.775 387.223 570.563 387.223 570.308C387.223 570.053 377.037 569.854 364.461 569.854C351.886 569.854 341.699 570.053 341.699 570.308Z" fill="#1E1E1E"/>
<path d="M359.369 567.488C359.598 567.375 359.369 566.581 358.811 565.788C358.253 564.994 357.523 564.583 357.38 564.767C357.237 564.952 357.581 565.603 358.11 566.34C358.639 567.077 359.14 567.615 359.369 567.488Z" fill="#1E1E1E"/>
<path d="M357.623 568.48C357.866 568.395 357.737 567.502 357.208 566.567C356.679 565.632 355.963 565.051 355.777 565.15C355.591 565.249 355.92 566.085 356.421 566.949C356.922 567.814 357.394 568.579 357.623 568.48Z" fill="#1E1E1E"/>
<path d="M379.011 570.208C379.126 570.208 379.526 569.882 380.113 569.216C380.836 568.358 381.635 567.566 382.502 566.85C383.357 566.18 384.372 565.741 385.449 565.575C386.279 565.462 386.88 565.575 386.88 565.462C386.88 565.348 386.408 564.994 385.449 564.923C384.18 564.914 382.947 565.34 381.959 566.128C381.007 566.881 380.207 567.803 379.598 568.848C379.126 569.613 378.911 570.137 379.011 570.208Z" fill="#1E1E1E"/>
<path d="M359.283 564.654C359.154 564.867 359.626 565.391 360.399 565.674C361.171 565.958 361.829 565.859 361.915 565.674C362.001 565.49 361.4 565.122 360.713 564.867C360.027 564.612 359.426 564.442 359.283 564.654Z" fill="#1E1E1E"/>
<path d="M359.712 563.209C359.712 563.45 360.413 563.676 361.329 563.676C362.244 563.676 362.988 563.492 362.974 563.251C362.96 563.01 362.23 562.784 361.343 562.77C360.456 562.755 359.741 562.954 359.712 563.209Z" fill="#1E1E1E"/>
<path d="M437.912 294.25C436.796 293.995 435.408 294.137 434.736 293.216C434.064 292.295 434.55 291.218 434.908 290.241C436.104 287.105 436.14 283.651 435.008 280.492C434.197 278.409 432.765 276.62 430.902 275.363C431.175 275.103 431.411 274.807 431.603 274.484C432.131 273.54 432.397 272.475 432.375 271.396C432.411 270.436 432.242 269.479 431.88 268.588C431.517 267.697 430.97 266.891 430.272 266.224C429.659 265.673 428.861 265.368 428.033 265.368C427.206 265.368 426.408 265.673 425.794 266.224C425.567 266.436 425.386 266.692 425.262 266.975C425.138 267.259 425.074 267.565 425.074 267.875C425.074 268.184 425.138 268.49 425.262 268.774C425.386 269.057 425.567 269.313 425.794 269.525C426.095 269.768 426.458 269.922 426.843 269.97C427.227 270.018 427.618 269.957 427.969 269.794C428.441 269.554 428.513 269.256 428.513 269.256C428.335 269.423 428.133 269.562 427.912 269.667C427.587 269.78 427.237 269.807 426.898 269.745C426.56 269.682 426.243 269.534 425.98 269.313C425.793 269.121 425.648 268.892 425.555 268.642C425.461 268.392 425.421 268.125 425.438 267.858C425.454 267.592 425.526 267.332 425.649 267.094C425.772 266.857 425.943 266.647 426.152 266.479C426.7 266.028 427.398 265.795 428.11 265.826C428.821 265.858 429.496 266.151 430.001 266.649C430.616 267.277 431.094 268.023 431.404 268.843C431.714 269.662 431.85 270.536 431.803 271.41C431.823 272.378 431.575 273.333 431.088 274.173C430.895 274.487 430.659 274.773 430.387 275.023C429.622 274.567 428.793 274.227 427.926 274.017C426.081 273.578 424.078 273.691 422.389 272.827C420.981 272.03 419.91 270.757 419.371 269.242C419.371 269.086 419.371 268.916 419.371 268.746C419.573 266.283 419.912 263.833 420.386 261.406C420.704 259.05 420.641 256.659 420.201 254.322C419.871 252.328 419.085 250.436 417.902 248.79C416.719 247.145 415.17 245.789 413.376 244.828C412.145 244.228 410.795 243.903 409.422 243.879C408.05 243.854 406.689 244.13 405.436 244.687C404.765 244.99 404.147 245.397 403.605 245.891L403.304 246.203C402.459 246.618 401.713 247.208 401.115 247.931L396.709 287.293L429.028 306.861C431.544 306.778 434.031 306.3 436.396 305.444C437.575 304.999 438.633 304.288 439.487 303.369C440.341 302.449 440.968 301.345 441.317 300.145C441.617 298.917 441.431 297.623 440.798 296.527C440.165 295.431 439.132 294.617 437.912 294.25ZM416.695 253.032C416.131 251.479 415.26 250.052 414.132 248.835C413.005 247.619 411.644 246.637 410.129 245.948C408.02 245.13 405.669 245.171 403.59 246.061C404.169 245.621 404.804 245.259 405.479 244.984C406.695 244.497 408.004 244.275 409.315 244.333C410.626 244.392 411.909 244.73 413.076 245.324C414.768 246.274 416.222 247.59 417.327 249.176C418.432 250.761 419.16 252.574 419.457 254.478C419.857 256.733 419.905 259.037 419.6 261.307C419.414 263.078 418.913 264.864 418.684 266.762C418.507 265.418 418.402 264.065 418.369 262.71C418.362 259.414 417.797 256.143 416.695 253.032Z" fill="#1E1E1E"/>
<path d="M407.124 252.976C406.93 252.221 406.487 251.553 405.865 251.077C404.643 250.529 403.254 250.468 401.988 250.907L401.916 241.867L384.147 227.556L374.576 232.473C372.124 233.736 370.073 235.645 368.649 237.991C367.225 240.337 366.484 243.027 366.507 245.764C366.579 253.047 366.765 262.923 367.251 268.534C368.081 278.169 377.924 278.962 377.924 278.962C377.924 278.962 378.353 282.433 378.639 285.877C378.639 285.877 376.479 314.399 386.608 314.144C394.076 313.96 399.098 298.416 401.215 290.241L402.346 285.749V285.508V285.324L402.131 258.275L402.431 258.587C402.754 258.858 403.149 259.029 403.569 259.079C403.988 259.129 404.414 259.057 404.792 258.87C405.329 258.634 405.813 258.292 406.214 257.866C406.614 257.44 406.924 256.938 407.124 256.391C407.503 255.283 407.503 254.083 407.124 252.976Z" fill="#FFBE9D"/>
<path d="M368.768 252.806C368.77 252.968 368.805 253.129 368.87 253.278C368.935 253.427 369.03 253.561 369.149 253.674C369.267 253.786 369.408 253.873 369.561 253.931C369.714 253.989 369.878 254.016 370.042 254.01C370.372 254.01 370.688 253.88 370.922 253.649C371.155 253.418 371.286 253.104 371.286 252.777C371.286 252.45 371.155 252.137 370.922 251.906C370.688 251.675 370.372 251.545 370.042 251.545C369.873 251.539 369.705 251.567 369.547 251.629C369.39 251.69 369.247 251.783 369.128 251.901C369.008 252.019 368.915 252.161 368.853 252.316C368.791 252.472 368.762 252.639 368.768 252.806Z" fill="#1E1E1E"/>
<path d="M367.523 251.502C367.681 251.658 368.582 250.85 369.927 250.751C371.272 250.652 372.288 251.261 372.431 251.077C372.574 250.893 372.316 250.709 371.873 250.425C371.273 250.047 370.563 249.878 369.855 249.943C369.15 250.004 368.483 250.287 367.953 250.751C367.566 251.105 367.438 251.431 367.523 251.502Z" fill="#1E1E1E"/>
<path d="M383.218 252.381C383.218 252.708 383.349 253.021 383.582 253.252C383.816 253.484 384.132 253.613 384.462 253.613C384.793 253.613 385.109 253.484 385.343 253.252C385.576 253.021 385.707 252.708 385.707 252.381C385.707 252.054 385.576 251.74 385.343 251.509C385.109 251.278 384.793 251.148 384.462 251.148C384.132 251.148 383.816 251.278 383.582 251.509C383.349 251.74 383.218 252.054 383.218 252.381Z" fill="#1E1E1E"/>
<path d="M382.416 251.063C382.573 251.219 383.475 250.425 384.82 250.312C386.164 250.198 387.18 250.822 387.323 250.652C387.466 250.482 387.209 250.269 386.765 249.986C386.161 249.624 385.456 249.46 384.752 249.518C384.048 249.577 383.38 249.855 382.845 250.312C382.459 250.638 382.33 250.992 382.416 251.063Z" fill="#1E1E1E"/>
<path d="M377.825 262.483C377.1 262.632 376.36 262.69 375.621 262.653C375.427 262.679 375.229 262.679 375.035 262.653C374.907 262.627 374.787 262.57 374.685 262.489C374.583 262.408 374.502 262.304 374.448 262.186C374.312 261.718 374.342 261.217 374.534 260.769L375.349 257.935C375.972 255.516 376.78 253.147 377.767 250.85C377.333 253.307 376.711 255.727 375.907 258.091L375.049 260.925C374.889 261.255 374.834 261.625 374.892 261.987C374.963 262.228 375.278 262.271 375.621 262.271C376.362 262.238 377.104 262.31 377.825 262.483Z" fill="#1E1E1E"/>
<path d="M382.474 263.56C382.56 263.461 378.597 265.926 375.864 265.997C376.37 266.661 377.088 267.136 377.901 267.344C378.714 267.553 379.575 267.482 380.342 267.145C381.088 266.923 381.722 266.431 382.118 265.766C382.513 265.102 382.64 264.314 382.474 263.56Z" fill="#FAFAFA"/>
<path d="M377.867 278.976C382.49 278.674 386.929 277.066 390.657 274.343C390.657 274.343 387.91 281.498 378.139 281.328L377.867 278.976Z" fill="#EB996E"/>
<path d="M365.091 246.925C369.383 247.506 372.459 246.359 376.608 245.324C380.757 244.29 384.705 241.584 386.15 237.588C386.648 240.229 387.876 242.682 389.698 244.673C390.084 245.098 390.828 245.494 391.129 245.027C391.193 244.889 391.226 244.739 391.226 244.588C391.226 244.436 391.193 244.286 391.129 244.148L390.27 240.776C391.74 243.435 393.65 245.83 395.922 247.861C398.297 249.745 405.521 252.664 404.42 249.858C404.148 249.15 406.566 227.301 385.592 226.975C364.619 226.649 365.091 246.925 365.091 246.925Z" fill="#1E1E1E"/>
<path d="M402.26 253.146C402.188 253.146 402.617 252.65 403.519 252.678C403.978 252.714 404.417 252.882 404.782 253.161C405.147 253.44 405.422 253.818 405.574 254.249C405.726 254.68 405.747 255.146 405.636 255.589C405.526 256.032 405.287 256.434 404.949 256.745C404.551 257.09 404.047 257.294 403.519 257.326C402.617 257.326 402.202 256.901 402.26 256.844C402.317 256.787 402.775 256.943 403.461 256.844C403.888 256.769 404.274 256.547 404.553 256.218C404.831 255.889 404.983 255.474 404.983 255.044C404.983 254.615 404.831 254.2 404.553 253.871C404.274 253.542 403.888 253.32 403.461 253.245C402.746 253.047 402.303 253.259 402.26 253.146Z" fill="#EB996E"/>
<path d="M437.082 321.016L440.687 320.293C440.687 320.293 432.833 285.324 405.536 285.324H402.317V285.494V285.735L401.187 290.226C399.069 298.402 394.033 313.945 386.58 314.13C377.123 314.37 378.382 289.589 378.582 286.245C378.345 286.272 378.114 286.334 377.896 286.429C377.896 286.429 348.209 288.058 334.976 313.846L357.866 330.41L363.46 327.066C363.46 327.066 365.291 363.537 362.144 373.47C358.596 384.692 353.102 397.118 353.102 397.118C378.268 395.177 406.895 396.296 437.411 399.088L417.053 325.054C423.894 324.695 430.644 323.334 437.082 321.016Z" fill="#8D9ED6"/>
<path d="M412.59 338.486C412.59 338.486 412.404 338.812 411.946 339.28C411.287 339.923 410.563 340.498 409.785 340.994C407.183 342.673 404.12 343.515 401.016 343.403C397.912 343.292 394.918 342.232 392.446 340.371C391.7 339.825 391.019 339.197 390.414 338.501C389.985 338.005 389.799 337.693 389.842 337.665C389.885 337.636 390.858 338.685 392.703 339.946C395.151 341.615 398.028 342.558 400.997 342.666C403.967 342.774 406.906 342.042 409.471 340.555C411.488 339.45 412.489 338.486 412.59 338.486Z" fill="#1E1E1E"/>
<path d="M425.809 357.969C425.546 357.405 425.34 356.816 425.194 356.212C424.794 354.937 424.307 353.378 423.763 351.394C422.533 347.328 420.902 341.703 418.871 335.539C416.839 329.376 415.008 323.793 413.634 319.769C413.005 317.87 412.461 316.269 412.032 314.994C411.795 314.425 411.627 313.831 411.531 313.223C411.841 313.76 412.1 314.324 412.304 314.909C412.762 316 413.391 317.601 414.135 319.599C415.637 323.581 417.597 329.121 419.572 335.313C421.546 341.504 423.177 347.144 424.264 351.253C424.808 353.307 425.237 354.979 425.495 356.141C425.67 356.736 425.776 357.35 425.809 357.969Z" fill="#1E1E1E"/>
<path d="M416.953 302.043C415.67 302.016 414.414 301.68 413.291 301.066C412.071 300.677 410.959 300.012 410.043 299.125C411.281 299.364 412.473 299.795 413.577 300.4C414.78 300.776 415.918 301.33 416.953 302.043Z" fill="#1E1E1E"/>
<path d="M423.992 314.172C424.076 312.747 424.41 311.347 424.979 310.035C425.321 308.643 425.901 307.32 426.696 306.124C426.594 307.548 426.256 308.946 425.695 310.261C425.355 311.651 424.779 312.973 423.992 314.172Z" fill="#1E1E1E"/>
<path d="M399.484 322.9C399.798 321.601 400.315 320.358 401.015 319.216C401.496 317.964 402.161 316.79 402.99 315.731C402.446 318.374 401.241 320.839 399.484 322.9Z" fill="#1E1E1E"/>
<path d="M395.049 330.58C393.774 329.921 392.66 328.992 391.787 327.86C390.733 326.885 389.911 325.689 389.384 324.36C391.445 326.29 393.358 328.369 395.106 330.58H395.049Z" fill="#1E1E1E"/>
<path d="M412.761 329.418C412.016 330.954 410.976 332.33 409.699 333.471C408.636 334.606 407.451 335.623 406.165 336.503L405.106 337.14L405.936 336.304C406.137 336.106 406.265 336.021 406.308 336.049C406.351 336.078 406.308 336.234 406.194 336.474L405.965 336.276C406.466 335.681 407.739 334.448 409.17 332.96C410.255 331.673 411.457 330.488 412.761 329.418Z" fill="#1E1E1E"/>
<path d="M416.61 354.71C415.192 354.473 413.847 353.921 412.675 353.095C411.373 352.477 410.232 351.57 409.342 350.445C410.651 350.972 411.894 351.647 413.047 352.457C414.325 353.057 415.522 353.814 416.61 354.71Z" fill="#1E1E1E"/>
<path d="M398.683 348.929C398.198 350.285 397.477 351.546 396.552 352.655C395.827 353.903 394.899 355.023 393.805 355.971C394.282 354.612 395.005 353.349 395.936 352.245C396.662 350.997 397.59 349.877 398.683 348.929Z" fill="#1E1E1E"/>
<path d="M386.923 350.077C385.807 349.67 384.789 349.038 383.933 348.221C382.402 347.045 381.272 345.954 381.401 345.798C381.529 345.642 382.831 346.464 384.391 347.64C385.95 348.816 387.009 349.907 386.923 350.077Z" fill="#1E1E1E"/>
<path d="M380.556 332.819C380.671 332.989 379.555 333.98 378.053 335.043C376.551 336.106 375.191 336.828 375.191 336.658C375.191 336.488 376.179 335.497 377.681 334.434C378.519 333.708 379.497 333.158 380.556 332.819Z" fill="#1E1E1E"/>
<path d="M378.125 324.076C377.967 324.204 376.937 323.127 375.821 321.682C374.705 320.237 373.947 318.947 374.105 318.848C374.262 318.749 375.306 319.811 376.408 321.257C377.51 322.702 378.296 323.963 378.125 324.076Z" fill="#1E1E1E"/>
<path d="M403.634 300.839C403.872 299.608 404.359 298.437 405.064 297.396C405.556 296.24 406.265 295.187 407.153 294.293C406.911 295.527 406.425 296.702 405.723 297.75C405.234 298.904 404.525 299.953 403.634 300.839Z" fill="#1E1E1E"/>
<path d="M371.758 302.312C370.441 301.928 369.201 301.32 368.096 300.513C366.867 299.904 365.758 299.083 364.819 298.09C366.144 298.456 367.386 299.067 368.482 299.89C369.713 300.494 370.823 301.315 371.758 302.312Z" fill="#1E1E1E"/>
<path d="M355.062 298.076C355.248 298.175 354.719 299.394 353.889 300.768C353.059 302.143 352.244 303.205 352.058 303.092C351.872 302.979 352.416 301.788 353.245 300.4C354.075 299.011 354.891 297.977 355.062 298.076Z" fill="#1E1E1E"/>
<path d="M372.43 393.746C369.999 392.759 367.784 391.316 365.906 389.495C367.167 389.889 368.341 390.514 369.368 391.337C370.524 391.957 371.56 392.772 372.43 393.746Z" fill="#1E1E1E"/>
<path d="M420.244 388.674C420.401 388.815 419.357 390.175 417.912 391.734C416.467 393.293 415.193 394.426 415.05 394.285C414.907 394.143 415.937 392.783 417.382 391.224C418.827 389.665 420.101 388.532 420.244 388.674Z" fill="#1E1E1E"/>
<path d="M387.753 393.987C387.696 392.098 387.696 390.208 387.753 388.319C387.939 388.319 388.454 389.524 388.454 391.153C388.565 392.15 388.317 393.154 387.753 393.987Z" fill="#1E1E1E"/>
<path d="M404.664 394.256C403.405 393.919 402.221 393.352 401.173 392.584C400.001 392.021 398.947 391.242 398.068 390.289C400.502 391.182 402.741 392.529 404.664 394.256Z" fill="#1E1E1E"/>
<path d="M437.44 399.102C437.155 399.133 436.867 399.133 436.582 399.102L434.121 398.904L425.108 398.11C417.497 397.458 406.981 396.523 395.336 396.339C383.69 396.155 373.117 396.41 365.492 396.693L356.45 397.076L353.989 397.175C353.705 397.215 353.416 397.215 353.131 397.175L353.975 397.048L356.436 396.821C358.553 396.637 361.643 396.424 365.463 396.197C373.103 395.772 383.661 395.404 395.35 395.631C407.038 395.857 417.554 396.835 425.165 397.614C428.956 398.025 432.032 398.379 434.149 398.649L436.596 398.975C436.882 398.982 437.165 399.025 437.44 399.102Z" fill="#1E1E1E"/>
<g opacity="0.2">
<path d="M411.502 313.223L418.655 360.335C418.655 360.335 425.279 360.335 426.495 358.38L411.502 313.223Z" fill="#1E1E1E"/>
<path d="M411.502 313.223L418.655 360.335C418.655 360.335 425.279 360.335 426.495 358.38L411.502 313.223Z" fill="#1E1E1E"/>
</g>
<path d="M369.97 396.24C353.131 397.529 343.932 396.382 325.405 398.11C319.144 398.928 313.386 401.937 309.172 406.594C304.958 411.252 302.565 417.249 302.428 423.501L299.181 562.09H333.216L338.596 437.84L348.61 439.102C347.323 485.633 352.23 562.09 352.23 562.09L390.028 560.262L387.868 440.929C387.868 440.929 438.699 444.344 437.426 399.145C437.44 399.102 397.41 394.299 369.97 396.24Z" fill="#1E1E1E"/>
<path d="M380.142 395.886C379.293 396.075 378.433 396.217 377.567 396.311C375.908 396.566 373.504 396.92 370.557 397.458C367.1 397.937 363.713 398.827 360.471 400.108C358.601 400.928 356.869 402.027 355.335 403.367C353.702 404.811 352.379 406.565 351.443 408.524C349.733 412.398 348.903 416.597 349.011 420.823C349.011 424.734 349.154 428.29 349.125 431.266C349.097 434.241 348.997 436.65 348.882 438.35C348.882 439.186 348.768 439.838 348.711 440.263C348.701 440.488 348.668 440.711 348.61 440.929C348.549 440.071 348.549 439.209 348.61 438.35C348.61 436.678 348.61 434.284 348.61 431.266C348.61 428.248 348.439 424.72 348.339 420.823C348.188 416.486 349.024 412.172 350.785 408.198C351.767 406.156 353.153 404.329 354.862 402.828C356.455 401.446 358.255 400.318 360.199 399.484C363.506 398.211 366.962 397.354 370.485 396.934C373.447 396.466 375.879 396.183 377.553 396.027C378.383 395.956 378.983 395.9 379.484 395.886C379.702 395.85 379.924 395.85 380.142 395.886Z" fill="#2F326F"/>
<path d="M335.591 429.169C336.326 430.532 336.944 431.954 337.436 433.42C338.166 434.804 338.562 436.336 338.595 437.897C337.86 436.534 337.242 435.112 336.75 433.646C336.013 432.265 335.616 430.731 335.591 429.169Z" fill="#2F326F"/>
<path d="M338.366 426.335C339.009 428.157 339.343 430.072 339.353 432.003C339.575 433.952 339.32 435.925 338.61 437.755C338.381 437.755 338.767 435.176 338.61 432.088C338.452 428.999 338.109 426.335 338.366 426.335Z" fill="#2F326F"/>
<path d="M385.307 428.956C386.175 430.818 386.749 432.802 387.009 434.836C387.486 436.82 387.797 438.839 387.939 440.873C387.075 439.007 386.515 437.017 386.279 434.978C385.784 433.002 385.459 430.987 385.307 428.956Z" fill="#2F326F"/>
<path d="M388.712 428.928C389.564 432.902 389.337 437.028 388.054 440.887C388.068 438.888 388.197 436.892 388.44 434.907C388.425 432.911 388.516 430.915 388.712 428.928Z" fill="#2F326F"/>
<path d="M332.343 553.956C332.343 554.155 324.889 554.325 315.69 554.325C306.491 554.325 299.037 554.155 299.037 553.956C299.037 553.758 306.491 553.588 315.69 553.588C324.889 553.588 332.343 553.744 332.343 553.956Z" fill="#2F326F"/>
<path d="M389.57 553.333C389.57 553.531 381.086 553.701 370.628 553.701C360.169 553.701 351.686 553.531 351.686 553.333C351.686 553.135 360.169 552.965 370.628 552.965C381.086 552.965 389.57 553.135 389.57 553.333Z" fill="#2F326F"/>
<path d="M432.919 419.845H432.447H431.017H425.58L405.551 419.945H391.745C389.207 419.936 386.677 420.222 384.205 420.795C381.602 421.382 379.27 422.813 377.581 424.861C375.981 427.15 375.127 429.87 375.135 432.654C374.992 435.488 375.307 438.449 375.421 441.468C375.574 447.494 375.741 453.705 375.922 460.1C376.651 485.604 377.252 508.714 377.467 525.448C377.581 533.808 377.61 540.581 377.61 545.285C377.61 547.59 377.61 549.389 377.61 550.683C377.61 551.264 377.61 551.718 377.61 552.1C377.632 552.26 377.632 552.422 377.61 552.582C377.591 552.422 377.591 552.26 377.61 552.1C377.61 551.746 377.61 551.292 377.61 550.683C377.61 549.394 377.61 547.594 377.51 545.285C377.41 540.566 377.281 533.808 377.123 525.448C376.766 508.728 376.093 485.619 375.364 460.1C375.192 453.724 375.035 447.504 374.877 441.482C374.763 438.492 374.462 435.531 374.62 432.598C374.618 429.676 375.527 426.826 377.224 424.436C379.008 422.282 381.472 420.785 384.22 420.185C386.748 419.608 389.336 419.323 391.931 419.335H405.737L425.766 419.477L431.203 419.562H432.633C432.738 419.647 432.834 419.742 432.919 419.845Z" fill="#2F326F"/>
<path opacity="0.2" d="M344.59 438.549C344.59 438.549 343.274 421.758 349.64 412.109L348.625 439.03L344.59 438.549Z" fill="#1E1E1E"/>
<path d="M347.336 422.58C347.213 422.599 347.088 422.599 346.964 422.58L345.848 422.382C344.861 422.198 343.431 421.914 341.556 421.702C339.3 421.427 337.012 421.561 334.804 422.098C333.437 422.456 332.148 423.056 330.998 423.87C329.739 424.797 328.731 426.019 328.065 427.426C326.635 430.402 326.463 434.128 326.377 438.039C326.291 441.949 326.177 446.172 326.062 450.593C325.819 459.434 325.562 469.154 325.29 479.356C324.689 499.731 324.131 518.179 323.73 531.612C323.501 538.243 323.301 543.641 323.172 547.439C323.087 549.266 323.029 550.712 322.986 551.689C322.986 552.143 322.986 552.511 322.915 552.809C322.933 552.936 322.933 553.064 322.915 553.191C322.893 553.065 322.893 552.935 322.915 552.809C322.915 552.511 322.915 552.143 322.915 551.689C322.915 550.641 322.915 549.196 322.915 547.439C322.986 543.627 323.101 538.243 323.23 531.598C323.573 518.165 324.059 499.717 324.574 479.328C324.875 469.126 325.147 459.42 325.404 450.578C325.533 446.158 325.662 441.949 325.79 438.025C325.919 434.1 326.062 430.302 327.622 427.199C328.341 425.725 329.417 424.449 330.755 423.487C331.953 422.654 333.297 422.049 334.718 421.702C336.982 421.175 339.327 421.079 341.628 421.418C343.502 421.673 344.933 422.013 345.92 422.226L347.022 422.509C347.222 422.524 347.351 422.566 347.336 422.58Z" fill="#2F326F"/>
<path d="M344.704 315.702C344.704 315.702 308.78 351.394 301.927 359.372C296.076 366.187 299.896 379.038 304.789 379.591C309.682 380.144 388.883 379.081 388.883 379.081L387.839 363.041C387.839 363.041 336.535 363.268 335.033 362.333C333.531 361.398 364.705 330.183 364.705 330.183L344.704 315.702Z" fill="#FFBE9D"/>
<path d="M439.7 320.364C439.7 320.364 450.616 353.137 451.933 357.005C453.249 360.874 460.03 377.267 447.154 378.642C434.278 380.016 365.177 378.642 365.177 378.642L360.041 362.078C360.041 362.078 426.825 361.908 426.495 358.38C426.166 354.852 416.352 325.252 416.352 325.252L439.7 320.364Z" fill="#FFBE9D"/>
<path d="M293.873 310.148L318.695 378.245L432.962 378.202L432.176 374.873L389.298 373.314L368.196 309.1L293.873 310.148Z" fill="#1E1E1E"/>
<path d="M344.805 341.15C344.82 341.917 344.614 342.672 344.209 343.326C343.805 343.979 343.22 344.505 342.523 344.839C341.826 345.174 341.047 345.303 340.279 345.213C339.51 345.122 338.783 344.815 338.185 344.328C337.587 343.841 337.143 343.195 336.904 342.465C336.666 341.735 336.644 340.954 336.841 340.212C337.038 339.47 337.445 338.8 338.015 338.281C338.584 337.762 339.292 337.415 340.055 337.282C341.201 337.179 342.342 337.527 343.231 338.251C344.12 338.975 344.685 340.016 344.805 341.15Z" fill="#FAFAFA"/>
<path d="M492.063 376.757H222.125H219.192H216.273V572.277H222.125V388.277H492.063V572.419H561.064V388.277V376.757H492.063Z" fill="#2F326F"/>
<path d="M159.935 564.64V550.003L133.467 549.833L133.238 571.725L134.884 571.838C142.194 572.305 172.081 573.255 176.945 571.71C182.425 570.038 159.935 564.64 159.935 564.64Z" fill="#8D9ED6"/>
<path d="M177.575 570.378C177.575 570.619 167.675 570.818 155.457 570.818C143.239 570.818 133.339 570.619 133.339 570.378C133.339 570.138 143.239 569.925 155.457 569.925C167.675 569.925 177.575 570.123 177.575 570.378Z" fill="#1E1E1E"/>
<path d="M160.407 567.63C160.192 567.516 160.407 566.737 160.936 565.986C161.465 565.235 162.209 564.81 162.367 564.98C162.524 565.15 162.181 565.802 161.651 566.51C161.122 567.219 160.621 567.743 160.407 567.63Z" fill="#1E1E1E"/>
<path d="M162.094 568.593C161.865 568.508 161.98 567.644 162.509 566.737C163.039 565.83 163.711 565.32 163.94 565.419C164.169 565.518 163.811 566.312 163.325 567.162C162.838 568.012 162.395 568.678 162.094 568.593Z" fill="#1E1E1E"/>
<path d="M141.307 570.279C141.207 570.35 140.806 569.968 140.234 569.316C139.539 568.478 138.762 567.709 137.916 567.02C137.089 566.364 136.102 565.934 135.055 565.774C134.239 565.66 133.724 565.774 133.624 565.66C133.524 565.547 134.068 565.207 135.055 565.15C136.289 565.124 137.492 565.536 138.445 566.312C139.365 567.044 140.141 567.938 140.734 568.947C141.207 569.698 141.407 570.208 141.307 570.279Z" fill="#1E1E1E"/>
<path d="M160.478 564.881C160.621 565.093 160.164 565.589 159.405 565.873C158.647 566.156 157.975 566.043 157.975 565.802C157.975 565.561 158.475 565.278 159.133 565.037C159.792 564.796 160.35 564.668 160.478 564.881Z" fill="#1E1E1E"/>
<path d="M160.063 563.464C160.063 563.705 159.391 563.917 158.49 563.931C157.588 563.946 156.887 563.747 156.902 563.506C156.916 563.265 157.631 563.053 158.49 563.039C159.348 563.025 160.049 563.223 160.063 563.464Z" fill="#1E1E1E"/>
<path d="M236.79 128.117L237.033 123.682C237.469 121.228 237.656 118.736 237.591 116.244C237.588 115.006 237.365 113.778 236.933 112.616C236.46 111.144 235.786 109.743 234.93 108.451C234.716 108.237 234.577 107.962 234.531 107.665C234.485 107.368 234.536 107.064 234.676 106.798C234.817 106.531 235.039 106.316 235.311 106.182C235.582 106.049 235.89 106.005 236.189 106.056C237.448 106.382 240.023 109.343 241.196 113.764C242.37 118.185 245.374 111.639 246.504 109.272C247.634 106.906 251.526 99.7508 252.527 99.5241C253.958 99.1841 254.659 100.7 253.457 103.038C252.256 105.376 249.165 112.631 250.481 113.169C251.415 112.923 252.391 112.88 253.343 113.041C253.493 113.074 253.629 113.151 253.734 113.263C253.839 113.374 253.907 113.514 253.929 113.665C253.986 114.359 254.125 115.044 254.344 115.705C254.344 115.705 256.118 115.139 256.562 115.889C256.891 116.67 257.089 117.497 257.148 118.341C257.148 118.341 258.493 117.76 259.209 118.213C260.739 119.205 259.08 121.288 259.08 121.288C255.432 126.489 251.451 131.454 247.162 136.151L236.761 127.862" fill="#FFBE9D"/>
<path d="M109.532 127.82L109.36 184.341L133.782 185.46L134.483 171.716C134.483 171.716 143.181 173.43 145.427 165.425C146.858 160.324 146.5 120.834 146.5 120.834L109.532 127.82Z" fill="#FFBE9D"/>
<path d="M145.227 112.106C137.773 114.487 135.985 115.294 132.637 115.549C129.289 115.804 106.627 115.833 104.553 128.486C104.274 127.891 104.058 127.269 103.909 126.63C103.742 125.389 103.651 124.14 103.637 122.889C103.278 123.469 103.052 124.119 102.975 124.795C102.899 125.471 102.973 126.155 103.194 126.8C103.251 127.075 103.332 127.345 103.437 127.607C103.28 127.465 103.137 127.31 102.965 127.168C102.142 126.447 101.163 125.923 100.104 125.638C99.288 125.439 98.7587 125.482 98.6729 125.638C100.005 126.207 101.268 126.925 102.435 127.777C103.194 128.429 103.845 129.194 104.367 130.044C104.367 130.044 104.367 130.158 104.367 130.214C104.367 130.271 99.4883 128.089 100.776 136.845C102.064 145.602 107.829 153.041 108.544 167.38C108.544 167.38 128.76 169.76 132.365 162.067L135.384 153.239C135.384 153.239 130.519 152.446 131.092 148.578C131.879 143.207 136.013 143.08 139.103 145.46L142.652 136.052C142.652 136.052 151.636 130.214 152.151 126.488C152.666 122.761 152.609 109.712 145.227 112.106Z" fill="#1E1E1E"/>
<path d="M41.8042 553.701L38.2275 569.514L62.9351 572.546L63.8222 556.875L41.8042 553.701Z" fill="#8D9ED6"/>
<path d="M52.9641 554.481C52.95 556.92 52.6815 559.351 52.1629 561.735C51.8831 564.142 51.3607 566.516 50.6035 568.82C50.9024 563.955 51.6933 559.132 52.9641 554.424V554.481Z" fill="#1E1E1E"/>
<path d="M63.0356 570.86C61.8324 570.822 60.6352 570.675 59.459 570.421L50.875 569.004C47.5129 568.451 44.4942 567.899 42.291 567.417C41.1017 567.222 39.9364 566.904 38.8145 566.468C40.0189 566.49 41.2178 566.637 42.3911 566.907L50.9751 568.324C54.3229 568.877 57.3559 569.429 59.5591 569.911C60.7514 570.092 61.9181 570.411 63.0356 570.86Z" fill="#1E1E1E"/>
<path d="M78.4581 305.161L32.6768 559.751L71.8484 561.948C71.8484 561.948 113.452 342.496 119.561 341.958C122.122 341.717 123.152 560.162 125.198 559.751C127.244 559.341 167.531 560.46 167.531 560.46C167.531 560.46 162.081 301.93 162.181 301.93L78.4581 305.161Z" fill="#1E1E1E"/>
<path d="M136.329 336.602C136.329 336.8 129.576 338.401 121.163 340.172C112.751 341.944 105.884 343.219 105.841 343.006C105.798 342.794 112.594 341.207 121.006 339.436C129.418 337.665 136.286 336.403 136.329 336.602Z" fill="#2F326F"/>
<path d="M74.7529 546.999C74.7529 547.212 65.8971 547.098 54.9811 546.773C44.0651 546.447 35.2236 545.993 35.2236 545.795C35.2236 545.596 44.0795 545.696 54.9954 546.022C65.9114 546.347 74.7529 546.773 74.7529 546.999Z" fill="#2F326F"/>
<path d="M167.273 547.028C167.273 547.226 157.702 547.113 145.928 546.758C134.154 546.404 124.597 545.965 124.597 545.767C124.597 545.568 134.154 545.682 145.942 546.022C157.731 546.362 167.273 546.773 167.273 547.028Z" fill="#2F326F"/>
<path d="M98.0149 343.658C98.2152 343.658 88.5296 389.113 76.3689 445.081C64.2082 501.049 54.1936 546.404 53.9933 546.362C53.793 546.319 63.4786 500.921 75.6393 444.925C87.7999 388.929 97.8003 343.616 98.0149 343.658Z" fill="#2F326F"/>
<path d="M146.1 546.39C146.083 546.216 146.083 546.04 146.1 545.866C146.1 545.483 146.1 544.973 146.014 544.321C146.014 542.904 145.871 540.935 145.756 538.385C145.542 533.241 145.299 525.774 145.027 516.55C144.483 498.13 143.939 472.626 143.811 444.486C143.682 416.346 143.954 390.856 144.326 372.407C144.497 363.183 144.683 355.73 144.855 350.573C144.941 348.022 144.998 346.039 145.055 344.636C145.055 343.984 145.055 343.474 145.055 343.091C145.036 342.917 145.036 342.741 145.055 342.567C145.078 342.741 145.078 342.917 145.055 343.091V344.636C145.055 346.053 145.055 348.022 145.055 350.573C144.984 355.773 144.884 363.226 144.755 372.422C144.526 390.841 144.326 416.346 144.469 444.486C144.612 472.626 145.055 498.102 145.456 516.55C145.671 525.732 145.842 533.184 145.971 538.385C145.971 540.921 146.057 542.919 146.086 544.321C146.086 544.973 146.086 545.483 146.086 545.866C146.113 546.039 146.118 546.215 146.1 546.39Z" fill="#2F326F"/>
<path d="M232.684 126.842C232.684 126.842 202.354 172.183 199.779 174.691C197.203 177.199 149.705 182.187 149.705 182.187C135.113 178.928 87.9578 180.005 79.059 186.437C71.3478 190.688 61.9912 200.607 57.1698 224.028C48.9435 264.098 40.7172 278.863 57.1698 284.459C63.7476 286.681 70.5273 288.266 77.4138 289.192L76.956 307.328L162.224 302.072L157.932 257.042C157.417 244.389 157.173 231.212 156.859 219.536C162.195 217.539 211.782 198.949 215.187 198.467C218.592 197.985 251.254 138.489 251.254 138.489C252.227 131.419 232.684 126.842 232.684 126.842Z" fill="#8D9ED6"/>
<path d="M79.7596 208.839C79.9599 208.839 79.5021 230.914 78.7439 258.119C77.9856 285.324 77.1844 307.385 76.9698 307.385C76.7552 307.385 77.2274 285.31 77.9999 258.105C78.7725 230.9 79.5593 208.839 79.7596 208.839Z" fill="#1E1E1E"/>
<path d="M204.056 184.893C202.919 183.405 202.074 181.718 201.567 179.92C200.837 178.226 200.243 176.478 199.793 174.691C200.922 176.183 201.762 177.869 202.268 179.665C202.989 181.363 203.586 183.111 204.056 184.893Z" fill="#1E1E1E"/>
<path d="M207.461 181.039C206.014 180.232 204.653 179.283 203.398 178.205C201.973 177.305 200.747 176.129 199.793 174.748C201.235 175.563 202.595 176.512 203.856 177.582C205.273 178.492 206.497 179.666 207.461 181.039Z" fill="#1E1E1E"/>
<path d="M249.552 142.102C248.544 141.624 247.586 141.05 246.69 140.388C244.945 139.297 242.527 137.823 239.752 136.35C236.976 134.876 234.401 133.7 232.512 132.878C231.458 132.504 230.442 132.03 229.479 131.461C230.591 131.643 231.677 131.957 232.713 132.396C237.803 134.276 242.615 136.826 247.019 139.977C247.95 140.577 248.801 141.291 249.552 142.102Z" fill="#1E1E1E"/>
<path d="M78.7448 258.332C76.9681 258.437 75.1858 258.26 73.4656 257.807C71.6945 257.566 69.9857 256.993 68.4297 256.121C70.1863 256.289 71.9243 256.611 73.623 257.085C75.3727 257.306 77.0911 257.724 78.7448 258.332Z" fill="#1E1E1E"/>
<path d="M157.502 181.549C155.956 181.812 154.427 182.166 152.924 182.612C149.336 183.775 146.217 186.045 144.024 189.088C141.831 192.132 140.678 195.791 140.735 199.53C140.81 201.081 140.967 202.628 141.207 204.163C140.984 203.796 140.829 203.393 140.749 202.973C140.435 201.854 140.253 200.704 140.205 199.544C140.009 195.662 141.144 191.828 143.424 188.665C145.704 185.502 148.996 183.194 152.767 182.116C153.889 181.781 155.045 181.571 156.214 181.492C156.643 181.432 157.08 181.452 157.502 181.549Z" fill="#1E1E1E"/>
<path d="M162.238 302.129C162.238 302.341 143.168 303.673 119.633 305.118C96.0987 306.563 76.985 307.584 76.9707 307.385C76.9564 307.187 96.0415 305.841 119.59 304.381C143.139 302.922 162.224 301.93 162.238 302.129Z" fill="#1E1E1E"/>
<path d="M128.274 180.656C128.397 180.996 128.484 181.347 128.532 181.705C128.532 182.059 128.703 182.484 128.761 182.994C128.818 183.504 128.861 184.114 128.932 184.78C129.102 188.606 128.474 192.426 127.087 196.002C125.057 201.366 121.328 205.934 116.457 209.023C115.761 209.461 115.034 209.849 114.282 210.185C113.53 210.547 112.756 210.864 111.965 211.134C110.377 211.701 108.731 212.183 107.1 212.764C105.444 213.302 103.859 214.034 102.379 214.946C100.9 215.937 99.5912 217.157 98.5021 218.559C96.4622 221.476 94.5806 224.498 92.8653 227.613C91.219 230.592 88.8051 233.085 85.8693 234.839C83.0909 236.23 79.9659 236.796 76.8704 236.469C74.2 236.227 71.599 235.492 69.2021 234.301C65.7573 232.575 62.6286 230.291 59.9457 227.542C58.9871 226.593 58.2718 225.828 57.7997 225.318C57.5326 225.068 57.2972 224.787 57.0986 224.482C57.3801 224.706 57.6476 224.948 57.8998 225.204L60.1459 227.344C62.8697 229.977 65.993 232.171 69.4024 233.847C71.7569 234.966 74.297 235.653 76.899 235.874C79.86 236.145 82.8377 235.575 85.483 234.23C88.3081 232.529 90.6242 230.113 92.1929 227.23C93.9263 224.085 95.8368 221.039 97.9155 218.105C99.0567 216.641 100.429 215.369 101.979 214.337C103.506 213.388 105.144 212.626 106.857 212.069L111.721 210.468C112.498 210.208 113.258 209.9 113.996 209.547C114.726 209.236 115.43 208.866 116.099 208.442C120.886 205.456 124.577 201.025 126.629 195.803C128.043 192.305 128.739 188.562 128.675 184.794C128.675 184.128 128.675 183.547 128.589 183.023C128.503 182.498 128.46 182.073 128.417 181.733C128.338 181.379 128.29 181.019 128.274 180.656Z" fill="#1E1E1E"/>
<path d="M160.564 284.842C160.564 284.842 160.235 284.615 159.605 284.233C158.706 283.658 157.707 283.254 156.658 283.043C154.971 282.792 153.27 282.641 151.565 282.589C149.576 282.433 147.273 282.419 144.769 282.32C141.995 282.273 139.238 281.893 136.557 281.186C133.48 280.32 130.576 278.935 127.973 277.092C125.078 275.047 122.678 272.39 120.948 269.313C119.099 266.002 118.115 262.285 118.087 258.502C118.032 254.829 119.019 251.215 120.937 248.072C122.854 244.928 125.624 242.38 128.932 240.719C130.419 239.984 132.003 239.459 133.638 239.161C135.165 238.908 136.711 238.785 138.26 238.792C140.995 238.876 143.732 238.795 146.457 238.552C148.421 238.427 150.324 237.822 151.994 236.791C153.665 235.76 155.051 234.335 156.028 232.643C156.508 231.694 156.808 230.667 156.915 229.611C157.001 228.888 157.001 228.491 157.03 228.491C157.047 228.585 157.047 228.681 157.03 228.775C157.03 228.973 157.03 229.257 157.03 229.625C156.971 230.713 156.704 231.781 156.243 232.771C155.49 234.337 154.336 235.681 152.895 236.667C151 237.984 148.801 238.807 146.5 239.062C143.754 239.346 140.992 239.46 138.231 239.402C136.715 239.409 135.203 239.542 133.71 239.798C132.143 240.099 130.627 240.614 129.203 241.329C126.023 242.938 123.361 245.397 121.518 248.427C119.675 251.457 118.724 254.937 118.774 258.473C118.809 262.137 119.763 265.736 121.549 268.944C123.22 271.93 125.535 274.514 128.331 276.511C130.861 278.325 133.687 279.696 136.686 280.563C139.316 281.287 142.026 281.691 144.755 281.767C147.273 281.895 149.562 281.952 151.565 282.15C153.283 282.227 154.995 282.421 156.687 282.731C157.759 283.003 158.766 283.485 159.648 284.148C159.881 284.31 160.106 284.486 160.32 284.672C160.411 284.714 160.493 284.772 160.564 284.842Z" fill="#1E1E1E"/>
<path d="M113.18 305.586C113.219 304.572 113.161 303.557 113.008 302.554C112.477 299.832 110.897 297.423 108.602 295.837C107.847 295.342 107.029 294.947 106.17 294.661C105.234 294.401 104.276 294.221 103.309 294.123C101.05 294.072 98.8045 293.773 96.613 293.23C95.4094 292.832 94.31 292.173 93.3941 291.303C92.4698 290.383 91.7317 289.296 91.2194 288.101C90.184 285.595 89.8623 282.855 90.2895 280.181C91.0907 274.725 93.5085 270.035 93.9234 265.416C94.2157 263.26 94.0153 261.067 93.3368 258.998C92.7168 257.217 91.5579 255.668 90.0177 254.563C87.7595 252.926 84.9529 252.211 82.1776 252.565C81.1728 252.753 80.1866 253.028 79.2305 253.387C80.0939 252.821 81.0694 252.444 82.0918 252.281C84.9647 251.801 87.9129 252.468 90.2895 254.138C91.9431 255.288 93.1974 256.916 93.8805 258.799C94.6196 260.948 94.8544 263.235 94.5672 265.487C94.1523 270.262 91.7059 275.009 90.9905 280.28C90.5796 282.823 90.8764 285.429 91.8489 287.818C92.3275 288.927 93.0063 289.94 93.8519 290.807C94.6847 291.606 95.6865 292.211 96.7847 292.578C98.929 293.12 101.126 293.434 103.337 293.514C104.366 293.618 105.382 293.822 106.37 294.123C108.198 294.749 109.816 295.864 111.043 297.344C112.27 298.825 113.059 300.613 113.323 302.511C113.428 303.273 113.428 304.045 113.323 304.806C113.3 305.07 113.252 305.331 113.18 305.586Z" fill="#1E1E1E"/>
<path d="M110.319 227.188C110.319 227.188 110.62 226.876 111.335 226.664C112.361 226.399 113.446 226.474 114.425 226.876C115.111 227.156 115.727 227.581 116.228 228.123C116.793 228.77 117.152 229.569 117.258 230.419C117.387 231.395 117.221 232.388 116.781 233.27C116.34 234.153 115.645 234.887 114.783 235.378C113.885 235.8 112.879 235.945 111.896 235.794C110.914 235.642 110 235.201 109.275 234.528C108.64 233.939 108.201 233.173 108.016 232.331C107.874 231.607 107.908 230.858 108.116 230.149C108.399 229.133 109.032 228.246 109.904 227.641C110.199 227.395 110.564 227.246 110.949 227.216C110.949 227.216 110.605 227.429 110.076 227.868C109.357 228.504 108.857 229.346 108.645 230.277C108.461 230.944 108.468 231.648 108.665 232.311C108.862 232.974 109.242 233.57 109.761 234.032C110.388 234.591 111.167 234.956 112.002 235.079C112.836 235.203 113.689 235.08 114.454 234.726C115.189 234.3 115.784 233.671 116.165 232.917C116.546 232.162 116.697 231.314 116.6 230.475C116.518 229.791 116.255 229.139 115.838 228.587C115.421 228.035 114.865 227.601 114.225 227.33C113.335 226.908 112.337 226.764 111.363 226.919C110.705 227.06 110.348 227.245 110.319 227.188Z" fill="#1E1E1E"/>
<path d="M67.4276 287.591C67.2702 287.591 67.9427 285.097 68.1 281.045C68.1565 279.945 68.1565 278.843 68.1 277.743C68.1 276.553 67.8711 275.292 67.7137 273.96C67.2391 271.096 66.4771 268.286 65.439 265.572C64.3556 262.88 62.994 260.307 61.3759 257.892C60.6513 256.852 59.8729 255.849 59.0439 254.889C58.3413 254.027 57.5915 253.204 56.7978 252.423C53.9364 249.589 51.7332 248.172 51.8334 248.073C52.3772 248.322 52.8907 248.631 53.3642 248.994C53.9575 249.369 54.5262 249.781 55.0667 250.227C55.8018 250.797 56.5039 251.407 57.1697 252.055C58.0009 252.819 58.7844 253.633 59.516 254.492C60.3688 255.466 61.171 256.483 61.9195 257.538C63.592 259.981 64.9972 262.594 66.1114 265.331C67.1648 268.077 67.9178 270.928 68.3575 273.833C68.5393 275.11 68.6492 276.397 68.6866 277.687C68.7598 278.805 68.7598 279.927 68.6866 281.045C68.6343 281.966 68.534 282.883 68.3862 283.794C68.2993 284.487 68.1654 285.173 67.9856 285.848C67.8732 286.45 67.6858 287.035 67.4276 287.591Z" fill="#1E1E1E"/>
<path d="M215.874 197.9C215.141 197.641 214.429 197.329 213.743 196.965C212.383 196.342 210.423 195.449 207.905 194.542C204.983 193.47 201.951 192.714 198.864 192.289C195.095 191.754 191.258 191.942 187.561 192.842C183.833 193.701 180.387 195.486 177.547 198.028C175.254 200.1 173.502 202.692 172.439 205.58C171.741 207.533 171.449 209.605 171.581 211.673C171.695 213.09 171.924 213.94 171.853 213.954C171.781 213.968 171.753 213.77 171.638 213.387C171.485 212.834 171.371 212.27 171.295 211.701C171.042 209.582 171.267 207.433 171.953 205.41C172.967 202.397 174.734 199.687 177.089 197.532C179.969 194.89 183.487 193.026 187.304 192.119C191.097 191.205 195.033 191.032 198.892 191.609C202.019 192.08 205.081 192.903 208.02 194.061C209.981 194.827 211.892 195.712 213.743 196.71C214.401 197.064 214.916 197.348 215.245 197.56C215.474 197.634 215.688 197.749 215.874 197.9Z" fill="#1E1E1E"/>
<path d="M227.591 134.451C227.591 134.451 227.734 134.55 227.978 134.791C228.335 135.123 228.665 135.483 228.965 135.868C230.096 137.274 230.99 138.854 231.611 140.544C232.547 143.061 232.932 145.746 232.742 148.422C232.521 151.709 231.452 154.885 229.637 157.646C227.777 160.389 225.214 162.594 222.212 164.036C219.795 165.233 217.156 165.927 214.458 166.076C212.645 166.192 210.825 166.024 209.064 165.581C208.577 165.468 208.099 165.322 207.634 165.141C207.319 165.028 207.161 164.957 207.176 164.929C209.517 165.479 211.927 165.689 214.329 165.552C216.944 165.337 219.492 164.615 221.826 163.427C224.709 162.015 227.174 159.886 228.979 157.249C230.564 154.822 231.574 152.072 231.936 149.204C232.298 146.336 232.001 143.424 231.068 140.685C230.233 138.446 229.061 136.344 227.591 134.451Z" fill="#1E1E1E"/>
<path d="M134.182 180.458C130.052 180.863 125.9 181.019 121.75 180.926C117.604 181.08 113.453 180.99 109.317 180.657C113.448 180.252 117.6 180.095 121.75 180.189C125.896 180.035 130.047 180.125 134.182 180.458Z" fill="#1E1E1E"/>
</svg>
