<svg width="102" height="100" viewBox="0 0 102 100" fill="none" xmlns="http://www.w3.org/2000/svg">
<path d="M101.54 0H0.380981V100H101.54V0Z" fill="white"/>
<path d="M62.088 49.5C62.088 55.8 56.827 61 50.454 61C49.746 61 49.14 61.6 49.14 62.3C49.14 63 49.746 63.6 50.454 63.6C58.244 63.6 64.616 57.3 64.616 49.6C64.616 48.901 64.01 48.3 63.302 48.3C62.594 48.2 62.088 48.8 62.088 49.5Z" fill="#0C91DF"/>
<path d="M51.7702 36.8C51.7702 36.1 51.1632 35.5 50.4552 35.5C42.6662 35.5 36.2932 41.8 36.2932 49.5C36.2932 50.2 36.9002 50.8 37.6082 50.8C38.3162 50.8 38.9232 50.2 38.9232 49.5C38.8222 43.2 44.0822 38 50.4552 38C51.1622 38 51.7702 37.5 51.7702 36.8Z" fill="#0C91DF"/>
<path d="M57.1309 55.9002V52.7002C57.1309 50.3002 55.8159 48.2002 53.8939 47.0992C54.6019 46.2992 54.9059 45.2992 54.9059 44.2002C54.9059 41.7002 52.8829 39.7002 50.3539 39.7002C47.8249 39.7002 45.8009 41.7002 45.8009 44.2002C45.8009 45.3002 46.2059 46.3002 46.8129 47.0992C44.8909 48.2992 43.5769 50.2992 43.5769 52.7002V55.9002C43.5769 56.5992 44.1829 57.2002 44.8909 57.2002H55.6139C56.5239 57.1002 57.1309 56.6002 57.1309 55.9002ZM48.5319 44.2002C48.5319 43.0992 49.4429 42.3002 50.4539 42.3002C51.4659 42.3002 52.3769 43.2002 52.3769 44.2002C52.3769 45.2002 51.4659 46.0992 50.4539 46.0992C49.4429 46.1002 48.5319 45.2002 48.5319 44.2002ZM54.5009 54.6002H46.3069V52.7002C46.3069 50.5002 48.1279 48.7002 50.3539 48.7002C52.5799 48.7002 54.3999 50.5002 54.3999 52.7002V54.5992H54.5009V54.6002Z" fill="#0C91DF"/>
<path d="M77.565 45.7C75.845 45.7 74.428 46.8 73.922 48.2H71.09C70.786 43.5 68.864 39.3 65.931 36L67.954 34C69.37 34.7 71.191 34.4 72.405 33.3C73.922 31.8 73.922 29.401 72.405 27.901C70.887 26.401 68.46 26.401 66.942 27.901C65.728 29.1 65.526 30.8 66.234 32.3L64.211 34.3C60.873 31.401 56.624 29.5 51.87 29.2V26.4C53.387 25.9 54.398 24.5 54.398 22.799C54.398 20.699 52.678 18.999 50.554 18.999C48.43 18.999 46.71 20.699 46.71 22.799C46.71 24.499 47.822 25.899 49.238 26.4V29.2C44.484 29.5 40.235 31.4 36.897 34.3L34.874 32.3C35.582 30.901 35.278 29.1 34.166 27.901C32.648 26.401 30.221 26.401 28.703 27.901C27.185 29.401 27.185 31.8 28.703 33.3C29.917 34.5 31.637 34.7 33.154 34L35.177 36C32.243 39.3 30.322 43.5 30.018 48.2H27.185C26.679 46.7 25.263 45.7 23.543 45.7C21.419 45.7 19.699 47.4 19.699 49.5C19.699 51.6 21.419 53.3 23.543 53.3C25.263 53.3 26.679 52.2 27.185 50.8H30.018C30.322 55.5 32.244 59.7 35.177 63L33.154 65C31.738 64.3 29.917 64.6 28.703 65.7C27.185 67.2 27.185 69.599 28.703 71.099C30.221 72.599 32.648 72.599 34.166 71.099C35.38 69.9 35.582 68.2 34.874 66.7L36.897 64.7C40.235 67.599 44.484 69.5 49.238 69.8V72.6C47.721 73.1 46.71 74.5 46.71 76.201C46.71 78.301 48.43 80.001 50.554 80.001C52.678 80.001 54.398 78.301 54.398 76.201C54.398 74.501 53.286 73.1 51.87 72.6V69.8C56.624 69.5 60.873 67.6 64.211 64.7L66.234 66.7C65.526 68.099 65.83 69.9 66.942 71.099C68.459 72.599 70.887 72.599 72.405 71.099C73.922 69.599 73.922 67.2 72.405 65.7C71.191 64.5 69.471 64.3 67.954 65L65.931 63C68.865 59.7 70.786 55.5 71.09 50.8H73.922C74.428 52.3 75.845 53.3 77.565 53.3C79.689 53.3 81.409 51.6 81.409 49.5C81.409 47.4 79.689 45.7 77.565 45.7ZM69.573 29.3C70.281 29.3 70.888 29.901 70.888 30.6C70.888 30.901 70.786 31.3 70.484 31.5C69.978 32 69.169 32 68.663 31.5C68.461 31.3 68.259 30.9 68.259 30.6C68.259 29.9 68.865 29.3 69.573 29.3ZM50.454 21.5C51.162 21.5 51.769 22.1 51.769 22.8C51.769 23.5 51.162 24 50.454 24C49.746 24 49.14 23.4 49.14 22.7C49.14 22 49.746 21.5 50.454 21.5ZM30.425 31.5C29.919 31 29.919 30.2 30.425 29.7C30.931 29.2 31.74 29.2 32.246 29.7C32.752 30.2 32.752 31 32.246 31.5C31.74 32 30.931 32 30.425 31.5ZM23.344 50.8C22.636 50.8 22.029 50.2 22.029 49.5C22.029 48.8 22.637 48.2 23.344 48.2C24.052 48.2 24.659 48.8 24.659 49.5C24.659 50.2 24.052 50.8 23.344 50.8ZM32.246 69.3C31.74 69.8 30.931 69.8 30.425 69.3C29.919 68.8 29.919 68 30.425 67.5C30.931 67 31.74 67 32.246 67.5C32.752 68 32.752 68.8 32.246 69.3ZM50.454 77.5C49.746 77.5 49.14 76.9 49.14 76.2C49.14 75.5 49.746 74.9 50.454 74.9C51.162 74.9 51.769 75.5 51.769 76.2C51.77 77 51.162 77.5 50.454 77.5ZM70.889 68.4C70.889 69.099 70.282 69.7 69.574 69.7C68.866 69.7 68.259 69.099 68.259 68.4C68.259 67.7 68.865 67.099 69.574 67.099C70.281 67.1 70.889 67.7 70.889 68.4ZM50.454 67.3C40.541 67.3 32.448 59.3 32.448 49.5C32.448 39.7 40.541 31.7 50.454 31.7C60.368 31.7 68.461 39.7 68.461 49.5C68.461 59.3 60.368 67.3 50.454 67.3ZM77.565 50.8C76.857 50.8 76.25 50.2 76.25 49.5C76.25 48.8 76.857 48.2 77.565 48.2C78.273 48.2 78.879 48.8 78.879 49.5C78.779 50.2 78.273 50.8 77.565 50.8Z" fill="#0C91DF"/>
<path d="M60.6719 22.7002H58.1429V25.2002H60.6719V22.7002Z" fill="#0C91DF"/>
<path d="M65.831 22.7002H63.302V25.2002H65.831V22.7002Z" fill="#0C91DF"/>
<path d="M37.5049 73.7002H34.9769V76.2002H37.5049V73.7002Z" fill="#0C91DF"/>
<path d="M42.665 73.7002H40.137V76.2002H42.665V73.7002Z" fill="#0C91DF"/>
<path d="M77.4639 57.1001H74.9349V59.6001H77.4639V57.1001Z" fill="#0C91DF"/>
<path d="M77.4639 62.2002H74.9349V64.7002H77.4639V62.2002Z" fill="#0C91DF"/>
<path d="M25.873 34.2002H23.344V36.7002H25.873V34.2002Z" fill="#0C91DF"/>
<path d="M25.873 39.2998H23.344V41.7998H25.873V39.2998Z" fill="#0C91DF"/>
</svg>
