<svg width="103" height="103" viewBox="0 0 103 103" fill="none" xmlns="http://www.w3.org/2000/svg">
<path d="M102.079 0.919922H0.919922V102.079H102.079V0.919922Z" fill="white"/>
<path d="M65.4599 38.0459C55.7489 28.3349 39.9679 28.3349 30.2569 38.0459C20.5459 47.7569 20.5459 63.5379 30.2569 73.2489C39.9679 82.9599 55.7489 82.9599 65.4599 73.2489C75.1709 63.5379 75.1709 47.7569 65.4599 38.0459Z" fill="#C2E3F7"/>
<path d="M73.6535 71.7319C74.6655 71.7319 75.5764 72.5409 75.5764 73.6539C75.5764 74.6659 74.7665 75.5769 73.6535 75.5769C72.5415 75.5769 71.7314 74.6659 71.7314 73.6539C71.7324 72.5409 72.5415 71.7319 73.6535 71.7319Z" fill="#C2E3F7"/>
<path d="M62.2228 22.4668C63.2348 22.4668 64.1448 23.2758 64.1448 24.3888C64.1448 25.5018 63.3358 26.2098 62.2228 26.2098C61.1108 26.2098 60.3008 25.3998 60.3008 24.2878C60.3008 23.1748 61.2108 22.4668 62.2228 22.4668Z" fill="white"/>
<path d="M28.739 24.9961C30.155 24.9961 31.268 26.1091 31.268 27.5251C31.268 28.9411 30.155 30.0541 28.739 30.0541C27.323 30.0541 26.21 28.8401 26.21 27.5251C26.21 26.2111 27.323 24.9961 28.739 24.9961Z" fill="#C2E3F7"/>
<path d="M80.6342 29.6489L74.6653 35.5169H67.9893L72.2372 31.3689L73.8572 29.6489H80.6342Z" fill="white"/>
<path d="M73.8572 22.9731V29.6491L72.2372 31.3691L67.9893 35.5172V28.8412L73.8572 22.9731Z" fill="white"/>
<path d="M50.3876 53.1178C51.8036 54.5348 51.8036 56.7598 50.3876 58.1768C48.9716 59.5928 46.7456 59.5928 45.3296 58.1768C43.9136 56.7598 43.9136 54.5348 45.3296 53.1178C46.7466 51.8038 48.9716 51.8038 50.3876 53.1178Z" fill="white"/>
<path d="M50.387 53.1179C48.971 51.7019 46.745 51.7019 45.329 53.1179C43.913 54.5349 43.913 56.7599 45.329 58.1769C46.746 59.5929 48.971 59.5929 50.387 58.1769C51.804 56.7599 51.804 54.5349 50.387 53.1179ZM55.445 48.1618C59.593 52.3088 59.593 59.0869 55.445 63.2339C51.298 67.3809 44.52 67.3809 40.372 63.2339C36.225 59.0869 36.225 52.3088 40.372 48.1618C44.52 43.9128 51.196 43.9128 55.445 48.1618Z" fill="#C2E3F7"/>
<path d="M55.4451 48.1621C51.2981 44.0141 44.5201 44.0141 40.3721 48.1621C36.2251 52.3091 36.2251 59.0872 40.3721 63.2342C44.5191 67.3812 51.2971 67.3812 55.4451 63.2342C59.5931 59.0872 59.5931 52.3101 55.4451 48.1621ZM60.1991 43.3062C66.9771 50.0842 66.9771 61.1111 60.1991 67.9901C53.4221 74.7671 42.3951 74.7671 35.5171 67.9901C28.7391 61.2121 28.7391 50.1852 35.5171 43.3062C42.2941 36.5282 53.4221 36.5282 60.1991 43.3062Z" fill="white"/>
<path d="M78.1043 62.9312C78.8123 62.9312 79.4193 63.5382 79.4193 64.2462C79.4193 64.9542 78.8123 65.5612 78.1043 65.5612C77.3963 65.5612 76.7903 64.8522 76.7903 64.1442C76.7903 63.4362 77.3963 62.9312 78.1043 62.9312Z" fill="#0C91DF"/>
<path d="M76.7906 40.1699C77.4986 40.1699 78.1046 40.7779 78.1046 41.4859C78.1046 42.1939 77.4986 42.7999 76.7906 42.7999C76.0826 42.7999 75.4756 42.1939 75.4756 41.4859C75.5766 40.6759 76.0826 40.1699 76.7906 40.1699Z" fill="#0C91DF"/>
<path d="M38.8553 26.2109C39.5633 26.2109 40.1703 26.8179 40.1703 27.5259C40.1703 28.2339 39.5633 28.8409 38.8553 28.8409C38.1473 28.8409 37.5403 28.2339 37.5403 27.5259C37.6413 26.8169 38.1473 26.2109 38.8553 26.2109Z" fill="#0C91DF"/>
<path d="M27.525 75.5762C28.233 75.5762 28.84 76.1822 28.84 76.8902C28.84 77.5982 28.233 78.2052 27.525 78.2052C26.817 78.2052 26.21 77.4972 26.21 76.7892C26.21 76.0812 26.817 75.5762 27.525 75.5762Z" fill="#0C91DF"/>
<path d="M24.9976 35.1118C25.7056 35.1118 26.3126 35.7188 26.3126 36.4268C26.3126 37.1348 25.7056 37.7408 24.9976 37.7408C24.2896 37.7408 23.6826 37.1348 23.6826 36.4268C23.6816 35.6178 24.2886 35.1118 24.9976 35.1118Z" fill="#0C91DF"/>
<path d="M47.8579 60.503C46.5429 60.503 45.3289 59.997 44.4189 59.087C43.5079 58.177 43.002 56.963 43.002 55.648C43.002 54.333 43.5079 53.119 44.4189 52.209C45.3289 51.299 46.5429 50.793 47.8579 50.793C49.1729 50.793 50.3869 51.299 51.2969 52.209C52.2069 53.119 52.713 54.333 52.713 55.648C52.713 56.963 52.2069 58.177 51.2969 59.087C50.3869 59.997 49.1729 60.503 47.8579 60.503ZM47.8579 53.422C47.2509 53.422 46.644 53.624 46.239 54.13C45.834 54.535 45.5309 55.142 45.5309 55.749C45.5309 56.356 45.733 56.963 46.239 57.367C46.644 57.771 47.2509 58.075 47.8579 58.075C48.4649 58.075 49.072 57.873 49.476 57.367C49.881 56.963 50.1839 56.355 50.1839 55.749C50.1839 55.142 49.981 54.535 49.476 54.13C49.072 53.624 48.4649 53.422 47.8579 53.422Z" fill="#0C91DF"/>
<path d="M47.8579 67.584C44.6209 67.584 41.6869 66.3699 39.4609 64.0439C37.2359 61.8179 35.9209 58.7829 35.9209 55.6469C35.9209 52.5109 37.1349 49.4759 39.4609 47.2509C41.7879 45.0249 44.7209 43.7109 47.8579 43.7109C51.0949 43.7109 54.0279 44.9249 56.2539 47.2509C58.4799 49.4769 59.7939 52.5119 59.7939 55.6469C59.7939 58.8839 58.5799 61.8179 56.2539 64.0439C53.9279 66.2699 51.0949 67.584 47.8579 67.584ZM47.8579 46.239C45.3289 46.239 43.0029 47.2509 41.1809 48.9699C39.3599 50.7909 38.4499 53.1169 38.4499 55.6469C38.4499 58.1769 39.4609 60.5019 41.1809 62.3239C43.0019 64.1439 45.3289 65.0559 47.8579 65.0559C50.3869 65.0559 52.7129 64.0439 54.5339 62.3239C56.3549 60.5029 57.2649 58.1769 57.2649 55.6469C57.2649 53.1169 56.2539 50.7919 54.5339 48.9699C52.7139 47.2509 50.3869 46.239 47.8579 46.239Z" fill="#0C91DF"/>
<path d="M47.8578 74.3622C42.9008 74.3622 38.1468 72.4392 34.6058 68.8992C27.3228 61.6162 27.3228 49.7802 34.6058 42.4972C41.8888 35.2132 53.7248 35.2132 61.0078 42.4972C64.5488 46.0372 66.4708 50.6902 66.4708 55.7492C66.4708 60.7052 64.5488 65.4602 61.0078 69.0002C57.5688 72.4402 52.8148 74.3622 47.8578 74.3622ZM47.8578 39.4622C43.7108 39.4622 39.5628 41.0802 36.4268 44.2172C30.1548 50.4892 30.1548 60.8072 36.4268 67.0782C39.4618 70.1132 43.5078 71.8332 47.8578 71.8332C52.2078 71.8332 56.2538 70.1132 59.2888 67.0782C62.3238 64.0442 64.0438 59.9972 64.0438 55.6472C64.0438 51.2972 62.3238 47.2512 59.2888 44.2162C59.2888 44.2162 59.2888 44.2162 59.1878 44.1142C56.1528 41.0802 52.0058 39.4622 47.8578 39.4622Z" fill="#0C91DF"/>
<path d="M47.8582 81.8478C40.8782 81.8478 34.3032 79.1168 29.3462 74.1598C24.3892 69.2038 21.6582 62.6288 21.6582 55.6478C21.6582 48.6688 24.3892 42.0918 29.3462 37.1358C34.3032 32.1788 40.8782 29.4468 47.8582 29.4468C54.8382 29.4468 61.4142 32.1778 66.3702 37.1358C71.3272 42.0918 74.0592 48.6678 74.0592 55.6478C74.0592 62.6278 71.3282 69.2038 66.3702 74.1598C61.4142 79.1158 54.8382 81.8478 47.8582 81.8478ZM47.8582 31.9768C41.5862 31.9768 35.6182 34.4048 31.1672 38.8558C26.7162 43.4078 24.1872 49.3768 24.1872 55.6478C24.1872 61.9198 26.6152 67.8878 31.0662 72.3388C35.5172 76.7898 41.4852 79.2178 47.7572 79.2178C54.0292 79.2178 59.9972 76.7898 64.4482 72.3388C68.8992 67.8878 71.3272 61.9188 71.3272 55.6478C71.3272 49.3768 69.1012 43.4078 64.5502 38.9568C60.0992 34.5048 54.2322 31.9768 47.8582 31.9768Z" fill="#0C91DF"/>
<path d="M50.3871 54.434C50.0841 54.434 49.7802 54.332 49.4762 54.03C48.9712 53.524 48.9712 52.7151 49.4762 52.2091L59.2892 42.396L67.0782 34.607C67.5842 34.101 68.3931 34.101 68.8991 34.607C69.4051 35.113 69.4051 35.9221 68.8991 36.4281L61.1101 44.2171L51.2971 54.03C50.9941 54.332 50.6911 54.434 50.3871 54.434Z" fill="#0C91DF"/>
<path d="M74.6648 36.8321H67.9888C67.2808 36.8321 66.6738 36.2251 66.6738 35.5171V28.8411C66.6738 28.5371 66.7758 28.2341 67.0778 27.9301L72.9448 22.0631C73.3498 21.6591 73.8558 21.5571 74.3618 21.7601C74.8668 21.9621 75.1708 22.3671 75.1708 22.9741V28.4361H80.6338C81.1398 28.4361 81.6458 28.7401 81.8478 29.2451C82.0498 29.7511 81.9498 30.2571 81.5438 30.6611L75.6768 36.5281C75.3728 36.6301 75.0698 36.8321 74.6648 36.8321ZM71.0228 34.3031H74.1588L77.4978 30.9651H74.3618L71.0228 34.3031ZM69.3038 29.3461V32.4831L72.6428 29.1441V26.0081L69.3038 29.3461Z" fill="#0C91DF"/>
<path d="M28.7395 31.2691C26.6155 31.2691 24.8955 29.549 24.8955 27.425C24.8955 25.301 26.6155 23.5811 28.7395 23.5811C30.8645 23.5811 32.5835 25.301 32.5835 27.425C32.5835 29.549 30.8645 31.2691 28.7395 31.2691ZM28.7395 26.2111C28.0315 26.2111 27.4245 26.8181 27.4245 27.5261C27.4245 28.2341 28.0315 28.8411 28.7395 28.8411C29.4475 28.8411 30.0545 28.2341 30.0545 27.5261C30.0545 26.8171 29.4475 26.2111 28.7395 26.2111Z" fill="#0C91DF"/>
<path d="M73.6536 76.7901C71.9336 76.7901 70.5176 75.3731 70.5176 73.6531C70.5176 71.9331 71.9336 70.5171 73.6536 70.5171C75.3736 70.5171 76.7906 71.9331 76.7906 73.6531C76.7906 75.3731 75.3736 76.7901 73.6536 76.7901ZM73.6536 73.0471C73.3506 73.0471 73.0476 73.3511 73.0476 73.6531C73.0476 73.9571 73.3516 74.2611 73.6536 74.2611C73.9576 74.2611 74.2616 73.9571 74.2616 73.6531C74.2616 73.2491 73.9576 73.0471 73.6536 73.0471Z" fill="#0C91DF"/>
<path d="M62.2229 27.5249C60.5029 27.5249 59.0869 26.1079 59.0869 24.3889C59.0869 22.6699 60.5029 21.2529 62.2229 21.2529C63.9429 21.2529 65.3589 22.6689 65.3589 24.3889C65.3589 26.1089 63.9419 27.5249 62.2229 27.5249ZM62.2229 23.6809C61.9189 23.6809 61.6159 23.9849 61.6159 24.2879C61.6159 24.5919 61.9189 24.8949 62.2229 24.8949C62.5269 24.8949 62.8299 24.5919 62.8299 24.2879C62.8299 23.9849 62.6279 23.6809 62.2229 23.6809Z" fill="#0C91DF"/>
</svg>
