<svg width="102" height="100" viewBox="0 0 102 100" fill="none" xmlns="http://www.w3.org/2000/svg">
<path d="M101.54 0H0.381104V100H101.54V0Z" fill="white"/>
<path d="M71.2931 26.9997H67.4491V21.9997C67.4491 21.2997 66.8421 20.6997 66.1341 20.6997C33.7641 20.6997 35.6861 20.6997 35.5841 20.6997C35.3821 20.6997 35.0781 20.8997 34.9771 20.9997C26.7831 29.0997 27.3901 28.4997 27.2891 28.5997C27.0871 28.7997 26.985 29.0997 26.985 29.4007V42.2007C23.141 44.9007 20.6121 49.4007 20.6121 54.4007C20.6121 59.4007 23.141 63.9007 26.985 66.5997V73.2007C26.985 73.9007 27.592 74.5007 28.3 74.5007H34.6731V78.3007C34.6731 79.0007 35.2801 79.6007 35.9871 79.6007H71.3931C72.1011 79.6007 72.7081 79.0007 72.7081 78.3007V28.3007C72.6081 27.5997 72.0011 26.9997 71.2931 26.9997ZM34.6741 24.9997V28.1997H31.4371L34.6741 24.9997ZM23.2421 54.4997C23.2421 47.5997 28.9071 41.9997 35.8881 41.9997C42.8671 41.9997 48.5331 47.5997 48.5331 54.4997C48.5331 61.3997 42.8681 66.9997 35.8881 66.9997C28.9071 66.9997 23.2421 61.3997 23.2421 54.4997ZM29.6151 68.0997C31.5381 68.9997 33.6621 69.4997 35.9881 69.4997C44.3851 69.4997 51.162 62.7997 51.162 54.4997C51.162 46.1997 44.3851 39.4997 35.9881 39.4997C33.7631 39.4997 31.6381 39.9997 29.6151 40.8997V30.7997H35.9881C36.6971 30.7997 37.3031 30.1997 37.3031 29.4997V23.1997H65.1211V71.9997H29.7161V68.0997H29.6151ZM70.0791 76.9997H37.2031V74.4997H66.3361C67.0451 74.4997 67.6521 73.8997 67.6521 73.1997V29.4997H70.1811V76.9997H70.0791Z" fill="#0C91DF"/>
<path d="M39.731 61.9997V54.4997C39.731 52.3997 38.011 50.6997 35.887 50.6997C33.763 50.6997 32.043 52.3997 32.043 54.4997V61.9997C32.043 64.0997 33.763 65.7997 35.887 65.7997C38.011 65.7997 39.731 64.0997 39.731 61.9997ZM34.674 61.9997V54.4997C34.674 53.7997 35.281 53.1997 35.988 53.1997C36.697 53.1997 37.303 53.7997 37.303 54.4997V61.9997C37.303 62.6997 36.697 63.2997 35.988 63.2997C35.28 63.2997 34.674 62.6997 34.674 61.9997Z" fill="#0C91DF"/>
<path d="M39.731 46.9997C39.731 44.8997 38.011 43.1997 35.887 43.1997C33.763 43.1997 32.043 44.8997 32.043 46.9997C32.043 49.0997 33.763 50.7997 35.887 50.7997C38.011 50.7997 39.731 49.0997 39.731 46.9997ZM35.888 48.2997C35.18 48.2997 34.573 47.6997 34.573 46.9997C34.573 46.2997 35.18 45.6997 35.888 45.6997C36.596 45.6997 37.202 46.2997 37.202 46.9997C37.202 47.6997 36.596 48.2997 35.888 48.2997Z" fill="#0C91DF"/>
<path d="M75.138 45.6997C75.864 45.6997 76.452 46.2817 76.452 46.9997C76.452 47.7177 75.863 48.2997 75.138 48.2997C74.411 48.2997 73.823 47.7177 73.823 46.9997C73.822 46.2817 74.411 45.6997 75.138 45.6997Z" fill="#0C91DF"/>
<path d="M76.3521 33.1997C77.0781 33.1997 77.6661 33.7817 77.6661 34.4997C77.6661 35.2177 77.0771 35.7997 76.3521 35.7997C75.6251 35.7997 75.0371 35.2177 75.0371 34.4997C75.0361 33.7817 75.6251 33.1997 76.3521 33.1997Z" fill="#0C91DF"/>
<path d="M72.608 22C73.335 22 73.922 22.582 73.922 23.3C73.922 24.018 73.334 24.6 72.608 24.6C71.881 24.6 71.293 24.018 71.293 23.3C71.293 22.582 71.882 22 72.608 22Z" fill="#0C91DF"/>
<path d="M23.242 68.1997C23.969 68.1997 24.557 68.7817 24.557 69.4997C24.557 70.2177 23.968 70.7997 23.242 70.7997C22.516 70.7997 21.928 70.2177 21.928 69.4997C21.928 68.7817 22.517 68.1997 23.242 68.1997Z" fill="#0C91DF"/>
<path d="M23.242 35.6997C23.969 35.6997 24.557 36.2817 24.557 36.9997C24.557 37.7177 23.968 38.2997 23.242 38.2997C22.516 38.2997 21.928 37.7177 21.928 36.9997C21.928 36.2817 22.517 35.6997 23.242 35.6997Z" fill="#0C91DF"/>
<path d="M75.138 69.5C75.864 69.5 76.452 70.082 76.452 70.8C76.452 71.518 75.863 72.1 75.138 72.1C74.411 72.1 73.823 71.518 73.823 70.8C73.822 70.082 74.411 69.5 75.138 69.5Z" fill="#0C91DF"/>
<path d="M77.0601 58.2998C75.3401 58.2998 73.9231 59.6998 73.9231 61.4008C73.9231 63.0998 75.3401 64.5008 77.0601 64.5008C78.7801 64.5008 80.1961 63.1008 80.1961 61.4008C80.1951 59.6998 78.7791 58.2998 77.0601 58.2998ZM77.0601 61.9998C76.7561 61.9998 76.4531 61.6998 76.4531 61.3998C76.4531 61.0988 76.7571 60.7988 77.0601 60.7988C77.3631 60.7988 77.6661 61.0988 77.6661 61.3998C77.6661 61.6998 77.3621 61.9998 77.0601 61.9998Z" fill="#0C91DF"/>
<path d="M24.5581 26.9999C26.6821 26.9999 28.4021 25.2999 28.4021 23.1999C28.4021 21.0999 26.6821 19.3999 24.5581 19.3999C22.4341 19.3999 20.7141 21.0999 20.7141 23.1999C20.7141 25.2999 22.4341 26.9999 24.5581 26.9999ZM24.5581 21.9999C25.2661 21.9999 25.8731 22.5999 25.8731 23.2999C25.8731 23.9999 25.2661 24.5999 24.5581 24.5999C23.8501 24.5999 23.2431 23.9999 23.2431 23.2999C23.2421 22.5999 23.8501 21.9999 24.5581 21.9999Z" fill="#0C91DF"/>
<path d="M30.5261 49.1999C31.0321 48.6999 31.0321 47.8999 30.5261 47.3999C30.0201 46.8999 29.2101 46.8999 28.7051 47.3999C24.7601 51.2989 24.7601 57.5989 28.7051 61.4999C29.2111 61.9999 30.0201 61.9999 30.5261 61.4999C31.0321 60.9999 31.0321 60.1999 30.5261 59.6999C27.5931 56.8999 27.5931 52.0999 30.5261 49.1999Z" fill="#0C91DF"/>
<path d="M41.2491 61.6C41.7551 62.1 42.5641 62.1 43.0701 61.6C47.0141 57.701 47.0141 51.401 43.0701 47.5C42.5641 47 41.7551 47 41.2491 47.5C40.7431 48 40.7431 48.8 41.2491 49.3C44.1831 52.2 44.1831 57 41.2491 59.901C40.7431 60.3 40.7431 61.1 41.2491 61.6Z" fill="#0C91DF"/>
<path d="M39.731 33.2997H61.278C61.986 33.2997 62.593 32.6997 62.593 31.9997C62.593 31.2997 61.986 30.6997 61.278 30.6997H39.731C39.023 30.6997 38.417 31.2997 38.417 31.9997C38.417 32.6997 39.023 33.2997 39.731 33.2997Z" fill="#0C91DF"/>
<path d="M62.492 35.8C62.492 35.1 61.886 34.5 61.178 34.5H39.732C39.024 34.5 38.418 35.1 38.418 35.8C38.418 36.5 39.024 37.1 39.732 37.1H61.279C61.886 37 62.492 36.4 62.492 35.8Z" fill="#0C91DF"/>
<path d="M62.4922 39.4997C62.4922 38.7997 61.8862 38.1997 61.1782 38.1997H47.3192C46.6112 38.1997 46.0042 38.7997 46.0042 39.4997C46.0042 40.1997 46.6112 40.7997 47.3192 40.7997H61.2791C61.8861 40.7997 62.4922 40.1997 62.4922 39.4997Z" fill="#0C91DF"/>
<path d="M61.1783 44.4999C61.8863 44.4999 62.4923 43.8999 62.4923 43.1999C62.4923 42.4999 61.8863 41.8999 61.1783 41.8999H51.0623C50.3543 41.8999 49.7473 42.4999 49.7473 43.1999C49.7473 43.8999 50.3543 44.4999 51.0623 44.4999H61.1783Z" fill="#0C91DF"/>
<path d="M61.1781 45.7998H53.5911C52.8821 45.7998 52.2761 46.4008 52.2761 47.0998C52.2761 47.7998 52.8821 48.4008 53.5911 48.4008H61.1781C61.8861 48.4008 62.4921 47.7998 62.4921 47.0998C62.4921 46.2998 61.8861 45.7998 61.1781 45.7998Z" fill="#0C91DF"/>
<path d="M61.178 49.5H54.805C54.096 49.5 53.49 50.1 53.49 50.8C53.49 51.5 54.096 52.1 54.805 52.1H61.178C61.886 52.1 62.492 51.5 62.492 50.8C62.492 50.1 61.886 49.5 61.178 49.5Z" fill="#0C91DF"/>
<path d="M61.178 53.2998H54.805C54.096 53.2998 53.49 53.9008 53.49 54.5998C53.49 55.2998 54.096 55.9008 54.805 55.9008H61.178C61.886 55.9008 62.492 55.2998 62.492 54.5998C62.492 53.8998 61.886 53.2998 61.178 53.2998Z" fill="#0C91DF"/>
<path d="M61.1781 57H53.5911C52.8821 57 52.2761 57.6 52.2761 58.3C52.2761 59 52.8821 59.6 53.5911 59.6H61.1781C61.8861 59.6 62.4921 59 62.4921 58.3C62.4921 57.6 61.8861 57 61.1781 57Z" fill="#0C91DF"/>
<path d="M52.377 63.2997H61.278C61.986 63.2997 62.593 62.6997 62.593 61.9997C62.593 61.2997 61.986 60.6997 61.278 60.6997H52.377C51.668 60.6997 51.061 61.2997 51.061 61.9997C51.061 62.6997 51.668 63.2997 52.377 63.2997Z" fill="#0C91DF"/>
<path d="M49.848 66.9999H61.279C61.987 66.9999 62.594 66.3999 62.594 65.6999C62.594 64.9999 61.987 64.3999 61.279 64.3999H49.848C49.14 64.3999 48.533 64.9999 48.533 65.6999C48.533 66.3999 49.14 66.9999 49.848 66.9999Z" fill="#0C91DF"/>
</svg>
