<svg width="102" height="100" viewBox="0 0 102 100" fill="none" xmlns="http://www.w3.org/2000/svg">
<path d="M101.497 0H0.50293V100H101.497V0Z" fill="white"/>
<path d="M43.2236 47.7998H45.6466V53.9998H47.4646V47.7998H49.8886V46.2998H43.2236V47.7998Z" fill="#0C91DF"/>
<path d="M53.7272 51.7998L51.9092 46.2998H49.9902L53.0202 53.9998H54.5352L57.4642 46.2998H55.5453L53.7272 51.7998Z" fill="#0C91DF"/>
<path d="M50.3939 23.7998C48.3739 23.7998 46.4548 24.1998 44.8388 24.9998C44.7378 24.9998 44.7379 24.9998 44.7379 25.0998C38.0729 28.2998 35.4459 36.0998 38.4759 42.4998C37.7689 42.4998 37.1628 43.0998 37.1628 43.7998V56.2998C37.1628 56.9998 37.7689 57.5998 38.4759 57.5998H41.2029L44.2328 73.9998C44.3338 74.5998 44.8389 74.9998 45.4449 74.9998H55.3419C55.9479 74.9998 56.4528 74.5998 56.5538 73.9998L59.6848 57.4998H62.4109C63.1179 57.4998 63.7249 56.8998 63.7249 56.1998V43.7998C63.7249 43.0998 63.1179 42.4998 62.4109 42.4998C63.2199 40.7998 63.7249 38.7998 63.7249 36.8998C63.6239 29.5998 57.6659 23.7998 50.3939 23.7998ZM54.2318 42.4998L39.9919 34.0998C40.1939 33.2998 40.4969 32.4998 41.0019 31.7998L59.1808 42.5998H54.2318V42.4998ZM60.6949 33.7998L48.2729 26.4008C53.7269 25.3998 59.0799 28.5998 60.6949 33.7998ZM45.1429 27.5998L61.0999 36.9998C61.0999 38.1998 60.8978 39.2998 60.4938 40.3998L42.4168 29.6998C43.2238 28.8998 44.1329 28.0998 45.1429 27.5998ZM39.6888 36.7998L49.3839 42.4998H41.4048C40.1938 40.7998 39.5878 38.8998 39.6888 36.7998ZM54.2318 72.4998H46.4558L43.6278 57.4998H57.0598L54.2318 72.4998ZM61.0999 54.9998C56.0499 54.9998 43.8299 54.9998 39.5879 54.9998V44.9998C42.1129 44.9998 58.5739 44.9998 61.0999 44.9998V54.9998Z" fill="#0C91DF"/>
<path d="M74.5309 31.0999C74.0259 30.4999 73.2179 30.4999 72.7139 30.9999C72.0069 31.5999 70.8959 31.5999 70.2899 30.8999C69.5829 30.1999 69.5829 29.1999 70.1879 28.4999C70.6939 27.9999 70.5919 27.0999 70.0869 26.6999C59.0789 17.7999 43.1219 17.7999 32.0119 26.6999C31.4069 27.1999 31.4069 27.9999 31.9109 28.4999C32.5169 29.1999 32.5169 30.2999 31.8099 30.8999C31.1029 31.5989 29.9919 31.5989 29.3859 30.9999C28.8809 30.4999 27.9719 30.5999 27.5679 31.0999C18.5789 41.9999 18.5789 57.7999 27.5679 68.7999C27.9719 69.4009 28.8809 69.4009 29.3859 68.9009C30.0929 68.2999 31.2039 68.2999 31.8099 69.0009C32.5169 69.7009 32.5169 70.7009 31.9109 71.4009C31.4059 71.9009 31.5069 72.7999 32.0119 73.2009C43.0199 82.0999 58.9769 82.0999 70.0869 73.2009C70.6929 72.7009 70.6929 71.9009 70.1879 71.4009C69.5829 70.7009 69.5829 69.5999 70.2899 69.0009C70.9969 68.3009 72.1069 68.3009 72.7139 68.9009C73.2189 69.4009 74.1279 69.2999 74.5309 68.7999C83.5209 57.8999 83.6209 42.1999 74.5309 31.0999ZM73.3189 66.3999C72.8139 66.1999 72.2089 65.9999 71.6019 65.9999C68.4709 65.9999 66.3509 69.1999 67.6639 71.9999C57.8679 79.1999 44.3339 79.2999 34.5379 71.9999C35.2449 70.3999 34.9419 68.4999 33.6289 67.1999C32.3159 65.8999 30.3969 65.5989 28.7809 66.2999C21.5099 56.5999 21.4079 43.1999 28.7809 33.4999C30.3969 34.1999 32.3159 33.8999 33.6289 32.5999C34.9419 31.2999 35.2449 29.4009 34.5379 27.7999C44.3339 20.5999 57.8679 20.4999 67.6639 27.7999C66.3509 30.5999 68.4719 33.7999 71.6019 33.7999C72.2089 33.7999 72.8139 33.6999 73.3189 33.4009C80.5909 43.2999 80.5909 56.6999 73.3189 66.3999Z" fill="#0C91DF"/>
<path d="M34.1342 34.9C33.6292 34.5 32.8213 34.5 32.3163 35.099C25.2473 43.799 25.1463 56.2 32.3163 64.999C32.5183 65.299 32.9222 65.499 33.3262 65.499C34.3362 65.499 34.9422 64.299 34.3362 63.499C27.9732 55.699 27.9732 44.599 34.3362 36.799C34.7402 36.1 34.6392 35.3 34.1342 34.9Z" fill="#0C91DF"/>
<path d="M69.684 35.0999C69.281 34.5999 68.472 34.4999 67.867 34.9009C67.362 35.2999 67.261 36.0999 67.665 36.7009C74.027 44.5009 74.027 55.5999 67.665 63.4009C66.958 64.2009 67.564 65.4009 68.675 65.4009C69.079 65.4009 69.382 65.2009 69.685 64.9009C76.754 56.2999 76.754 43.7999 69.684 35.0999Z" fill="#0C91DF"/>
<path d="M77.5611 71.1997C78.2861 71.1997 78.8741 71.7817 78.8741 72.4997C78.8741 73.2177 78.2861 73.7997 77.5611 73.7997C76.8351 73.7997 76.248 73.2177 76.248 72.4997C76.248 71.7817 76.8361 71.1997 77.5611 71.1997Z" fill="#0C91DF"/>
<path d="M24.5396 28.6997C25.2646 28.6997 25.8526 29.2817 25.8526 29.9997C25.8526 30.7177 25.2656 31.2997 24.5396 31.2997C23.8146 31.2997 23.2266 30.7177 23.2266 29.9997C23.2266 29.2817 23.8146 28.6997 24.5396 28.6997Z" fill="#0C91DF"/>
<path d="M28.2769 22.5C29.0019 22.5 29.5899 23.082 29.5899 23.8C29.5899 24.518 29.0029 25.1 28.2769 25.1C27.5519 25.1 26.9639 24.518 26.9639 23.8C26.9639 23.082 27.5519 22.5 28.2769 22.5Z" fill="#0C91DF"/>
<path d="M71.199 75C71.924 75 72.512 75.582 72.512 76.3C72.512 77.018 71.924 77.6 71.199 77.6C70.473 77.6 69.886 77.018 69.886 76.3C69.886 75.582 70.474 75 71.199 75Z" fill="#0C91DF"/>
<path d="M27.0646 71.2998C24.9436 71.2998 23.2266 72.9998 23.2266 75.0998C23.2266 77.2008 24.9436 78.9008 27.0646 78.9008C29.1856 78.9008 30.8006 77.0998 30.8006 75.0008C30.8006 72.9018 29.0846 71.2998 27.0646 71.2998ZM27.0646 76.2998C26.3576 76.2998 25.7516 75.6998 25.7516 74.9998C25.7516 74.2998 26.3576 73.6998 27.0646 73.6998C27.7716 73.6998 28.3776 74.2998 28.3776 74.9998C28.2766 75.6998 27.6706 76.2998 27.0646 76.2998Z" fill="#0C91DF"/>
<path d="M75.643 27.4998C77.36 27.4998 78.774 26.0998 78.774 24.3998C78.774 22.6998 77.36 21.2988 75.643 21.2988C73.926 21.2988 72.512 22.6988 72.512 24.3998C72.512 26.0998 73.926 27.4998 75.643 27.4998ZM75.643 23.7998C75.946 23.7998 76.249 24.0998 76.249 24.4008C76.249 24.7008 75.946 25.0008 75.643 25.0008C75.34 25.0008 75.037 24.7008 75.037 24.4008C75.036 24.0998 75.238 23.7998 75.643 23.7998Z" fill="#0C91DF"/>
</svg>
