<svg width="103" height="100" viewBox="0 0 103 100" fill="none" xmlns="http://www.w3.org/2000/svg">
<path d="M102.079 0H0.919922V100H102.079V0Z" fill="white"/>
<path d="M51.6008 42.8999H48.6667V46.2989H51.6008V42.8999Z" fill="#0C91DF"/>
<path d="M53.3207 30.4998C50.7917 29.7998 47.9597 30.6998 46.8467 33.0998L49.1737 34.7008C49.5787 34.2008 49.6797 34.0008 49.9827 33.7008C50.1857 33.5008 50.3877 33.4008 50.5897 33.3008C50.7927 33.2008 51.0957 33.1008 51.3997 33.1008C51.9057 33.1008 52.3097 33.2018 52.6137 33.5008C53.0187 33.8008 53.1197 34.2008 53.1197 34.7008C53.1197 35.0998 53.0187 35.4008 52.8157 35.7008C52.2087 36.5008 51.2987 37.0008 50.2867 37.5008C48.8707 38.3008 48.4657 39.3008 48.4657 40.9008H51.4997C51.4997 39.0998 54.4337 39.0998 55.8497 36.9008C56.1537 36.2998 56.3557 35.5998 56.3557 34.7998C56.3557 33.9998 56.2547 33.2998 55.9517 32.6998C55.4447 31.5998 54.5347 30.8998 53.3207 30.4998Z" fill="#0C91DF"/>
<path d="M51.6008 19.5C41.1808 19.5 32.5828 27.9 32.5828 38.3C32.5828 48.2 40.3718 56.401 50.2858 57V58.5C48.0608 59.1 46.4417 61 46.4417 63.3V74.6C46.4417 77.401 48.6678 79.6 51.4998 79.6C54.3318 79.6 56.5578 77.401 56.5578 74.6V63.2C56.5578 60.9 54.9397 58.9 52.7137 58.4V57C62.6277 56.4 70.4167 48.2 70.4167 38.3C70.6187 27.9 62.1218 19.5 51.6008 19.5ZM54.1298 63.3V74.6C54.1298 76 53.0178 77.1 51.6008 77.1C50.1848 77.1 49.0717 76 49.0717 74.6V63.3C49.0717 61.901 50.1848 60.8 51.6008 60.8C53.0178 60.8 54.1298 61.9 54.1298 63.3ZM51.6008 54.5C42.4968 54.5 35.1118 47.2 35.1118 38.2C35.1118 29.2 42.5978 22 51.6008 22C60.7048 22 68.0898 29.3 68.0898 38.3C68.0898 47.3 60.7048 54.5 51.6008 54.5Z" fill="#0C91DF"/>
<path d="M51.6009 24.5C43.9129 24.5 37.6409 30.7 37.6409 38.3C37.6409 45.901 43.9129 52 51.6009 52C59.2889 52 65.5609 45.8 65.5609 38.2C65.5609 30.6 59.2889 24.5 51.6009 24.5ZM51.6009 49.5C45.3289 49.5 40.1699 44.5 40.1699 38.2C40.1699 31.9 45.3289 27 51.6009 27C57.8729 27 63.0319 32 63.0319 38.3C63.0319 44.6 57.8729 49.5 51.6009 49.5Z" fill="#0C91DF"/>
<path d="M42.7995 62H27.6255C26.9175 62 26.3105 62.6 26.3105 63.3C26.3105 64 26.9175 64.6 27.6255 64.6H42.7995C43.5075 64.6 44.1145 64 44.1145 63.3C44.1145 62.6 43.5075 62 42.7995 62Z" fill="#0C91DF"/>
<path d="M33.8977 65.7998H27.5247C26.8167 65.7998 26.2097 66.4008 26.2097 67.0998C26.2097 67.7998 26.8167 68.4008 27.5247 68.4008H33.8977C34.6057 68.4008 35.2127 67.7998 35.2127 67.0998C35.2127 66.2998 34.6067 65.7998 33.8977 65.7998Z" fill="#0C91DF"/>
<path d="M73.1479 62C70.3149 62 68.0889 64.2 68.0889 67C68.0889 69.8 70.3139 72 73.1479 72C75.9799 72 78.2059 69.8 78.2059 67C78.2059 64.2 75.8789 62 73.1479 62ZM73.1479 69.5C71.7309 69.5 70.6189 68.4 70.6189 67C70.6189 65.6 71.7309 64.5 73.1479 64.5C74.5639 64.5 75.6759 65.6 75.6759 67C75.6759 68.4 74.5639 69.5 73.1479 69.5Z" fill="#0C91DF"/>
<path d="M30.1548 34.5002C30.1548 32.4002 28.4348 30.7002 26.3108 30.7002C24.1868 30.7002 22.4668 32.4002 22.4668 34.5002C22.4668 36.6002 24.1868 38.3002 26.3108 38.3002C28.4358 38.3002 30.1548 36.6002 30.1548 34.5002ZM25.0978 34.5002C25.0978 33.8002 25.7048 33.2002 26.4128 33.2002C27.1208 33.2002 27.7278 33.8002 27.7278 34.5002C27.7278 35.2002 27.1208 35.8002 26.4128 35.8002C25.7048 35.8002 25.0978 35.2002 25.0978 34.5002Z" fill="#0C91DF"/>
<path d="M78.2059 54.5C78.9329 54.5 79.5209 55.082 79.5209 55.8C79.5209 56.518 78.9319 57.1 78.2059 57.1C77.4789 57.1 76.8909 56.518 76.8909 55.8C76.8909 55.082 77.4789 54.5 78.2059 54.5Z" fill="#0C91DF"/>
<path d="M74.3619 25.7002C75.0879 25.7002 75.6759 26.2822 75.6759 27.0002C75.6759 27.7182 75.0869 28.3002 74.3619 28.3002C73.6349 28.3002 73.0469 27.7182 73.0469 27.0002C73.0469 26.2822 73.6359 25.7002 74.3619 25.7002Z" fill="#0C91DF"/>
<path d="M63.0318 63.2002C63.7588 63.2002 64.3468 63.7822 64.3468 64.5002C64.3468 65.2182 63.7578 65.8002 63.0318 65.8002C62.3048 65.8002 61.7168 65.2182 61.7168 64.5002C61.7168 63.7822 62.3058 63.2002 63.0318 63.2002Z" fill="#0C91DF"/>
<path d="M31.3687 52C32.0957 52 32.6847 52.582 32.6847 53.3C32.6847 54.018 32.0957 54.6 31.3687 54.6C30.6427 54.6 30.0537 54.018 30.0537 53.3C30.0537 52.582 30.6427 52 31.3687 52Z" fill="#0C91DF"/>
<path d="M32.6847 22C33.4107 22 33.9997 22.582 33.9997 23.3C33.9997 24.018 33.4107 24.6 32.6847 24.6C31.9577 24.6 31.3687 24.018 31.3687 23.3C31.3687 22.582 31.9577 22 32.6847 22Z" fill="#0C91DF"/>
<path d="M30.1548 73.2002C30.8818 73.2002 31.4698 73.7822 31.4698 74.5002C31.4698 75.2182 30.8808 75.8002 30.1548 75.8002C29.4288 75.8002 28.8398 75.2182 28.8398 74.5002C28.8398 73.7822 29.4288 73.2002 30.1548 73.2002Z" fill="#0C91DF"/>
</svg>
