<svg width="102" height="100" viewBox="0 0 102 100" fill="none" xmlns="http://www.w3.org/2000/svg">
<path d="M101.54 0H0.381104V100H101.54V0Z" fill="white"/>
<path d="M46.0041 54.4003C46.7121 54.4003 47.3191 53.7992 47.3191 53.0992V49.4003H63.5041C66.8421 52.2993 71.6981 56.5002 71.7991 56.5992C72.0011 56.7992 72.3051 56.9003 72.6091 56.9003C73.3171 56.9003 73.8231 56.2992 73.8231 55.5992V49.2993H76.3521C77.0601 49.2993 77.6661 48.6993 77.6661 47.9993V22.9993C77.6661 22.2993 77.0601 21.6992 76.3521 21.6992H37.2041C36.4951 21.6992 35.8891 22.2993 35.8891 22.9993V26.9993C29.3141 26.7993 23.9531 31.9993 23.9531 38.4993C23.9531 40.1993 24.2561 41.7992 24.9641 43.1992C24.3581 43.2992 23.9531 43.7992 23.9531 44.3992V53.0983C23.9531 53.7983 24.5591 54.3992 25.2671 54.3992H27.3921L30.1221 77.0983C30.2241 77.6993 30.7291 78.1992 31.3361 78.1992H39.9351C40.5421 78.1992 41.1491 77.6993 41.1491 77.0983L43.8801 54.3992H46.0041V54.4003ZM36.8991 43.3002V40.4003H39.3271V43.2993L36.8991 43.3002ZM31.9421 43.3002V40.4003H34.3701V43.2993L31.9421 43.3002ZM27.7951 43.3002C27.1881 42.4012 26.8851 41.4012 26.6821 40.4012H29.4141V43.3002H27.7951ZM34.3701 34.9003V37.7993H31.9421V34.9003H34.3701ZM36.8991 29.6002C39.0231 29.9012 40.9451 30.9012 42.3611 32.4012H36.8991V29.6002ZM43.9801 34.9003C44.3841 35.7993 44.6881 36.7993 44.6881 37.7993H41.8561V34.9003H43.9801ZM39.3271 34.9003V37.7993H36.8991V34.9003H39.3271ZM29.4131 37.8002H26.4791C26.5811 36.8002 26.7831 35.8002 27.1871 34.9012H29.4131V37.8002ZM41.8561 40.3002H44.5861C44.3841 41.3002 43.9801 42.3003 43.4741 43.2003H41.8561V40.3002ZM38.4171 24.5002H75.1371V47.0002H72.6091C71.9011 47.0002 71.2941 47.6002 71.2941 48.3002V53.0002C69.4741 51.4002 66.8431 49.1002 64.8201 47.3002C64.6171 47.1002 64.3141 47.0002 64.0101 47.0002H47.3191V44.5002C47.3191 43.9002 46.9151 43.4002 46.3071 43.3002C47.0151 41.8002 47.3191 40.2002 47.3191 38.6002C47.3191 33.3002 43.5771 28.7012 38.4181 27.4012V24.5002H38.4171ZM34.3701 29.6002V32.4012H28.9071C30.3241 30.9002 32.2461 29.9002 34.3701 29.6002ZM26.4791 45.8002C31.6381 45.8002 39.6301 45.8002 44.7901 45.8002V52.0002C41.0471 52.0002 30.3241 52.0002 26.4791 52.0002C26.4791 51.9002 26.4791 45.8002 26.4791 45.8002ZM38.7201 75.8002H32.4491L29.9201 54.5002H41.3521L38.7201 75.8002Z" fill="#0C91DF"/>
<path d="M34.37 66V67.2C34.37 67.9 34.977 68.5 35.685 68.5C36.393 68.5 36.999 67.9 36.999 67.2V66C38.011 65.5 38.618 64.5 38.618 63.4C38.618 61.799 37.303 60.5 35.684 60.5C34.065 60.5 32.75 61.9 32.75 63.5C32.752 64.6 33.358 65.6 34.37 66ZM35.584 63.1C35.786 63.1 35.988 63.3 35.988 63.5C35.988 63.7 35.786 63.9 35.584 63.9C35.382 63.9 35.18 63.7 35.18 63.5C35.18 63.3 35.382 63.1 35.584 63.1Z" fill="#0C91DF"/>
<path d="M67.5511 58.3003H47.3192C46.6112 58.3003 46.0042 58.9013 46.0042 59.6003V77.0003C46.0042 77.5003 46.3071 78.0003 46.8131 78.2003C47.3191 78.4003 47.8252 78.3003 48.2292 77.9003L51.6692 74.5003H67.5522C68.2602 74.5003 68.8661 73.9003 68.8661 73.2003V59.5003C68.7651 58.8003 68.2591 58.3003 67.5511 58.3003ZM66.2351 72.0003H51.0612C50.7572 72.0003 50.4542 72.1003 50.1512 72.4003L48.5322 74.0003V60.8003H66.2351V72.0003Z" fill="#0C91DF"/>
<path d="M51.3651 67.6003H52.1741L53.2871 69.4013H54.8051L53.5911 67.3003C54.1981 67.0003 54.5011 66.3003 54.5011 65.7003C54.5011 64.8003 53.6911 63.8003 52.6801 63.8003H50.1521V69.4013H51.4661L51.3651 67.6003ZM51.3651 65.0003H52.5791C52.6801 65.0003 52.8821 65.1003 52.9831 65.2003C53.0851 65.3003 53.1851 65.5003 53.1851 65.8003C53.1851 66.0003 53.0841 66.2003 52.9831 66.4013C52.8811 66.5013 52.7811 66.6003 52.5791 66.6003H51.3651V65.0003Z" fill="#0C91DF"/>
<path d="M59.4581 68.3003H56.7271V67.1003H59.0531V66.1003H56.7271V65.0003H59.3561V63.8003H55.4111V69.5003H59.4581V68.3003Z" fill="#0C91DF"/>
<path d="M61.4799 69.3004C62.7949 69.9014 64.5149 69.3004 65.0209 68.2004L63.9079 67.5994C63.8069 67.7004 63.8069 67.9005 63.7059 67.9995C63.3019 68.3995 62.4919 68.4994 62.0879 68.2994C61.2779 67.9004 61.0759 66.9994 61.2779 66.0994C61.3799 65.7004 61.6819 65.4004 61.9859 65.2004C62.2899 65.0004 62.6939 65.0004 62.9979 65.0994C63.1999 65.0994 63.5039 65.2995 63.7059 65.4995C63.8079 65.5995 63.9079 65.6994 63.9079 65.8994L64.9199 65.1994C64.7179 64.7994 64.4139 64.4994 64.0099 64.2994C63.1999 63.9004 62.1889 63.9004 61.3799 64.1994C59.9629 64.8994 59.3569 66.3994 59.9629 67.7994C60.2669 68.3004 60.7719 68.9004 61.4799 69.3004Z" fill="#0C91DF"/>
<path d="M62.492 37C63.219 37 63.807 37.582 63.807 38.3C63.807 39.018 63.218 39.6 62.492 39.6C61.766 39.6 61.178 39.018 61.178 38.3C61.178 37.582 61.766 37 62.492 37Z" fill="#0C91DF"/>
<path d="M62.492 54.5C63.219 54.5 63.807 55.082 63.807 55.8C63.807 56.518 63.218 57.1 62.492 57.1C61.766 57.1 61.178 56.518 61.178 55.8C61.178 55.082 61.766 54.5 62.492 54.5Z" fill="#0C91DF"/>
<path d="M51.0611 52C51.7881 52 52.3771 52.582 52.3771 53.3C52.3771 54.018 51.7881 54.6 51.0611 54.6C50.3341 54.6 49.7461 54.018 49.7461 53.3C49.7461 52.582 50.3351 52 51.0611 52Z" fill="#0C91DF"/>
<path d="M24.5582 57C25.2852 57 25.8731 57.582 25.8731 58.3C25.8731 59.018 25.2842 59.6 24.5582 59.6C23.8312 59.6 23.2432 59.018 23.2432 58.3C23.2422 57.582 23.8312 57 24.5582 57Z" fill="#0C91DF"/>
<path d="M23.242 67C23.969 67 24.557 67.582 24.557 68.3C24.557 69.018 23.968 69.6 23.242 69.6C22.516 69.6 21.928 69.018 21.928 68.3C21.928 67.582 22.517 67 23.242 67Z" fill="#0C91DF"/>
<path d="M33.3579 20.7002C34.0849 20.7002 34.6729 21.2822 34.6729 22.0002C34.6729 22.7182 34.0839 23.3002 33.3579 23.3002C32.6319 23.3002 32.0439 22.7182 32.0439 22.0002C32.0439 21.2822 32.6319 20.7002 33.3579 20.7002Z" fill="#0C91DF"/>
<path d="M77.6658 53.2002C78.3928 53.2002 78.9808 53.7822 78.9808 54.5002C78.9808 55.2182 78.3918 55.8002 77.6658 55.8002C76.9388 55.8002 76.3518 55.2182 76.3518 54.5002C76.3518 53.7822 76.9388 53.2002 77.6658 53.2002Z" fill="#0C91DF"/>
<path d="M47.3179 32.0004H70.0789C70.7869 32.0004 71.394 31.4004 71.394 30.7004C71.394 30.0004 70.7869 29.4004 70.0789 29.4004H47.3179C46.6099 29.4004 46.0029 30.0004 46.0029 30.7004C46.0029 31.4004 46.6099 32.0004 47.3179 32.0004Z" fill="#0C91DF"/>
<path d="M67.551 34.5002C67.551 33.8002 66.944 33.2002 66.236 33.2002H52.378C51.669 33.2002 51.062 33.8002 51.062 34.5002C51.062 35.2002 51.669 35.8002 52.378 35.8002H66.337C66.943 35.8002 67.551 35.2002 67.551 34.5002Z" fill="#0C91DF"/>
<path d="M59.9631 38.3C59.9631 37.6 59.3571 37 58.6481 37H51.0611C50.3531 37 49.7461 37.6 49.7461 38.3C49.7461 39 50.3531 39.6 51.0611 39.6H58.6481C59.3561 39.5 59.9631 38.9 59.9631 38.3Z" fill="#0C91DF"/>
<path d="M68.7652 40.8003H56.1192C55.4112 40.8003 54.8052 41.4013 54.8052 42.1003C54.8052 42.8003 55.4112 43.4013 56.1192 43.4013H68.7652C69.4732 43.4013 70.0792 42.8003 70.0792 42.1003C70.0792 41.3003 69.4732 40.8003 68.7652 40.8003Z" fill="#0C91DF"/>
<path d="M28.3011 25.8C28.3011 23.7 26.5811 22 24.4571 22C22.3321 22 20.6121 23.7 20.6121 25.8C20.6121 27.901 22.3321 29.6 24.4571 29.6C26.5811 29.6 28.3011 27.8 28.3011 25.8ZM23.2421 25.8C23.2421 25.1 23.8491 24.5 24.5571 24.5C25.2651 24.5 25.8721 25.1 25.8721 25.8C25.8721 26.5 25.2651 27.1 24.5571 27.1C23.8491 27.1 23.2421 26.4 23.2421 25.8Z" fill="#0C91DF"/>
<path d="M75.1381 62C72.3051 62 70.0791 64.2 70.0791 67C70.0791 69.8 72.3051 72 75.1381 72C77.9701 72 80.1961 69.8 80.1961 67C80.1961 64.2 77.8681 62 75.1381 62ZM75.1381 69.5C73.7211 69.5 72.6091 68.4 72.6091 67C72.6091 65.6 73.7211 64.5 75.1381 64.5C76.5541 64.5 77.6661 65.6 77.6661 67C77.6661 68.4 76.5541 69.5 75.1381 69.5Z" fill="#0C91DF"/>
</svg>
